SplineFontDB: 3.0
FontName: HeadlandOne-Regular
FullName: HeadlandOne-Regular
FamilyName: HeadlandOne
Weight: Book
Copyright: Copyright (c) 2011, Sorkin Type Co (www.sorkintype.com)\nwith Reserved Font Name "Headland".\n\nThis Font Software is licensed under the SIL Open Font License,\nVersion 1.1. This license is available with a FAQ at:\nhttp://scripts.sil.org/OFL
Version: 1.002
ItalicAngle: 0
UnderlinePosition: -28
UnderlineWidth: 142
Ascent: 1638
Descent: 410
LayerCount: 2
Layer: 0 1 "Back"  1
Layer: 1 1 "Fore"  0
XUID: [1021 631 1661839179 6158606]
FSType: 0
OS2Version: 3
OS2_WeightWidthSlopeOnly: 0
OS2_UseTypoMetrics: 1
CreationTime: 1333539960
ModificationTime: 1333527124
PfmFamily: 17
TTFWeight: 400
TTFWidth: 5
LineGap: 0
VLineGap: 0
Panose: 2 2 6 2 6 3 0 6 7 4
OS2TypoAscent: 402
OS2TypoAOffset: 1
OS2TypoDescent: -110
OS2TypoDOffset: 1
OS2TypoLinegap: 0
OS2WinAscent: -3
OS2WinAOffset: 1
OS2WinDescent: -2
OS2WinDOffset: 1
HheadAscent: -3
HheadAOffset: 1
HheadDescent: 2
HheadDOffset: 1
OS2SubXSize: 1434
OS2SubYSize: 1331
OS2SubXOff: 0
OS2SubYOff: 287
OS2SupXSize: 1434
OS2SupYSize: 1331
OS2SupXOff: 0
OS2SupYOff: 977
OS2StrikeYSize: 102
OS2StrikeYPos: 512
OS2Vendor: 'STC '
OS2CodePages: 20000093.00000000
OS2UnicodeRanges: a00000af.4000204a.00000000.00000000
DEI: 91125
ShortTable: maxp 16
  1
  0
  423
  142
  7
  171
  4
  1
  0
  0
  0
  0
  0
  0
  2
  1
EndShort

StartChar: A
Encoding: 65 65 4
Width: 1533
Flags: HW
LayerCount: 2
Fore
SplineSet
9 109 m 1,0,1
 84.5862 109 84.5862 109 110.793 129 c 0,2,3
 150.807 159.537 150.807 159.537 181 232 c 1,4,-1
 180 232 l 1,5,-1
 680 1530 l 1,6,7
 735.875 1530 735.875 1530 787.938 1547 c 128,-1,8
 840 1564 840 1564 853 1573 c 1,9,-1
 1315 335 l 1,10,11
 1369.45 178.051 1369.45 178.051 1433.5 126.5 c 0,12,13
 1454 110 1454 110 1471 110 c 0,14,15
 1521.31 110 1521.31 110 1551 129 c 1,16,-1
 1529 0 l 1,17,-1
 934 0 l 1,18,-1
 949 110 l 1,19,20
 1117.97 107.318 1117.97 107.318 1132.5 173.5 c 0,21,22
 1136.81 193.589 1136.81 193.589 1132 218 c 1,23,-1
 1004 557 l 1,24,-1
 470 557 l 1,25,-1
 342 191 l 1,26,27
 323.474 144.684 323.474 144.684 363.5 118 c 0,28,29
 375.43 110 375.43 110 405.715 110 c 128,-1,30
 436 110 436 110 458 111.5 c 0,31,32
 511.778 115.167 511.778 115.167 538 125 c 1,33,-1
 522 0 l 1,34,-1
 -4 0 l 1,35,-1
 9 109 l 1,0,1
958 680 m 1,36,-1
 728 1291 l 1,37,-1
 513 680 l 1,38,-1
 958 680 l 1,36,-1
EndSplineSet
EndChar

StartChar: B
Encoding: 66 66 5
Width: 1536
Flags: HW
LayerCount: 2
Fore
SplineSet
785 -16 m 1,0,-1
 409 -1 l 1,1,-1
 103 -1 l 1,2,-1
 111 110 l 1,3,4
 202.108 110 202.108 110 234.554 134.5 c 0,5,6
 294 179.388 294 179.388 294 282 c 2,7,-1
 294 1222 l 2,8,9
 294 1380.67 294 1380.67 232 1406.5 c 0,10,11
 214 1414 214 1414 173.25 1414 c 128,-1,12
 132.5 1414 132.5 1414 105 1403 c 1,13,-1
 114 1530 l 1,14,-1
 409 1530 l 1,15,16
 477 1531.89 477 1531.89 541 1535.44 c 0,17,18
 713 1545 713 1545 819.5 1545 c 128,-1,19
 926 1545 926 1545 1023.5 1519.5 c 128,-1,20
 1121 1494 1121 1494 1186 1447 c 0,21,22
 1317 1352.28 1317 1352.28 1317 1184 c 0,23,24
 1317 1050.9 1317 1050.9 1238.5 952.5 c 0,25,26
 1173.17 870.61 1173.17 870.61 1063 827 c 1,27,28
 1250.11 809.99 1250.11 809.99 1350 702.5 c 0,29,30
 1440 605.652 1440 605.652 1440 463 c 0,31,32
 1440 254.168 1440 254.168 1271.5 123 c 0,33,34
 1092.94 -16 1092.94 -16 785 -16 c 1,0,-1
1078 1164 m 0,35,36
 1078 1429 1078 1429 730 1429 c 0,37,38
 614.875 1429 614.875 1429 573.438 1420.5 c 2,39,-1
 511 1408 l 1,40,-1
 511 855 l 1,41,-1
 802 855 l 2,42,43
 1018 855 1018 855 1063 1029 c 0,44,45
 1078 1087 1078 1087 1078 1164 c 0,35,36
511 739 m 1,46,-1
 513 236 l 2,47,48
 513 151.739 513 151.739 574.5 125 c 0,49,50
 632 100 632 100 780 100 c 128,-1,51
 928 100 928 100 1002.5 125.5 c 128,-1,52
 1077 151 1077 151 1120.5 197 c 0,53,54
 1197 277.897 1197 277.897 1197 446 c 128,-1,55
 1197 614.121 1197 614.121 1107.5 676.5 c 0,56,57
 1016.39 740 1016.39 740 763 740 c 1,58,-1
 511 739 l 1,46,-1
EndSplineSet
EndChar

StartChar: C
Encoding: 67 67 6
Width: 1709
Flags: HW
LayerCount: 2
Fore
SplineSet
1540 409 m 1,0,1
 1542 389 1542 389 1542 358.5 c 128,-1,2
 1542 328 1542 328 1538.5 288.5 c 128,-1,3
 1535 249 1535 249 1529.5 211.5 c 0,4,5
 1517.25 127.956 1517.25 127.956 1504 92 c 1,6,7
 1290 -15 1290 -15 948 -15 c 0,8,9
 627.639 -15 627.639 -15 402.5 153.5 c 0,10,11
 237.131 277.267 237.131 277.267 171 499 c 0,12,13
 137 613 137 613 137 776.5 c 128,-1,14
 137 940 137 940 200 1085.5 c 128,-1,15
 263 1231 263 1231 376 1333 c 0,16,17
 610.863 1545 610.863 1545 986 1545 c 0,18,19
 1055.5 1545 1055.5 1545 1168.75 1532 c 128,-1,20
 1282 1519 1282 1519 1317 1515.5 c 2,21,-1
 1385 1509 l 2,22,23
 1462 1502 1462 1502 1486 1502 c 2,24,-1
 1517.5 1502 l 2,25,26
 1525 1502 1525 1502 1540 1504 c 1,27,28
 1542 1480 1542 1480 1542 1391.14 c 128,-1,29
 1542 1302.29 1542 1302.29 1510 1092 c 1,30,-1
 1382 1092 l 1,31,32
 1363.17 1242.67 1363.17 1242.67 1334 1301 c 1,33,34
 1251.32 1434 1251.32 1434 971 1434 c 0,35,36
 690.983 1434 690.983 1434 534 1250.5 c 0,37,38
 384 1075.16 384 1075.16 384 787 c 0,39,40
 384 454 384 454 572.5 265.5 c 0,41,42
 744 94 744 94 992 94 c 0,43,44
 1170.69 94 1170.69 94 1263.5 162 c 0,45,46
 1357.63 230.97 1357.63 230.97 1415 409 c 1,47,-1
 1540 409 l 1,0,1
EndSplineSet
EndChar

StartChar: D
Encoding: 68 68 7
Width: 1539
Flags: HW
LayerCount: 2
Fore
SplineSet
707 -15 m 1,0,-1
 373 -1 l 1,1,-1
 92 0 l 1,2,-1
 99 110 l 1,3,4
 188.789 110 188.789 110 218.895 136 c 0,5,6
 272 181.864 272 181.864 272 286 c 2,7,-1
 272 1229 l 2,8,9
 272 1334 272 1334 251 1365.5 c 128,-1,10
 230 1397 230 1397 210 1406 c 128,-1,11
 190 1415 190 1415 160.214 1415 c 128,-1,12
 130.429 1415 130.429 1415 91 1403 c 1,13,-1
 101 1530 l 1,14,-1
 353 1530 l 1,15,-1
 718 1545 l 1,16,17
 1494 1545 1494 1545 1494 809 c 0,18,19
 1494 436.437 1494 436.437 1279 211 c 0,20,21
 1063.46 -14.9999 1063.46 -14.9999 707 -15 c 1,0,-1
823.5 1416 m 0,22,23
 745 1429 745 1429 661.444 1429 c 128,-1,24
 577.889 1429 577.889 1429 489 1409 c 1,25,-1
 489 208 l 2,26,27
 489 158.231 489 158.231 496.5 146.115 c 128,-1,28
 504 134 504 134 519 128.5 c 128,-1,29
 534 123 534 123 562.5 120 c 0,30,31
 610 115 610 115 732.5 115 c 128,-1,32
 855 115 855 115 949 151.5 c 128,-1,33
 1043 188 1043 188 1111 266.5 c 0,34,35
 1255 432.735 1255 432.735 1255 763 c 0,36,37
 1255 1344.54 1255 1344.54 823.5 1416 c 0,22,23
EndSplineSet
EndChar

StartChar: E
Encoding: 69 69 8
Width: 1368
Flags: HW
LayerCount: 2
Fore
SplineSet
955 600 m 1,0,-1
 953 568 l 1,1,-1
 830 568 l 1,2,3
 823.362 680.838 823.362 680.838 804.181 709.919 c 0,4,5
 770.489 761 770.489 761 681 761 c 2,6,-1
 480 761 l 1,7,-1
 480 279 l 2,8,9
 480 181.714 480 181.714 517 150 c 0,10,11
 553.132 119.029 553.132 119.029 672 115 c 1,12,-1
 863 115 l 2,13,14
 1063.04 115 1063.04 115 1139 287.5 c 0,15,16
 1163 342 1163 342 1171 410 c 1,17,-1
 1295 410 l 1,18,19
 1295 296.421 1295 296.421 1272.5 169.711 c 2,20,-1
 1242 0 l 1,21,-1
 87 0 l 1,22,-1
 104 110 l 1,23,24
 203.532 110 203.532 110 235 153.5 c 0,25,26
 263 192.206 263 192.206 263 307 c 2,27,-1
 263 1221 l 2,28,29
 263 1414 263 1414 176 1414 c 0,30,31
 140.5 1414 140.5 1414 100 1405 c 1,32,-1
 112 1530 l 1,33,-1
 888 1530 l 2,34,35
 1129 1530 1129 1530 1249 1546 c 1,36,37
 1249 1385.6 1249 1385.6 1217.5 1226 c 0,38,39
 1210 1188 1210 1188 1204 1168 c 1,40,-1
 1102 1168 l 1,41,42
 1092.38 1329.65 1092.38 1329.65 1040 1373 c 0,43,44
 1011 1397 1011 1397 964.5 1403 c 128,-1,45
 918 1409 918 1409 848 1409 c 2,46,-1
 480 1409 l 1,47,-1
 480 874 l 1,48,-1
 687 874 l 2,49,50
 786.762 874 786.762 874 818.5 917 c 0,51,52
 838.173 943.654 838.173 943.654 850 1043 c 1,53,-1
 972 1044 l 1,54,-1
 973 991 l 1,55,56
 973 864 973 864 955 600 c 1,0,-1
EndSplineSet
EndChar

StartChar: F
Encoding: 70 70 9
Width: 1368
Flags: HW
LayerCount: 2
Fore
SplineSet
939 1530 m 2,0,1
 1182 1530 1182 1530 1298 1546 c 1,2,3
 1298 1309 1298 1309 1253 1159 c 1,4,-1
 1147 1159 l 1,5,6
 1135.51 1319.84 1135.51 1319.84 1073.5 1368.5 c 0,7,8
 1021.88 1409 1021.88 1409 871 1409 c 2,9,-1
 479 1409 l 1,10,-1
 479 852 l 1,11,-1
 702 852 l 2,12,13
 817.189 852 817.189 852 847.595 877 c 128,-1,14
 878 902 878 902 889.5 936 c 128,-1,15
 901 970 901 970 908 1026 c 1,16,-1
 1036 1026 l 1,17,-1
 1013 549 l 1,18,-1
 890 549 l 1,19,20
 888 630 888 630 865 671 c 128,-1,21
 842 712 842 712 816 722 c 0,22,23
 794.029 730.788 794.029 730.788 680.015 732.394 c 128,-1,24
 566 734 566 734 533.5 734.5 c 128,-1,25
 501 735 501 735 479 735 c 1,26,-1
 479 271 l 2,27,28
 479 179.091 479 179.091 501.5 154.545 c 128,-1,29
 524 130 524 130 552 122.5 c 128,-1,30
 580 115 580 115 609 115 c 128,-1,31
 638 115 638 115 656.5 115.5 c 128,-1,32
 675 116 675 116 696 116.5 c 0,33,34
 747.333 117.722 747.333 117.722 779 123 c 1,35,-1
 766 0 l 1,36,-1
 87 0 l 1,37,-1
 104 110 l 1,38,39
 203.957 110 203.957 110 234.5 153.5 c 0,40,41
 262 192.667 262 192.667 262 307 c 2,42,-1
 262 1221 l 2,43,44
 262 1414 262 1414 176 1414 c 0,45,46
 140.5 1414 140.5 1414 100 1405 c 1,47,-1
 112 1530 l 1,48,-1
 939 1530 l 2,0,1
EndSplineSet
EndChar

StartChar: G
Encoding: 71 71 10
Width: 1709
Flags: HW
LayerCount: 2
Fore
SplineSet
1501 97 m 1,0,1
 1303.25 -16 1303.25 -16 938 -16 c 0,2,3
 527.16 -16 527.16 -16 315 192 c 0,4,5
 112 391.02 112 391.02 112 747 c 0,6,7
 112 1072.31 112 1072.31 314.5 1295.5 c 0,8,9
 456.283 1451.77 456.283 1451.77 688.5 1513.5 c 0,10,11
 807 1545 807 1545 925 1545 c 0,12,13
 1063 1545 1063 1545 1187.5 1529.5 c 0,14,15
 1384.29 1505 1384.29 1505 1445 1505 c 1,16,-1
 1481 1506 l 1,17,18
 1481 1315 1481 1315 1453 1103 c 1,19,-1
 1314 1103 l 1,20,21
 1301.99 1297.14 1301.99 1297.14 1226 1368.5 c 0,22,23
 1150.92 1439 1150.92 1439 974.961 1439 c 128,-1,24
 799 1439 799 1439 682.5 1385.5 c 128,-1,25
 566 1332 566 1332 493 1242 c 0,26,27
 354 1070.63 354 1070.63 354 782 c 0,28,29
 354 306 354 306 691.5 158.5 c 0,30,31
 813.915 105 813.915 105 963 105 c 0,32,33
 1203.47 105 1203.47 105 1271 193 c 1,34,-1
 1271 501 l 2,35,36
 1271 645.131 1271 645.131 1160.5 656 c 0,37,38
 1130 659 1130 659 1085.75 659 c 128,-1,39
 1041.5 659 1041.5 659 1003 652 c 1,40,-1
 1013 787 l 1,41,-1
 1621 787 l 1,42,-1
 1607 661 l 1,43,44
 1560 660 1560 660 1533 651.5 c 128,-1,45
 1506 643 1506 643 1492.5 614.5 c 0,46,47
 1471 569.111 1471 569.111 1471 384 c 0,48,49
 1471 170.333 1471 170.333 1501 97 c 1,0,1
EndSplineSet
EndChar

StartChar: H
Encoding: 72 72 11
Width: 1706
Flags: HW
LayerCount: 2
Fore
SplineSet
1485 117 m 0,0,1
 1501 110 1501 110 1525 110 c 128,-1,2
 1549 110 1549 110 1605 124 c 1,3,-1
 1593 0 l 1,4,-1
 1042 0 l 1,5,-1
 1060 110 l 1,6,7
 1156.83 110 1156.83 110 1191.5 162.5 c 0,8,9
 1221 207.171 1221 207.171 1221 327 c 2,10,-1
 1221 726 l 1,11,-1
 483 726 l 1,12,-1
 483 269 l 2,13,14
 483 162.429 483 162.429 492.5 140.714 c 128,-1,15
 502 119 502 119 514.5 114.5 c 128,-1,16
 527 110 527 110 554.5 110 c 0,17,18
 604 110 604 110 668 126 c 1,19,-1
 653 0 l 1,20,-1
 90 0 l 1,21,-1
 107 110 l 1,22,23
 206.532 110 206.532 110 238 153.5 c 0,24,25
 266 192.206 266 192.206 266 307 c 2,26,-1
 266 1221 l 2,27,28
 266 1414 266 1414 181 1414 c 0,29,30
 145 1414 145 1414 103 1405 c 1,31,-1
 115 1530 l 1,32,-1
 648 1530 l 1,33,-1
 633 1414 l 1,34,35
 587 1414 587 1414 558 1409 c 128,-1,36
 529 1404 529 1404 512.5 1384 c 0,37,38
 483 1348.24 483 1348.24 483 1208 c 2,39,-1
 483 852 l 1,40,-1
 1221 852 l 1,41,-1
 1221 1214 l 2,42,43
 1221 1340.32 1221 1340.32 1207.5 1370.16 c 128,-1,44
 1194 1400 1194 1400 1178 1407 c 128,-1,45
 1162 1414 1162 1414 1132 1414 c 0,46,47
 1084.8 1414 1084.8 1414 1032 1402 c 1,48,-1
 1051 1530 l 1,49,-1
 1607 1530 l 1,50,-1
 1593 1414 l 1,51,52
 1504.61 1414 1504.61 1414 1473.5 1377 c 0,53,54
 1437 1333.59 1437 1333.59 1437 1213 c 2,55,-1
 1437 258 l 2,56,57
 1437 138 1437 138 1485 117 c 0,0,1
EndSplineSet
EndChar

StartChar: I
Encoding: 73 73 12
Width: 853
Flags: HW
LayerCount: 2
Fore
SplineSet
586.5 118.5 m 128,-1,1
 609 110 609 110 636.5 110 c 128,-1,2
 664 110 664 110 739 125 c 1,3,-1
 727 0 l 1,4,-1
 114 0 l 1,5,-1
 125 110 l 1,6,7
 223.132 110 223.132 110 267 156.5 c 0,8,9
 318 210.56 318 210.56 318 341 c 2,10,-1
 317 1214 l 2,11,12
 317 1383.74 317 1383.74 265.5 1407 c 0,13,14
 250 1414 250 1414 229 1414 c 0,15,16
 170 1414 170 1414 122 1405 c 1,17,-1
 138 1530 l 1,18,-1
 723 1530 l 1,19,-1
 707 1414 l 1,20,21
 594.395 1414 594.395 1414 563 1376.5 c 0,22,23
 534 1341.86 534 1341.86 534 1221 c 2,24,-1
 534 271 l 2,25,26
 534 175.261 534 175.261 549 151.13 c 128,-1,0
 564 127 564 127 586.5 118.5 c 128,-1,1
EndSplineSet
EndChar

StartChar: K
Encoding: 75 75 13
Width: 1536
Flags: HW
LayerCount: 2
Fore
SplineSet
1435 1412 m 1,0,1
 1421 1416 1421 1416 1415.5 1416 c 128,-1,2
 1410 1416 1410 1416 1386 1415 c 128,-1,3
 1362 1414 1362 1414 1339.5 1406.5 c 128,-1,4
 1317 1399 1317 1399 1286.5 1377.5 c 0,5,6
 1214.88 1327.01 1214.88 1327.01 1123 1221 c 2,7,-1
 763 806 l 1,8,9
 909.796 701.549 909.796 701.549 1107.5 459.5 c 0,10,11
 1161 394 1161 394 1198.5 340.5 c 128,-1,12
 1236 287 1236 287 1269 244.5 c 128,-1,13
 1302 202 1302 202 1331.5 172.5 c 0,14,15
 1392 112 1392 112 1434.5 112 c 128,-1,16
 1477 112 1477 112 1510 121 c 1,17,-1
 1506 0 l 1,18,-1
 1271 0 l 2,19,20
 1161.41 0 1161.41 0 1070 115 c 0,21,22
 1039 154 1039 154 1011.5 200 c 0,23,24
 930.667 332.145 930.667 332.145 892.833 388.072 c 2,25,-1
 817.5 496 l 1,26,27
 690.323 672.353 690.323 672.353 606 737 c 1,28,-1
 513 737 l 1,29,-1
 513 300 l 2,30,31
 513 200.286 513 200.286 526.5 168.143 c 0,32,33
 550.92 110 550.92 110 614 110 c 0,34,35
 655.333 110 655.333 110 716 124 c 1,36,-1
 703 0 l 1,37,-1
 131 0 l 1,38,-1
 143 110 l 1,39,40
 239.766 110 239.766 110 267.5 149.5 c 0,41,42
 296 190.091 296 190.091 296 331 c 2,43,-1
 296 1222 l 2,44,45
 296 1330.5 296 1330.5 283.5 1361.75 c 128,-1,46
 271 1393 271 1393 255 1403.5 c 128,-1,47
 239 1414 239 1414 222.5 1414 c 128,-1,48
 206 1414 206 1414 194 1413.5 c 128,-1,49
 182 1413 182 1413 168.5 1412 c 2,50,-1
 142 1410 l 2,51,52
 129 1409 129 1409 119 1408 c 1,53,-1
 137 1530 l 1,54,-1
 678 1530 l 1,55,-1
 663 1414 l 1,56,57
 576.923 1414 576.923 1414 552.462 1387.5 c 0,58,59
 513 1344.75 513 1344.75 513 1232 c 2,60,-1
 513 852 l 1,61,-1
 582 852 l 2,62,63
 615.75 852 615.75 852 637 869 c 1,64,-1
 920.5 1194.5 l 2,65,66
 961 1242 961 1242 970 1257 c 0,67,68
 988.692 1288.15 988.692 1288.15 1003.35 1305.58 c 0,69,70
 1042 1351.54 1042 1351.54 1042 1371 c 0,71,72
 1042 1421 1042 1421 988 1421 c 0,73,74
 939 1421 939 1421 897 1412 c 1,75,-1
 914 1530 l 1,76,-1
 1453 1530 l 1,77,-1
 1435 1412 l 1,0,1
EndSplineSet
EndChar

StartChar: L
Encoding: 76 76 14
Width: 1367
Flags: HW
LayerCount: 2
Fore
SplineSet
1273 447 m 1,0,1
 1278 392 1278 392 1278 333 c 0,2,3
 1278 249.8 1278 249.8 1259.5 151.9 c 0,4,5
 1235.75 26.2001 1235.75 26.2001 1234 0 c 1,6,-1
 62 0 l 1,7,-1
 74 115 l 1,8,9
 169.939 112.868 169.939 112.868 208.5 154 c 0,10,11
 253 201.467 253 201.467 253 331 c 2,12,-1
 252 1248 l 2,13,14
 252 1356.4 252 1356.4 238 1380.2 c 128,-1,15
 224 1404 224 1404 208.5 1409 c 128,-1,16
 193 1414 193 1414 165.625 1414 c 128,-1,17
 138.25 1414 138.25 1414 118.125 1409.5 c 0,18,19
 93.5278 1404 93.5278 1404 86 1404 c 1,20,-1
 102 1530 l 1,21,-1
 702 1530 l 1,22,-1
 688 1413 l 1,23,24
 558.75 1413 558.75 1413 526.875 1393 c 128,-1,25
 495 1373 495 1373 483.5 1341 c 128,-1,26
 472 1309 472 1309 472 1254 c 1,27,-1
 473 1223 l 1,28,-1
 473 280 l 2,29,30
 473 131.897 473 131.897 571 115 c 0,31,32
 600 110 600 110 633 110 c 2,33,-1
 798 110 l 2,34,35
 1072.89 110 1072.89 110 1126.5 321 c 0,36,37
 1142 382 1142 382 1149 447 c 1,38,-1
 1273 447 l 1,0,1
EndSplineSet
EndChar

StartChar: M
Encoding: 77 77 15
Width: 2219
Flags: HW
LayerCount: 2
Fore
SplineSet
457 122.5 m 128,-1,1
 477 114 477 114 509.5 114 c 128,-1,2
 542 114 542 114 629 129 c 1,3,-1
 618 0 l 1,4,-1
 79 0 l 1,5,-1
 85 114 l 1,6,7
 169.816 112.115 169.816 112.115 198.5 144.5 c 0,8,9
 245.032 197.036 245.032 197.036 327 674.5 c 1,10,-1
 419 1240 l 2,11,12
 426 1282 426 1282 426 1318 c 0,13,14
 426 1414 426 1414 346 1414 c 0,15,16
 291 1414 291 1414 243 1402 c 1,17,-1
 259 1530 l 1,18,-1
 711 1530 l 1,19,20
 725.951 1442.16 725.951 1442.16 770.975 1292.08 c 1,21,22
 870.389 971.746 870.389 971.746 919.695 826.873 c 0,23,24
 1046.73 459.51 1046.73 459.51 1101 316 c 1,25,26
 1401.72 1203.63 1401.72 1203.63 1440.86 1339.31 c 128,-1,27
 1480 1475 1480 1475 1492 1530 c 1,28,-1
 1941 1530 l 1,29,-1
 1926 1414 l 1,30,31
 1827.63 1414 1827.63 1414 1802.32 1401 c 128,-1,32
 1777 1388 1777 1388 1769 1371 c 128,-1,33
 1761 1354 1761 1354 1761 1334 c 0,34,35
 1761 1307.5 1761 1307.5 1766 1265 c 1,36,-1
 1785 1132 l 1,37,38
 1852.28 652.611 1852.28 652.611 1940 279 c 1,39,40
 1965.12 180.602 1965.12 180.602 1980.56 156.801 c 0,41,42
 2005.73 118 2005.73 118 2053 118 c 0,43,44
 2117.67 118 2117.67 118 2158 129 c 1,45,-1
 2145 0 l 1,46,-1
 1546 0 l 1,47,-1
 1559 99 l 1,48,49
 1640.64 96.7934 1640.64 96.7934 1672.32 120.897 c 0,50,51
 1730 164.783 1730 164.783 1730 254 c 0,52,53
 1730 291 1730 291 1716.5 369.5 c 2,54,-1
 1559 1248 l 1,55,-1
 1276.5 410 l 2,56,57
 1210 211 1210 211 1154 13 c 1,58,59
 1107.54 13 1107.54 13 1006 -17 c 1,60,-1
 568 1246 l 1,61,62
 550 1120 550 1120 527.5 991.5 c 0,63,64
 480.454 728.785 480.454 728.785 463.227 639.892 c 128,-1,65
 446 551 446 551 435 485.5 c 0,66,67
 410 336.636 410 336.636 410 267.818 c 128,-1,68
 410 199 410 199 413 179.5 c 128,-1,69
 416 160 416 160 426.5 145.5 c 128,-1,0
 437 131 437 131 457 122.5 c 128,-1,1
EndSplineSet
EndChar

StartChar: N
Encoding: 78 78 16
Width: 1706
Flags: HW
LayerCount: 2
Fore
SplineSet
1512 17 m 1,0,1
 1431.22 10.2683 1431.22 10.2683 1380 -19 c 1,2,3
 1314 80 1314 80 1224.5 203 c 1,4,-1
 1031 463 l 1,5,-1
 812.5 746.5 l 1,6,-1
 414 1250 l 1,7,-1
 414 301 l 2,8,9
 414 197.5 414 197.5 433.5 163.75 c 128,-1,10
 453 130 453 130 473 120 c 128,-1,11
 493 110 493 110 516 110 c 128,-1,12
 539 110 539 110 559 111.5 c 128,-1,13
 579 113 579 113 597 115.5 c 2,14,-1
 630.5 120 l 2,15,16
 646 122 646 122 655 124 c 1,17,-1
 643 0 l 1,18,-1
 85 0 l 1,19,-1
 98 110 l 1,20,21
 190.647 110 190.647 110 217.824 131 c 0,22,23
 269 170.545 269 170.545 269 284 c 2,24,-1
 269 1221 l 2,25,26
 269 1331.53 269 1331.53 256 1360.26 c 128,-1,27
 243 1389 243 1389 225.5 1397.5 c 128,-1,28
 208 1406 208 1406 182.5 1406 c 0,29,30
 149.75 1406 149.75 1406 81 1395 c 1,31,-1
 96 1530 l 1,32,-1
 514 1530 l 1,33,34
 545.902 1434.29 545.902 1434.29 606.951 1350.15 c 2,35,-1
 737.5 1172.5 l 1,36,37
 1263.97 489.684 1263.97 489.684 1352 383 c 1,38,-1
 1352 1244 l 2,39,40
 1352 1360.67 1352 1360.67 1340 1383.33 c 128,-1,41
 1328 1406 1328 1406 1311.5 1410.5 c 128,-1,42
 1295 1415 1295 1415 1261.75 1415 c 128,-1,43
 1228.5 1415 1228.5 1415 1157 1404 c 1,44,-1
 1168 1530 l 1,45,-1
 1682 1530 l 1,46,-1
 1668 1415 l 1,47,48
 1611 1415 1611 1415 1577 1413.5 c 128,-1,49
 1543 1412 1543 1412 1525.5 1398.5 c 0,50,51
 1497 1376.51 1497 1376.51 1497 1269 c 2,52,-1
 1497 253 l 2,53,54
 1497 137 1497 137 1512 17 c 1,0,1
EndSplineSet
EndChar

StartChar: O
Encoding: 79 79 17
Width: 1709
Flags: HW
LayerCount: 2
Fore
SplineSet
167.5 416 m 128,-1,1
 117 556 117 556 120 728.5 c 128,-1,2
 123 901 123 901 175.5 1048 c 128,-1,3
 228 1195 228 1195 327 1306 c 0,4,5
 541.054 1546 541.054 1546 903 1546 c 0,6,7
 1208.29 1546 1208.29 1546 1396.5 1347.5 c 0,8,9
 1589 1144.48 1589 1144.48 1589 797 c 1,10,11
 1576.35 455.397 1576.35 455.397 1378 228.5 c 0,12,13
 1243.58 74.7373 1243.58 74.7373 1035.5 15 c 0,14,15
 931 -15 931 -15 793.5 -15 c 128,-1,16
 656 -15 656 -15 528.5 34.5 c 128,-1,17
 401 84 401 84 309.5 180 c 128,-1,0
 218 276 218 276 167.5 416 c 128,-1,1
638.5 163 m 128,-1,19
 733 112 733 112 845.5 112 c 128,-1,20
 958 112 958 112 1046.5 150 c 128,-1,21
 1135 188 1135 188 1201 265.5 c 0,22,23
 1344.19 433.636 1344.19 433.636 1348 733 c 1,24,25
 1354.15 1042.59 1354.15 1042.59 1227.5 1227 c 0,26,27
 1096.32 1418 1096.32 1418 851 1418 c 0,28,29
 638.706 1418 638.706 1418 508 1266.5 c 0,30,31
 365.744 1101.61 365.744 1101.61 360 801 c 0,32,33
 353.836 488.681 353.836 488.681 481 305 c 0,34,18
 544 214 544 214 638.5 163 c 128,-1,19
EndSplineSet
EndChar

StartChar: P
Encoding: 80 80 18
Width: 1364
Flags: HW
LayerCount: 2
Fore
SplineSet
588 117 m 128,-1,1
 617 110 617 110 663.333 110 c 128,-1,2
 709.667 110 709.667 110 783 130 c 1,3,-1
 771 0 l 1,4,-1
 125 0 l 1,5,-1
 136 109 l 1,6,7
 224.643 109 224.643 109 260 164 c 0,8,9
 293 215.333 293 215.333 293 331 c 2,10,-1
 292 1240 l 2,11,12
 292 1360.18 292 1360.18 282.5 1383.09 c 128,-1,13
 273 1406 273 1406 254.5 1414 c 128,-1,14
 236 1422 236 1422 199.5 1422 c 0,15,16
 144.6 1422 144.6 1422 94 1411 c 1,17,-1
 112 1530 l 1,18,-1
 314 1530 l 2,19,20
 504.5 1530 504.5 1530 586.25 1535.5 c 0,21,22
 727.455 1545 727.455 1545 839.727 1544 c 128,-1,23
 952 1543 952 1543 1049 1509 c 128,-1,24
 1146 1475 1146 1475 1206.5 1415 c 0,25,26
 1321 1301.45 1321 1301.45 1321 1095 c 0,27,28
 1321 873.17 1321 873.17 1162.5 733 c 0,29,30
 1008.72 597 1008.72 597 777 597 c 0,31,32
 686 597 686 597 593 622 c 1,33,-1
 574 739 l 1,34,35
 662 719 662 719 736.5 719 c 128,-1,36
 811 719 811 719 879 744 c 128,-1,37
 947 769 947 769 994 815.5 c 0,38,39
 1092 912.457 1092 912.457 1092 1082 c 0,40,41
 1092 1432 1092 1432 699 1432 c 0,42,43
 607 1432 607 1432 512 1413 c 1,44,-1
 512 261 l 2,45,46
 512 171 512 171 535.5 147.5 c 128,-1,0
 559 124 559 124 588 117 c 128,-1,1
EndSplineSet
EndChar

StartChar: Q
Encoding: 81 81 19
Width: 1709
Flags: HW
LayerCount: 2
Fore
SplineSet
893 -11 m 1,0,1
 865 -13 865 -13 837 -13 c 0,2,3
 524.359 -13 524.359 -13 338.5 182 c 0,4,5
 143.149 386.958 143.149 386.958 149 738 c 0,6,7
 155.272 1082.94 155.272 1082.94 356 1308 c 0,8,9
 570.054 1548 570.054 1548 932 1548 c 0,10,11
 1237.29 1548 1237.29 1548 1425.5 1349.5 c 0,12,13
 1618 1146.48 1618 1146.48 1618 799 c 1,14,15
 1607.61 522.671 1607.61 522.671 1472.5 317.5 c 0,16,17
 1328.37 98.6389 1328.37 98.6389 1084 23 c 1,18,19
 1173.77 -19.7493 1173.77 -19.7493 1237 -81 c 0,20,21
 1359.55 -198.444 1359.55 -198.444 1454 -204 c 256,22,23
 1509.1 -207.241 1509.1 -207.241 1591 -190 c 1,24,-1
 1625 -320 l 1,25,26
 1544 -401 1544 -401 1410 -401 c 0,27,28
 1254.76 -401 1254.76 -401 1125 -249 c 0,29,30
 1090 -208 1090 -208 1062 -171.5 c 128,-1,31
 1034 -135 1034 -135 1012 -109.5 c 128,-1,32
 990 -84 990 -84 970.5 -65 c 0,33,34
 932.416 -27.8926 932.416 -27.8926 893 -11 c 1,0,1
389 805.5 m 0,35,36
 386 651 386 651 416.5 524.5 c 128,-1,37
 447 398 447 398 510 307 c 0,38,39
 643.615 114 643.615 114 887 114 c 0,40,41
 1099.28 114 1099.28 114 1230 267.5 c 0,42,43
 1373.19 435.636 1373.19 435.636 1377 735 c 1,44,45
 1383.15 1044.59 1383.15 1044.59 1256.5 1229 c 0,46,47
 1125.32 1420 1125.32 1420 880 1420 c 0,48,49
 667.706 1420 667.706 1420 537 1268.5 c 0,50,51
 394.79 1103.67 394.79 1103.67 389 805.5 c 0,35,36
EndSplineSet
EndChar

StartChar: R
Encoding: 82 82 20
Width: 1535
Flags: HW
LayerCount: 2
Fore
SplineSet
571 120.5 m 128,-1,1
 593 110 593 110 635.5 110 c 128,-1,2
 678 110 678 110 742 126 c 1,3,-1
 731 0 l 1,4,-1
 141 0 l 1,5,-1
 153 110 l 1,6,7
 255.66 111.901 255.66 111.901 284.5 164 c 0,8,9
 308 206.452 308 206.452 308 350 c 2,10,-1
 307 1251 l 2,11,12
 307 1349.29 307 1349.29 297.5 1371.65 c 0,13,14
 279.5 1414 279.5 1414 216 1414 c 0,15,16
 164.8 1414 164.8 1414 112 1402 c 1,17,-1
 128 1530 l 1,18,-1
 416 1530 l 1,19,-1
 822 1545 l 1,20,21
 1190.49 1545 1190.49 1545 1287.5 1316 c 0,22,23
 1318 1244 1318 1244 1318 1153.5 c 128,-1,24
 1318 1063 1318 1063 1285 988 c 128,-1,25
 1252 913 1252 913 1200 856 c 0,26,27
 1096.45 742.497 1096.45 742.497 958 709 c 1,28,29
 1057.9 657.83 1057.9 657.83 1173.5 461.5 c 2,30,-1
 1289 266 l 1,31,32
 1377.88 119 1377.88 119 1428 119 c 1,33,34
 1466.62 117.244 1466.62 117.244 1513 132 c 1,35,-1
 1508 0 l 1,36,-1
 1356 0 l 2,37,38
 1205.19 0 1205.19 0 1112 103 c 1,39,40
 1065.76 161.475 1065.76 161.475 1030.88 253.237 c 2,41,-1
 976.5 393 l 1,42,43
 939.136 484.973 939.136 484.973 888.068 552.486 c 128,-1,44
 837 620 837 620 801.5 643 c 0,45,46
 738.217 684 738.217 684 602 684 c 2,47,-1
 518 684 l 1,48,-1
 518 280 l 2,49,50
 518 185.25 518 185.25 533.5 158.125 c 128,-1,0
 549 131 549 131 571 120.5 c 128,-1,1
892.5 1408.5 m 0,51,52
 828 1429 828 1429 778 1429 c 2,53,-1
 653.667 1429 l 2,54,55
 579.333 1429 579.333 1429 518 1413 c 1,56,-1
 518 804 l 1,57,-1
 759 804 l 1,58,59
 894.952 806.092 894.952 806.092 985.5 888.5 c 0,60,61
 1083 977.236 1083 977.236 1083 1122 c 0,62,63
 1083 1347.95 1083 1347.95 892.5 1408.5 c 0,51,52
EndSplineSet
EndChar

StartChar: S
Encoding: 83 83 21
Width: 1364
Flags: HW
LayerCount: 2
Fore
SplineSet
1172 1526 m 1,0,1
 1174 1486 1174 1486 1174 1385.32 c 128,-1,2
 1174 1284.64 1174 1284.64 1142 1113 c 1,3,-1
 1032 1113 l 1,4,5
 1026.44 1365.9 1026.44 1365.9 832 1418.5 c 0,6,7
 771 1435 771 1435 688 1435 c 128,-1,8
 605 1435 605 1435 547.5 1413 c 128,-1,9
 490 1391 490 1391 457.5 1356 c 0,10,11
 401.04 1295.2 401.04 1295.2 406 1196 c 0,12,13
 413.726 1044.06 413.726 1044.06 625.5 934 c 0,14,15
 689 901 689 901 752.5 873 c 128,-1,16
 816 845 816 845 871.5 817.5 c 128,-1,17
 927 790 927 790 979 757.5 c 128,-1,18
 1031 725 1031 725 1076.5 688 c 128,-1,19
 1122 651 1122 651 1157 607 c 0,20,21
 1231.46 513.399 1231.46 513.399 1239 404 c 1,22,23
 1239 201.2 1239 201.2 1078 88.5 c 0,24,25
 928.714 -16 928.714 -16 685 -16 c 0,26,27
 607.4 -16 607.4 -16 467 10 c 256,28,29
 326.6 36 326.6 36 272.3 36 c 128,-1,30
 218 36 218 36 178 30 c 1,31,-1
 170 32 l 1,32,33
 169 54 169 54 169 75.5 c 2,34,-1
 169 118 l 2,35,36
 169 328.9 169 328.9 192 460 c 1,37,-1
 305 460 l 1,38,39
 317.206 179.265 317.206 179.265 508.5 115.5 c 0,40,41
 576 93 576 93 661.5 93 c 128,-1,42
 747 93 747 93 809 112.5 c 128,-1,43
 871 132 871 132 915 166 c 0,44,45
 1007 237.091 1007 237.091 1007 348 c 1,46,47
 996.822 505.757 996.822 505.757 766 616 c 0,48,49
 699 648 699 648 658.5 665.5 c 2,50,-1
 607 688 l 2,51,52
 596 693 596 693 553.5 711 c 128,-1,53
 511 729 511 729 440.5 773 c 128,-1,54
 370 817 370 817 315 874 c 0,55,56
 194.685 998.69 194.685 998.69 191 1159 c 256,57,58
 187.025 1331.93 187.025 1331.93 334 1439.5 c 0,59,60
 478.149 1545 478.149 1545 712 1545 c 0,61,62
 748.2 1545 748.2 1545 821.6 1535.5 c 2,63,-1
 948.5 1519.5 l 2,64,65
 1002 1513 1002 1513 1056.5 1513 c 128,-1,66
 1111 1513 1111 1513 1172 1526 c 1,0,1
EndSplineSet
EndChar

StartChar: T
Encoding: 84 84 22
Width: 1535
Flags: HW
LayerCount: 2
Fore
SplineSet
1446 1476 m 1,0,-1
 1434 1128 l 1,1,-1
 1293 1128 l 1,2,3
 1293 1216 1293 1216 1289 1270 c 128,-1,4
 1285 1324 1285 1324 1263.5 1354 c 128,-1,5
 1242 1384 1242 1384 1196 1394.5 c 128,-1,6
 1150 1405 1150 1405 1067 1407 c 1,7,-1
 878 1407 l 1,8,-1
 878 290 l 2,9,10
 878 176.154 878 176.154 895.5 150.577 c 128,-1,11
 913 125 913 125 937 118.5 c 128,-1,12
 961 112 961 112 984.5 112 c 128,-1,13
 1008 112 1008 112 1030 113.5 c 128,-1,14
 1052 115 1052 115 1077 117.5 c 0,15,16
 1144.5 124.25 1144.5 124.25 1157 128 c 1,17,-1
 1145 0 l 1,18,-1
 377 1 l 1,19,-1
 385 112 l 1,20,21
 483 112 483 112 537.5 118 c 128,-1,22
 592 124 592 124 618.5 144.5 c 128,-1,23
 645 165 645 165 651 204.5 c 128,-1,24
 657 244 657 244 657 312 c 2,25,-1
 657 1407 l 1,26,-1
 500 1407 l 1,27,28
 334.4 1403.01 334.4 1403.01 276.5 1346 c 0,29,30
 219.133 1289.52 219.133 1289.52 205 1128 c 1,31,-1
 65 1128 l 1,32,33
 74.0541 1207.68 74.0541 1207.68 88.027 1294.34 c 128,-1,34
 102 1381 102 1381 109 1430.5 c 2,35,-1
 123 1530 l 1,36,-1
 1444 1530 l 1,37,38
 1446 1519 1446 1519 1446 1505.5 c 2,39,-1
 1446 1476 l 1,0,-1
EndSplineSet
EndChar

StartChar: V
Encoding: 86 86 23
Width: 1364
Flags: HW
LayerCount: 2
Fore
SplineSet
794 13 m 1,0,1
 708.133 13 708.133 13 654 -16 c 1,2,-1
 645 -15 l 1,3,-1
 299.5 802.5 l 1,4,5
 184.24 1087 184.24 1087 157.62 1158 c 128,-1,6
 131 1229 131 1229 113 1272.5 c 128,-1,7
 95 1316 95 1316 77.5 1347.5 c 0,8,9
 40.5556 1414 40.5556 1414 0 1414 c 0,10,11
 -23 1414 -23 1414 -57 1404 c 1,12,-1
 -43 1530 l 1,13,-1
 541 1530 l 1,14,-1
 523 1414 l 1,15,16
 331 1414 331 1414 331 1345 c 0,17,18
 331 1331 331 1331 335 1320 c 0,19,20
 713.865 312.838 713.865 312.838 741 245 c 1,21,-1
 1013.5 1018.5 l 1,22,-1
 1061.5 1166 l 1,23,24
 1106 1309.27 1106 1309.27 1105.5 1336.13 c 128,-1,25
 1105 1363 1105 1363 1097.5 1377.5 c 128,-1,26
 1090 1392 1090 1392 1078 1400.5 c 0,27,28
 1058.94 1414 1058.94 1414 1012.57 1414 c 128,-1,29
 966.2 1414 966.2 1414 923 1402 c 1,30,-1
 933 1530 l 1,31,-1
 1443 1530 l 1,32,-1
 1430 1414 l 1,33,34
 1351.12 1414 1351.12 1414 1327.56 1396.5 c 128,-1,35
 1304 1379 1304 1379 1292 1355.5 c 128,-1,36
 1280 1332 1280 1332 1267.5 1297 c 2,37,-1
 794 13 l 1,0,1
EndSplineSet
EndChar

StartChar: W
Encoding: 87 87 24
Width: 2214
Flags: HW
LayerCount: 2
Fore
SplineSet
941 1414 m 1,0,-1
 872 1404 l 1,1,-1
 884 1530 l 1,2,-1
 1496 1530 l 1,3,-1
 1477 1414 l 1,4,5
 1353.69 1414 1353.69 1414 1321.85 1405 c 128,-1,6
 1290 1396 1290 1396 1280.5 1383.5 c 128,-1,7
 1271 1371 1271 1371 1271 1351 c 128,-1,8
 1271 1331 1271 1331 1274.5 1317.5 c 128,-1,9
 1278 1304 1278 1304 1289.5 1265 c 0,10,11
 1579.07 327.618 1579.07 327.618 1598 262 c 1,12,13
 1884.14 1045.09 1884.14 1045.09 1911.07 1123.04 c 0,14,15
 1971 1296.53 1971 1296.53 1970.5 1330.26 c 128,-1,16
 1970 1364 1970 1364 1961 1378.5 c 128,-1,17
 1952 1393 1952 1393 1937.5 1401 c 0,18,19
 1913.94 1414 1913.94 1414 1866.77 1414 c 128,-1,20
 1819.6 1414 1819.6 1414 1774 1402 c 1,21,-1
 1785 1530 l 1,22,-1
 2311 1530 l 1,23,-1
 2297 1414 l 1,24,25
 2217.46 1414 2217.46 1414 2193.23 1396.5 c 0,26,27
 2154.5 1368.52 2154.5 1368.52 2135.75 1315.26 c 2,28,-1
 1659 13 l 1,29,30
 1551.32 6.27027 1551.32 6.27027 1504 -16 c 1,31,-1
 1494 -15 l 1,32,-1
 1147 1014 l 1,33,34
 848.029 120.76 848.029 120.76 834.015 76.3799 c 2,35,-1
 818 26 l 2,36,37
 815 18 815 18 814 13 c 1,38,39
 706.324 6.27027 706.324 6.27027 659 -16 c 1,40,-1
 649 -15 l 1,41,42
 259.79 1034.78 259.79 1034.78 204 1176 c 1,43,-1
 167.5 1278.5 l 1,44,45
 133.734 1369.57 133.734 1369.57 109.367 1391.78 c 128,-1,46
 85 1414 85 1414 55 1414 c 128,-1,47
 25 1414 25 1414 -9 1400 c 1,48,-1
 4 1530 l 1,49,-1
 577 1530 l 1,50,-1
 562 1414 l 1,51,52
 458.385 1414 458.385 1414 430.692 1406 c 0,53,54
 382 1391.93 382 1391.93 382 1349 c 0,55,56
 382 1320.36 382 1320.36 398.5 1272.18 c 2,57,-1
 745 276 l 1,58,-1
 1074 1240 l 1,59,60
 1017.57 1414 1017.57 1414 941 1414 c 1,0,-1
EndSplineSet
EndChar

StartChar: grave
Encoding: 96 96 25
Width: 1287
Flags: HW
LayerCount: 2
Fore
SplineSet
275 1590 m 1,0,-1
 397 1760 l 1,1,-1
 828 1416 l 1,2,-1
 755 1303 l 1,3,-1
 275 1590 l 1,0,-1
EndSplineSet
EndChar

StartChar: a
Encoding: 97 97 26
Width: 1195
Flags: HW
LayerCount: 2
Fore
SplineSet
1021 871 m 1,0,-1
 1005 340 l 1,1,2
 1005 232.909 1005 232.909 1069.5 186 c 0,3,4
 1114.88 153 1114.88 153 1185 153 c 1,5,6
 1181.1 102.336 1181.1 102.336 1144.05 61.1681 c 0,7,8
 1078.88 -11.2414 1078.88 -11.2414 1038 -22 c 1,9,10
 976 -22 976 -22 921.5 20 c 128,-1,11
 867 62 867 62 837 143 c 1,12,13
 722.951 34.9536 722.951 34.9536 557.5 -10.5 c 0,14,15
 512 -23 512 -23 450.5 -23 c 128,-1,16
 389 -23 389 -23 319.5 0.5 c 128,-1,17
 250 24 250 24 203 67 c 0,18,19
 108 153.915 108 153.915 108 304 c 0,20,21
 108 486.074 108 486.074 312 587 c 0,22,23
 502 681 502 681 812 681 c 2,24,-1
 823 681 l 1,25,26
 823 744 823 744 821 804 c 2,27,-1
 820 844 l 1,28,29
 814.579 965.068 814.579 965.068 733 1028 c 0,30,31
 668.185 1078 668.185 1078 573.093 1078 c 128,-1,32
 478 1078 478 1078 420 1027.5 c 128,-1,33
 362 977 362 977 362 882 c 0,34,35
 362 847 362 847 370 807 c 1,36,-1
 191 807 l 1,37,-1
 184 809 l 1,38,39
 181 825 181 825 177.5 843 c 0,40,41
 169.148 885.955 169.148 885.955 163.574 932.477 c 128,-1,42
 158 979 158 979 158 994.5 c 0,43,44
 158 1016 158 1016 166 1026 c 1,45,46
 425.25 1209 425.25 1209 673 1209 c 0,47,48
 915.331 1209 915.331 1209 992.5 1033 c 0,49,50
 1021 968 1021 968 1021 871 c 1,0,-1
812 301 m 1,51,52
 819.225 426.723 819.225 426.723 822 571 c 1,53,54
 811 575 811 575 755.5 575 c 128,-1,55
 700 575 700 575 615.5 557.5 c 128,-1,56
 531 540 531 540 468.5 507 c 0,57,58
 334 435.984 334 435.984 334 317 c 0,59,60
 334 233.538 334 233.538 388 178.5 c 0,61,62
 443.434 122 443.434 122 530 122 c 0,63,64
 638.276 122 638.276 122 752 219 c 0,65,66
 786 248 786 248 812 280 c 1,67,-1
 812 301 l 1,51,52
EndSplineSet
EndChar

StartChar: b
Encoding: 98 98 27
Width: 1362
Flags: HW
LayerCount: 2
Fore
SplineSet
896.5 38 m 128,-1,1
 789 -15 789 -15 628.7 -15 c 128,-1,2
 468.4 -15 468.4 -15 334 41 c 1,3,-1
 206 -23 l 1,4,-1
 196 -21 l 1,5,6
 208 195 208 195 208 321 c 2,7,-1
 208 547 l 1,8,-1
 202 1365 l 2,9,10
 202 1453.89 202 1453.89 194 1473.44 c 128,-1,11
 186 1493 186 1493 177.5 1503 c 128,-1,12
 169 1513 169 1513 153.5 1519.5 c 128,-1,13
 138 1526 138 1526 119 1528.5 c 0,14,15
 92.4 1532 92.4 1532 40 1532 c 2,16,-1
 15 1532 l 1,17,-1
 27 1646 l 1,18,-1
 429 1705 l 1,19,20
 410 1620.36 410 1620.36 410 1195 c 1,21,-1
 402 1063 l 1,22,23
 527.257 1162.56 527.257 1162.56 683.5 1198 c 0,24,25
 732 1209 732 1209 794.5 1209 c 128,-1,26
 857 1209 857 1209 941.5 1181 c 128,-1,27
 1026 1153 1026 1153 1094 1087 c 0,28,29
 1247 938.5 1247 938.5 1247 642 c 0,30,31
 1247 372.942 1247 372.942 1082 181.5 c 0,32,0
 1004 91 1004 91 896.5 38 c 128,-1,1
410 213 m 1,33,34
 454.186 147.82 454.186 147.82 598.5 120 c 0,35,36
 640 112 640 112 703.5 112 c 128,-1,37
 767 112 767 112 836.5 147 c 128,-1,38
 906 182 906 182 953.5 247 c 0,39,40
 1050 379.053 1050 379.053 1050 617 c 0,41,42
 1050 809.271 1050 809.271 949 925 c 0,43,44
 848.636 1040 848.636 1040 686 1040 c 0,45,46
 617 1040 617 1040 547 1012 c 0,47,48
 431.062 965.625 431.062 965.625 408 940 c 1,49,-1
 410 941 l 1,50,-1
 410 213 l 1,33,34
EndSplineSet
EndChar

StartChar: c
Encoding: 99 99 28
Width: 1191
Flags: HW
LayerCount: 2
Fore
SplineSet
718 162 m 0,0,1
 879.757 162 879.757 162 1047 253 c 1,2,-1
 1085 172 l 1,3,4
 1037.47 118.131 1037.47 118.131 955.734 74.0654 c 0,5,6
 786.823 -17 786.823 -17 662.411 -17 c 128,-1,7
 538 -17 538 -17 438.5 21.5 c 128,-1,8
 339 60 339 60 266.5 132 c 0,9,10
 113 284.441 113 284.441 113 539 c 0,11,12
 113 848.817 113 848.817 297.5 1035.5 c 0,13,14
 468.971 1209 468.971 1209 727 1209 c 0,15,16
 867.714 1209 867.714 1209 1009 1166 c 2,17,-1
 1035.5 1158 l 2,18,19
 1049 1154 1049 1154 1059 1152 c 1,20,21
 1067 1136 1067 1136 1067 1080 c 128,-1,22
 1067 1024 1067 1024 1064.5 992.5 c 128,-1,23
 1062 961 1062 961 1058.5 932 c 128,-1,24
 1055 903 1055 903 1051 879.5 c 2,25,-1
 1045 844 l 1,26,27
 1038.75 834 1038.75 834 983 834 c 256,28,29
 914.571 834 914.571 834 894 843 c 1,30,31
 894 961.783 894 961.783 864.5 1005.39 c 128,-1,32
 835 1049 835 1049 790.5 1069 c 128,-1,33
 746 1089 746 1089 673.5 1089 c 128,-1,34
 601 1089 601 1089 539 1058.5 c 128,-1,35
 477 1028 477 1028 430 967.5 c 0,36,37
 328 836.202 328 836.202 328 610 c 0,38,39
 328 286.714 328 286.714 545.5 193.5 c 0,40,41
 619 162 619 162 718 162 c 0,0,1
EndSplineSet
EndChar

StartChar: d
Encoding: 100 100 29
Width: 1362
Flags: HW
LayerCount: 2
Fore
SplineSet
543.5 1184.5 m 0,0,1
 620 1209 620 1209 720.318 1209 c 128,-1,2
 820.636 1209 820.636 1209 925 1181 c 1,3,-1
 925 1201 l 2,4,5
 925 1436.55 925 1436.55 917 1461.27 c 128,-1,6
 909 1486 909 1486 897.5 1497 c 128,-1,7
 886 1508 886 1508 867.5 1516 c 128,-1,8
 849 1524 849 1524 827 1527.5 c 0,9,10
 798.714 1532 798.714 1532 730 1532 c 2,11,-1
 711 1532 l 1,12,-1
 726 1646 l 1,13,-1
 1142 1704 l 1,14,15
 1142 1695 1142 1695 1140.5 1689 c 128,-1,16
 1139 1683 1139 1683 1136 1661.5 c 128,-1,17
 1133 1640 1133 1640 1130 1588 c 0,18,19
 1122 1449.33 1122 1449.33 1122 1214 c 2,20,-1
 1122 302 l 2,21,22
 1122 224 1122 224 1139.5 192 c 128,-1,23
 1157 160 1157 160 1189 160 c 0,24,25
 1230.71 160 1230.71 160 1285 179 c 1,26,-1
 1314 188 l 1,27,28
 1312 176 1312 176 1310.5 154.5 c 128,-1,29
 1309 133 1309 133 1307 110 c 128,-1,30
 1305 87 1305 87 1304 60 c 1,31,-1
 990 -18 l 1,32,33
 979.429 -12.7143 979.429 -12.7143 959.714 43.1429 c 128,-1,34
 940 99 940 99 933 125 c 1,35,36
 805.612 35.0791 805.612 35.0791 663 -2 c 0,37,38
 613 -15 613 -15 542 -15 c 128,-1,39
 471 -15 471 -15 387 21 c 128,-1,40
 303 57 303 57 241.5 127.5 c 0,41,42
 109 279.39 109 279.39 109 545 c 0,43,44
 109 719.211 109 719.211 189 875 c 0,45,46
 309.439 1109.54 309.439 1109.54 543.5 1184.5 c 0,0,1
616.5 168.5 m 0,47,48
 672 170 672 170 724 181 c 128,-1,49
 776 192 776 192 818.5 206 c 0,50,51
 907.228 235.228 907.228 235.228 927 255 c 1,52,-1
 925 254 l 1,53,-1
 925 981 l 1,54,55
 880.625 1046.79 880.625 1046.79 756.5 1074 c 0,56,57
 720 1082 720 1082 662 1082 c 128,-1,58
 604 1082 604 1082 536.5 1055.5 c 128,-1,59
 469 1029 469 1029 421 969 c 0,60,61
 321 844 321 844 321 577 c 0,62,63
 321 397.244 321 397.244 412 278.5 c 0,64,65
 498.738 165.317 498.738 165.317 616.5 168.5 c 0,47,48
EndSplineSet
EndChar

StartChar: e
Encoding: 101 101 30
Width: 1195
Flags: HW
LayerCount: 2
Fore
SplineSet
674 156 m 1,0,1
 871.591 169.472 871.591 169.472 1023 251 c 1,2,-1
 1067 167 l 1,3,4
 916.426 41.5215 916.426 41.5215 723 -3.5 c 0,5,6
 665 -17 665 -17 617 -17 c 0,7,8
 239.533 -17 239.533 -17 141.5 316 c 0,9,10
 110 423 110 423 110 565.5 c 128,-1,11
 110 708 110 708 156.5 828 c 128,-1,12
 203 948 203 948 279.5 1032.5 c 128,-1,13
 356 1117 356 1117 455 1163 c 128,-1,14
 554 1209 554 1209 660 1209 c 0,15,16
 1085 1209 1085 1209 1085 723 c 2,17,-1
 1085 713 l 2,18,19
 1085 586 1085 586 1055 586 c 2,20,-1
 319 586 l 1,21,22
 319 377 319 377 411.5 268 c 128,-1,23
 504 159 504 159 674 156 c 1,0,1
857 714 m 1,24,25
 858 735 858 735 858 746.5 c 2,26,-1
 858 779 l 2,27,28
 858 1013.77 858 1013.77 727.5 1068.5 c 0,29,30
 681 1088 681 1088 627.5 1088 c 128,-1,31
 574 1088 574 1088 537 1072 c 128,-1,32
 500 1056 500 1056 467.5 1028 c 128,-1,33
 435 1000 435 1000 408 962.5 c 128,-1,34
 381 925 381 925 361 880.5 c 0,35,36
 319 787.05 319 787.05 319 690 c 1,37,-1
 857 714 l 1,24,25
EndSplineSet
EndChar

StartChar: f
Encoding: 102 102 31
Width: 852
Flags: HW
LayerCount: 2
Fore
SplineSet
457 1037 m 1,0,-1
 458 246 l 2,1,2
 458 155.154 458 155.154 476 135.077 c 128,-1,3
 494 115 494 115 516.5 110.5 c 128,-1,4
 539 106 539 106 560 106 c 128,-1,5
 581 106 581 106 603 106.5 c 128,-1,6
 625 107 625 107 653.5 108 c 0,7,8
 720.927 110.366 720.927 110.366 766 116 c 1,9,-1
 753 0 l 1,10,-1
 69 0 l 1,11,-1
 82 106 l 1,12,13
 145 106 145 106 180 113 c 128,-1,14
 215 120 215 120 232.5 144 c 128,-1,15
 250 168 250 168 254 213.5 c 128,-1,16
 258 259 258 259 258 335 c 2,17,-1
 256 1037 l 1,18,-1
 80 1037 l 1,19,-1
 91 1145 l 1,20,21
 135.735 1148.44 135.735 1148.44 190.867 1165.22 c 128,-1,22
 246 1182 246 1182 258 1188 c 1,23,24
 254 1216 254 1216 254 1257 c 128,-1,25
 254 1298 254 1298 267.5 1354.5 c 128,-1,26
 281 1411 281 1411 307.5 1464 c 128,-1,27
 334 1517 334 1517 372.5 1564.5 c 128,-1,28
 411 1612 411 1612 462 1647.5 c 0,29,30
 571.901 1724 571.901 1724 713 1724 c 0,31,32
 894.048 1724 894.048 1724 958.5 1616 c 0,33,34
 987 1568.24 987 1568.24 987 1517.12 c 0,35,36
 987 1455.33 987 1455.33 968 1373 c 1,37,-1
 965 1355 l 1,38,-1
 806 1355 l 1,39,-1
 806 1441 l 2,40,41
 806 1504.76 806 1504.76 780.5 1528.88 c 0,42,43
 733.857 1573 733.857 1573 638 1573 c 0,44,45
 505.216 1573 505.216 1573 461.5 1444.5 c 0,46,47
 445 1396 445 1396 445 1326.92 c 128,-1,48
 445 1257.83 445 1257.83 456 1190 c 1,49,-1
 787 1190 l 1,50,-1
 775 1037 l 1,51,-1
 457 1037 l 1,0,-1
EndSplineSet
EndChar

StartChar: g
Encoding: 103 103 32
Width: 1195
Flags: HW
LayerCount: 2
Fore
SplineSet
468 386 m 1,0,1
 405 335.6 405 335.6 405 300.3 c 128,-1,2
 405 265 405 265 418.5 247.5 c 128,-1,3
 432 230 432 230 460.5 219 c 0,4,5
 496.012 205.294 496.012 205.294 638 189 c 1,6,-1
 734 177 l 2,7,8
 933.619 152.328 933.619 152.328 1020.5 97.5 c 0,9,10
 1129 29.0291 1129 29.0291 1129 -106 c 0,11,12
 1129 -290.396 1129 -290.396 981.5 -405 c 0,13,14
 836.065 -518 836.065 -518 600 -518 c 0,15,16
 247.096 -518 247.096 -518 136.5 -356 c 0,17,18
 101 -304 101 -304 101 -247 c 128,-1,19
 101 -190 101 -190 117.5 -145.5 c 128,-1,20
 134 -101 134 -101 164 -63 c 0,21,22
 226.541 16.2184 226.541 16.2184 330 58 c 1,23,24
 212 110.646 212 110.646 212 197 c 0,25,26
 212 285.646 212 285.646 301 376.5 c 0,27,28
 325 401 325 401 348 415 c 1,29,30
 164.272 482.547 164.272 482.547 123.5 674 c 0,31,32
 112 728 112 728 112 795 c 128,-1,33
 112 862 112 862 151.5 939.5 c 128,-1,34
 191 1017 191 1017 262.5 1077 c 0,35,36
 419.8 1209 419.8 1209 657 1209 c 0,37,38
 767.261 1209 767.261 1209 861 1165 c 1,39,-1
 1175 1210 l 1,40,-1
 1175 1040 l 1,41,-1
 1011 1037 l 1,42,43
 1072 946.552 1072 946.552 1072 830.776 c 128,-1,44
 1072 715 1072 715 1026.5 635 c 128,-1,45
 981 555 981 555 908.5 499.5 c 0,46,47
 757.622 384 757.622 384 566 384 c 0,48,49
 532.5 384 532.5 384 507.75 384 c 128,-1,50
 483 384 483 384 468 386 c 1,0,1
608 504 m 0,51,52
 669 504 669 504 716.5 521.5 c 128,-1,53
 764 539 764 539 799 573.5 c 0,54,55
 873 646.443 873 646.443 873 775 c 256,56,57
 873 910.375 873 910.375 800 992.5 c 0,58,59
 723.111 1079 723.111 1079 590 1079 c 0,60,61
 469.333 1079 469.333 1079 403.5 1029 c 0,62,63
 315 961.785 315 961.785 315 797 c 0,64,65
 315 680.1 315 680.1 399 594 c 0,66,67
 486.805 504 486.805 504 608 504 c 0,51,52
439 27 m 1,68,69
 312 -47.0833 312 -47.0833 312 -191 c 0,70,71
 312 -284.429 312 -284.429 402 -338 c 0,72,73
 487.68 -389 487.68 -389 602.34 -389 c 128,-1,74
 717 -389 717 -389 781 -374 c 128,-1,75
 845 -359 845 -359 886 -332.5 c 0,76,77
 965 -281.439 965 -281.439 965 -188 c 0,78,79
 965 -89.5238 965 -89.5238 862.5 -49.5 c 0,80,81
 790.299 -21.3072 790.299 -21.3072 541 13 c 2,82,-1
 439 27 l 1,68,69
EndSplineSet
EndChar

StartChar: h
Encoding: 104 104 33
Width: 1365
Flags: HW
LayerCount: 2
Fore
SplineSet
415 1029 m 1,0,1
 627.727 1209 627.727 1209 841 1209 c 0,2,3
 1062.73 1209 1062.73 1209 1135.5 1010 c 0,4,5
 1160 943 1160 943 1160 858 c 128,-1,6
 1160 773 1160 773 1157 693 c 128,-1,7
 1154 613 1154 613 1150 532 c 0,8,9
 1133.06 188.976 1133.06 188.976 1141.03 159.488 c 128,-1,10
 1149 130 1149 130 1157.5 120.5 c 0,11,12
 1181.33 93.8661 1181.33 93.8661 1297 117 c 1,13,-1
 1285 0 l 1,14,-1
 772 0 l 1,15,-1
 786 106 l 1,16,17
 903.154 106 903.154 106 929 190 c 1,18,19
 953.565 279.047 953.565 279.047 956.282 414.023 c 128,-1,20
 959 549 959 549 959 617.5 c 128,-1,21
 959 686 959 686 957.5 727.5 c 128,-1,22
 956 769 956 769 950.5 810.5 c 128,-1,23
 945 852 945 852 932.5 891.5 c 128,-1,24
 920 931 920 931 898.5 961 c 0,25,26
 850.483 1028 850.483 1028 762 1028 c 0,27,28
 618.674 1028 618.674 1028 477.5 942.5 c 2,29,-1
 415 905 l 1,30,-1
 415 208 l 2,31,32
 415 147 415 147 430 130.5 c 0,33,34
 452.273 106 452.273 106 479.136 106 c 0,35,36
 552.571 106 552.571 106 595 117 c 1,37,-1
 579 0 l 1,38,-1
 58 0 l 1,39,-1
 74 106 l 1,40,41
 167.186 106 167.186 106 194 162.5 c 0,42,43
 215 206.75 215 206.75 215 357 c 2,44,-1
 215 1365 l 2,45,46
 215 1468.21 215 1468.21 188 1501 c 1,47,48
 157 1532 157 1532 49 1532 c 2,49,-1
 24 1532 l 1,50,-1
 36 1646 l 1,51,-1
 437 1705 l 1,52,53
 415 1609 415 1609 415 1195 c 2,54,-1
 415 1029 l 1,0,1
EndSplineSet
EndChar

StartChar: i
Encoding: 105 105 34
Width: 683
Flags: HW
LayerCount: 2
Fore
SplineSet
433 1406.5 m 0,0,1
 405 1395 405 1395 372 1395 c 128,-1,2
 339 1395 339 1395 310 1406.5 c 128,-1,3
 281 1418 281 1418 259.5 1438 c 0,4,5
 214 1480.33 214 1480.33 214 1529.66 c 128,-1,6
 214 1579 214 1579 226 1608 c 128,-1,7
 238 1637 238 1637 259.5 1658 c 0,8,9
 305.571 1703 305.571 1703 373 1703 c 0,10,11
 437.571 1703 437.571 1703 481.5 1658 c 0,12,13
 525 1613.44 525 1613.44 525 1545 c 0,14,15
 525 1444.29 525 1444.29 433 1406.5 c 0,0,1
509 1210 m 1,16,17
 464 1079.5 464 1079.5 464 698 c 1,18,-1
 471 232 l 2,19,20
 471 171 471 171 490 138.5 c 128,-1,21
 509 106 509 106 566 106 c 0,22,23
 612 106 612 106 648 118 c 1,24,-1
 634 0 l 1,25,-1
 97 0 l 1,26,-1
 115 106 l 1,27,28
 213.038 106 213.038 106 248 160.5 c 0,29,30
 277 205.706 277 205.706 277 313 c 2,31,-1
 277 836 l 2,32,33
 277 961.196 277 961.196 233 998.5 c 0,34,35
 198.205 1028 198.205 1028 79 1028 c 1,36,-1
 95 1154 l 1,37,-1
 509 1210 l 1,16,17
EndSplineSet
EndChar

StartChar: j
Encoding: 106 106 35
Width: 683
Flags: HW
LayerCount: 2
Fore
SplineSet
446 1406.5 m 0,0,1
 418 1395 418 1395 385 1395 c 128,-1,2
 352 1395 352 1395 323 1406.5 c 128,-1,3
 294 1418 294 1418 272.5 1438 c 0,4,5
 227 1480.33 227 1480.33 227 1529.66 c 128,-1,6
 227 1579 227 1579 239 1608 c 128,-1,7
 251 1637 251 1637 272.5 1658 c 0,8,9
 318.571 1703 318.571 1703 386 1703 c 0,10,11
 450.571 1703 450.571 1703 494.5 1658 c 0,12,13
 538 1613.44 538 1613.44 538 1545 c 0,14,15
 538 1444.29 538 1444.29 446 1406.5 c 0,0,1
481 698 m 1,16,-1
 492 103 l 1,17,18
 493.789 -145.65 493.789 -145.65 360 -317.5 c 0,19,20
 262.057 -443.306 262.057 -443.306 101 -520 c 1,21,-1
 30 -459 l 1,22,23
 247.901 -280.479 247.901 -280.479 279.5 40.5 c 0,24,25
 289 137 289 137 289 198.5 c 2,26,-1
 289 485 l 1,27,-1
 288 842 l 2,28,29
 288 946.36 288 946.36 239 988.5 c 0,30,31
 193.07 1028 193.07 1028 80 1028 c 1,32,-1
 96 1154 l 1,33,-1
 519 1210 l 1,34,35
 481 1113.27 481 1113.27 481 698 c 1,16,-1
EndSplineSet
EndChar

StartChar: k
Encoding: 107 107 36
Width: 1193
Flags: HW
LayerCount: 2
Fore
SplineSet
970 236 m 1,0,1
 1093.16 106 1093.16 106 1157.83 106 c 0,2,3
 1194.67 106 1194.67 106 1225 120 c 1,4,-1
 1215 0 l 1,5,-1
 1008 0 l 2,6,7
 874.694 0 874.694 0 675.5 241 c 1,8,9
 576.131 366.318 576.131 366.318 534.566 423.159 c 2,10,-1
 465.5 517.5 l 2,11,12
 438 555 438 555 415 581 c 1,13,-1
 415 236 l 2,14,15
 415 150.529 415 150.529 426.5 132.265 c 128,-1,16
 438 114 438 114 451.5 110 c 128,-1,17
 465 106 465 106 482.5 106 c 0,18,19
 530.667 106 530.667 106 561 120 c 1,20,-1
 546 0 l 1,21,-1
 57 0 l 1,22,-1
 73 106 l 1,23,24
 161.714 106 161.714 106 190.5 151.5 c 0,25,26
 217 193.387 217 193.387 217 313 c 2,27,-1
 217 1365 l 2,28,29
 217 1468.21 217 1468.21 193 1496.11 c 128,-1,30
 169 1524 169 1524 126 1528 c 128,-1,31
 83 1532 83 1532 26 1532 c 1,32,-1
 38 1646 l 1,33,-1
 439 1705 l 1,34,35
 415 1600.27 415 1600.27 415 1195 c 2,36,-1
 415 668 l 1,37,38
 640.489 854.688 640.489 854.688 697.245 912.344 c 0,39,40
 792 1008.6 792 1008.6 792 1034 c 0,41,42
 792 1060.67 792 1060.67 774 1067.33 c 0,43,44
 742.5 1079 742.5 1079 662 1079 c 1,45,-1
 674 1190 l 1,46,-1
 1197 1190 l 1,47,-1
 1187 1079 l 1,48,-1
 1157 1079 l 2,49,50
 1078.73 1079 1078.73 1079 971 978 c 1,51,52
 829.745 862.813 829.745 862.813 761.372 802.407 c 0,53,54
 625.263 680.631 625.263 680.631 591 648 c 1,55,56
 592 646 592 646 608 627 c 0,57,58
 812.59 396.351 812.59 396.351 868.795 337.675 c 1,59,-1
 970 236 l 1,0,1
EndSplineSet
EndChar

StartChar: l
Encoding: 108 108 37
Width: 683
Flags: HW
LayerCount: 2
Fore
SplineSet
475 1705 m 1,0,1
 454 1596.5 454 1596.5 454 1267 c 2,2,-1
 454 1195 l 1,3,-1
 456 238 l 2,4,5
 456 156.278 456 156.278 468.5 136.139 c 0,6,7
 487.207 106 487.207 106 535 106 c 0,8,9
 602.5 106 602.5 106 652 117 c 1,10,-1
 636 0 l 1,11,-1
 57 0 l 1,12,-1
 74 106 l 1,13,14
 178.062 106 178.062 106 207.531 129 c 128,-1,15
 237 152 237 152 245.5 176.5 c 128,-1,16
 254 201 254 201 254 237 c 2,17,-1
 254 1365 l 2,18,19
 254 1450 254 1450 243.5 1471 c 128,-1,20
 233 1492 233 1492 224.5 1502.5 c 128,-1,21
 216 1513 216 1513 198.5 1519.5 c 128,-1,22
 181 1526 181 1526 158 1528.5 c 0,23,24
 125.8 1532 125.8 1532 52 1532 c 1,25,-1
 64 1646 l 1,26,-1
 475 1705 l 1,0,1
EndSplineSet
EndChar

StartChar: m
Encoding: 109 109 38
Width: 2049
Flags: HW
LayerCount: 2
Fore
SplineSet
749 1030 m 0,0,1
 639.351 1030 639.351 1030 473 915 c 1,2,-1
 473 241 l 2,3,4
 473 152.273 473 152.273 489 132.636 c 128,-1,5
 505 113 505 113 523.5 109.5 c 128,-1,6
 542 106 542 106 563.5 106 c 0,7,8
 600 106 600 106 655 117 c 1,9,-1
 640 0 l 1,10,-1
 115 0 l 1,11,-1
 131 106 l 1,12,13
 212.088 106 212.088 106 244 159.5 c 0,14,15
 277 214.824 277 214.824 277 346 c 2,16,-1
 277 841 l 2,17,18
 277 944.333 277 944.333 246 996 c 1,19,20
 214.889 1036 214.889 1036 111 1036 c 1,21,-1
 126 1154 l 1,22,-1
 492 1208 l 1,23,-1
 484 1153 l 1,24,25
 476 1086.33 476 1086.33 476 1038 c 1,26,-1
 531 1078.5 l 2,27,28
 624.619 1146.91 624.619 1146.91 712.81 1177.96 c 128,-1,29
 801 1209 801 1209 863 1209 c 0,30,31
 1079.27 1209 1079.27 1209 1154 1032 c 1,32,33
 1279.93 1140.76 1279.93 1140.76 1415 1188.5 c 0,34,35
 1473 1209 1473 1209 1537.5 1209 c 128,-1,36
 1602 1209 1602 1209 1661.5 1187 c 128,-1,37
 1721 1165 1721 1165 1764 1121 c 0,38,39
 1856 1026.86 1856 1026.86 1856 853 c 0,40,41
 1856 743 1856 743 1849.5 635 c 0,42,43
 1830.65 321.8 1830.65 321.8 1837.82 243.9 c 128,-1,44
 1845 166 1845 166 1852.5 144.5 c 0,45,46
 1865.93 106 1865.93 106 1900.97 106 c 0,47,48
 1950 106 1950 106 2005 117 c 1,49,-1
 1991 0 l 1,50,-1
 1496 0 l 1,51,-1
 1513 106 l 1,52,53
 1582.39 106 1582.39 106 1609.5 139 c 0,54,55
 1638.38 174.163 1638.38 174.163 1645.19 335.081 c 128,-1,56
 1652 496 1652 496 1652 648 c 128,-1,57
 1652 800 1652 800 1643.5 863 c 128,-1,58
 1635 926 1635 926 1611 963 c 0,59,60
 1568.19 1029 1568.19 1029 1430 1029 c 0,61,62
 1327.67 1029 1327.67 1029 1181 929 c 1,63,64
 1186 884 1186 884 1186 835.5 c 0,65,66
 1186 758 1186 758 1178.5 642 c 0,67,68
 1151.18 219.374 1151.18 219.374 1186 144.5 c 0,69,70
 1203.91 106 1203.91 106 1253.95 106 c 128,-1,71
 1304 106 1304 106 1354 117 c 1,72,-1
 1338 0 l 1,73,-1
 809 0 l 1,74,-1
 826 106 l 1,75,76
 916.462 106 916.462 106 944.5 133 c 0,77,78
 974.062 161.467 974.062 161.467 978.5 339 c 0,79,80
 981 439 981 439 981 616.5 c 128,-1,81
 981 794 981 794 972.5 859 c 128,-1,82
 964 924 964 924 939.5 962 c 0,83,84
 895.658 1030 895.658 1030 749 1030 c 0,0,1
EndSplineSet
EndChar

StartChar: n
Encoding: 110 110 39
Width: 1365
Flags: HW
LayerCount: 2
Fore
SplineSet
105 106 m 1,0,1
 188.333 106 188.333 106 216 147.5 c 0,2,3
 248 195.5 248 195.5 248 346 c 2,4,-1
 248 829 l 2,5,6
 248 948.643 248 948.643 219 988 c 0,7,8
 190.111 1028 190.111 1028 85 1028 c 1,9,-1
 101 1154 l 1,10,-1
 459 1208 l 1,11,12
 448 1127.33 448 1127.33 448 1036 c 1,13,14
 575.873 1140.62 575.873 1140.62 716 1188.5 c 0,15,16
 776 1209 776 1209 840 1209 c 128,-1,17
 904 1209 904 1209 964.5 1190 c 128,-1,18
 1025 1171 1025 1171 1070.5 1128 c 0,19,20
 1169 1034.91 1169 1034.91 1169 851 c 0,21,22
 1169 739.25 1169 739.25 1162.5 631.625 c 0,23,24
 1143.11 310.585 1143.11 310.585 1150.56 240.793 c 128,-1,25
 1158 171 1158 171 1168 148.5 c 0,26,27
 1186.89 106 1186.89 106 1236 106 c 0,28,29
 1283 106 1283 106 1321 118 c 1,30,-1
 1306 0 l 1,31,-1
 794 0 l 1,32,-1
 812 106 l 1,33,34
 894.8 106 894.8 106 926 142 c 0,35,36
 938.881 156.699 938.881 156.699 945.44 183.349 c 128,-1,37
 952 210 952 210 956.5 251 c 128,-1,38
 961 292 961 292 964 350.5 c 0,39,40
 970 467.5 970 467.5 970 617.25 c 128,-1,41
 970 767 970 767 964.5 835.5 c 128,-1,42
 959 904 959 904 938 946.5 c 0,43,44
 897.729 1028 897.729 1028 762 1028 c 0,45,46
 636.308 1028 636.308 1028 496 942.5 c 2,47,-1
 448 913 l 1,48,-1
 448 241 l 2,49,50
 448 150.8 448 150.8 462 131.9 c 128,-1,51
 476 113 476 113 494 109.5 c 128,-1,52
 512 106 512 106 533.5 106 c 0,53,54
 585 106 585 106 629 117 c 1,55,-1
 612 0 l 1,56,-1
 89 0 l 1,57,-1
 105 106 l 1,0,1
EndSplineSet
EndChar

StartChar: o
Encoding: 111 111 40
Width: 1365
Flags: HW
LayerCount: 2
Fore
SplineSet
115 604 m 0,0,1
 115 739 115 739 165 852.5 c 128,-1,2
 215 966 215 966 299 1045.5 c 0,3,4
 471.755 1209 471.755 1209 724 1209 c 0,5,6
 968.184 1209 968.184 1209 1111 1047 c 0,7,8
 1248 891.597 1248 891.597 1248 643 c 0,9,10
 1248 359.757 1248 359.757 1069.5 170 c 0,11,12
 895.475 -15 895.475 -15 639 -15 c 0,13,14
 386.759 -15 386.759 -15 245.5 164 c 0,15,16
 115 329.366 115 329.366 115 604 c 0,0,1
684 112 m 0,17,18
 760 112 760 112 818.5 139 c 128,-1,19
 877 166 877 166 920.5 221.5 c 0,20,21
 1014 340.793 1014 340.793 1014 566 c 0,22,23
 1014 805.652 1014 805.652 921.5 947 c 0,24,25
 829.228 1088 829.228 1088 669 1088 c 0,26,27
 528.393 1088 528.393 1088 440 978 c 0,28,29
 343 857.289 343 857.289 343 631 c 0,30,31
 343 395.809 343 395.809 433.5 256.5 c 0,32,33
 527.372 112 527.372 112 684 112 c 0,17,18
EndSplineSet
EndChar

StartChar: p
Encoding: 112 112 41
Width: 1365
Flags: HW
LayerCount: 2
Fore
SplineSet
447 -57 m 1,0,-1
 449 -254 l 2,1,2
 449 -341.75 449 -341.75 459 -359.875 c 128,-1,3
 469 -378 469 -378 484.5 -382.5 c 128,-1,4
 500 -387 500 -387 536 -387 c 128,-1,5
 572 -387 572 -387 606.5 -384.5 c 0,6,7
 693.974 -378.161 693.974 -378.161 704 -371 c 1,8,-1
 686 -508 l 1,9,-1
 64 -508 l 1,10,-1
 80 -397 l 1,11,12
 172.545 -397 172.545 -397 199.273 -369 c 0,13,14
 247 -319 247 -319 247 -178 c 2,15,-1
 247 848 l 2,16,17
 247 969.293 247 969.293 204.5 1003.5 c 0,18,19
 176.545 1026 176.545 1026 88 1026 c 1,20,-1
 104 1154 l 1,21,-1
 454 1210 l 1,22,23
 452 1189 452 1189 450 1166 c 128,-1,24
 448 1143 448 1143 446.5 1115.5 c 128,-1,25
 445 1088 445 1088 443 1058 c 1,26,27
 568.191 1160.72 568.191 1160.72 726.5 1197.5 c 0,28,29
 776 1209 776 1209 823 1209 c 128,-1,30
 870 1209 870 1209 924 1197 c 128,-1,31
 978 1185 978 1185 1028.5 1157.5 c 128,-1,32
 1079 1130 1079 1130 1123 1086.5 c 128,-1,33
 1167 1043 1167 1043 1200 980 c 0,34,35
 1271 844.455 1271 844.455 1271 642 c 0,36,37
 1271 370.291 1271 370.291 1113.5 181.5 c 0,38,39
 949.569 -15 949.569 -15 694 -15 c 0,40,41
 548.333 -15 548.333 -15 448 13 c 1,42,43
 447 -4 447 -4 447 -21.5 c 2,44,-1
 447 -57 l 1,0,-1
449 213 m 1,45,46
 489.947 147.961 489.947 147.961 631.5 120 c 0,47,48
 672 112 672 112 736.5 112 c 128,-1,49
 801 112 801 112 867.5 147 c 128,-1,50
 934 182 934 182 977.5 247 c 0,51,52
 1063 374.759 1063 374.759 1063 617 c 0,53,54
 1063 917.879 1063 917.879 881 1007.5 c 0,55,56
 815 1040 815 1040 747 1040 c 128,-1,57
 679 1040 679 1040 635 1028 c 128,-1,58
 591 1016 591 1016 552.5 1000 c 0,59,60
 470.228 965.809 470.228 965.809 447 940 c 1,61,-1
 449 941 l 1,62,-1
 449 213 l 1,45,46
EndSplineSet
EndChar

StartChar: q
Encoding: 113 113 42
Width: 1365
Flags: HW
LayerCount: 2
Fore
SplineSet
949 134 m 1,0,1
 787.123 -15 787.123 -15 587 -15 c 0,2,3
 395.265 -15 395.265 -15 271 115 c 0,4,5
 126 266.692 126 266.692 126 552 c 0,6,7
 126 814.574 126 814.574 299 1010 c 0,8,9
 475.164 1209 475.164 1209 723 1209 c 0,10,11
 859.214 1209 859.214 1209 979 1170 c 1,12,-1
 1154 1211 l 1,13,14
 1141 999.75 1141 999.75 1141 718 c 2,15,-1
 1141 -249 l 2,16,17
 1141 -347 1141 -347 1152.5 -370 c 128,-1,18
 1164 -393 1164 -393 1180 -399 c 128,-1,19
 1196 -405 1196 -405 1217.5 -405 c 0,20,21
 1270.6 -405 1270.6 -405 1312 -396 c 1,22,-1
 1299 -509 l 1,23,-1
 702 -509 l 1,24,-1
 713 -397 l 1,25,26
 835.667 -397 835.667 -397 874.333 -373 c 128,-1,27
 913 -349 913 -349 928 -315 c 128,-1,28
 943 -281 943 -281 943 -225 c 2,29,-1
 943 -43 l 1,30,-1
 949 134 l 1,0,1
706 1082 m 0,31,32
 334 1082 334 1082 334 577 c 0,33,34
 334 370.684 334 370.684 438 263.5 c 0,35,36
 532.604 166 532.604 166 707 166 c 0,37,38
 806 166 806 166 911 229 c 0,39,40
 936 244 936 244 945 254 c 1,41,-1
 943 253 l 1,42,-1
 943 981 l 1,43,44
 898.837 1046.48 898.837 1046.48 775 1074 c 0,45,46
 739 1082 739 1082 706 1082 c 0,31,32
EndSplineSet
EndChar

StartChar: r
Encoding: 114 114 43
Width: 1024
Flags: HW
LayerCount: 2
Fore
SplineSet
501.5 110.5 m 128,-1,1
 526 106 526 106 604 106 c 128,-1,2
 682 106 682 106 726 118 c 1,3,-1
 719 0 l 1,4,-1
 75 0 l 1,5,-1
 89 106 l 1,6,7
 176.625 106 176.625 106 201.812 137 c 0,8,9
 247 192.615 247 192.615 247 335 c 2,10,-1
 247 817 l 2,11,12
 247 952 247 952 219 984 c 0,13,14
 188.122 1019.63 188.122 1019.63 83 1026 c 1,15,-1
 97 1154 l 1,16,-1
 456 1208 l 1,17,18
 446 1134.67 446 1134.67 446 1041 c 1,19,20
 550.752 1141.39 550.752 1141.39 692.5 1191.5 c 0,21,22
 742 1209 742 1209 787 1209 c 0,23,24
 979 1209 979 1209 979 1038 c 0,25,26
 979 937 979 937 950 821 c 0,27,28
 948 813 948 813 947 810.5 c 128,-1,29
 946 808 946 808 946 807 c 1,30,-1
 779 807 l 1,31,-1
 785 854 l 1,32,-1
 789 893.5 l 2,33,34
 791 913 791 913 791 934 c 128,-1,35
 791 955 791 955 787.5 976 c 128,-1,36
 784 997 784 997 774.5 1011 c 0,37,38
 756.179 1038 756.179 1038 713.089 1038 c 128,-1,39
 670 1038 670 1038 631.5 1025 c 128,-1,40
 593 1012 593 1012 557 993.5 c 0,41,42
 483.971 955.971 483.971 955.971 444 916 c 1,43,-1
 446 917 l 1,44,-1
 447 246 l 2,45,46
 447 151.25 447 151.25 462 133.125 c 128,-1,0
 477 115 477 115 501.5 110.5 c 128,-1,1
EndSplineSet
EndChar

StartChar: s
Encoding: 115 115 44
Width: 1031
Flags: HW
LayerCount: 2
Fore
SplineSet
880 1201 m 1,0,1
 883 1183 883 1183 883 1136 c 128,-1,2
 883 1089 883 1089 872.5 1020 c 2,3,-1
 851 879 l 1,4,-1
 727 879 l 1,5,6
 724.969 996.805 724.969 996.805 674 1044 c 0,7,8
 622.16 1092 622.16 1092 507 1092 c 0,9,10
 372.557 1092 372.557 1092 332.5 1001.5 c 0,11,12
 319 971 319 971 319 930.5 c 128,-1,13
 319 890 319 890 338.5 859 c 128,-1,14
 358 828 358 828 390 802 c 0,15,16
 441.94 759.799 441.94 759.799 515.47 727.899 c 2,17,-1
 634 675 l 1,18,19
 935.051 534.51 935.051 534.51 939 341 c 1,20,21
 940.901 177.488 940.901 177.488 812.5 77 c 0,22,23
 694.944 -15 694.944 -15 528 -15 c 0,24,25
 448 -15 448 -15 357 3.5 c 0,26,27
 211.892 33 211.892 33 189.946 33 c 2,28,-1
 152.5 33 l 2,29,30
 137 33 137 33 126 31 c 1,31,32
 130.132 221.085 130.132 221.085 145 343 c 1,33,-1
 275 343 l 1,34,35
 280 220 280 220 341.5 163 c 128,-1,36
 403 106 403 106 537 106 c 0,37,38
 689.161 106 689.161 106 728 192 c 0,39,40
 742 223 742 223 742 273.5 c 128,-1,41
 742 324 742 324 715.5 361 c 128,-1,42
 689 398 689 398 649.5 424 c 128,-1,43
 610 450 610 450 563.5 469 c 128,-1,44
 517 488 517 488 466.5 511.5 c 128,-1,45
 416 535 416 535 355.5 567 c 128,-1,46
 295 599 295 599 245.5 642.5 c 0,47,48
 133.773 740.684 133.773 740.684 132 879 c 0,49,50
 130.117 1033.4 130.117 1033.4 264.5 1126 c 0,51,52
 384.951 1209 384.951 1209 549 1209 c 0,53,54
 595.444 1209 595.444 1209 645.222 1201 c 0,55,56
 738.556 1186 738.556 1186 777.778 1186 c 128,-1,57
 817 1186 817 1186 880 1201 c 1,0,1
EndSplineSet
EndChar

StartChar: t
Encoding: 116 116 45
Width: 852
Flags: HW
LayerCount: 2
Fore
SplineSet
767 213 m 1,0,-1
 811 128 l 1,1,2
 712.283 36.3341 712.283 36.3341 558.5 -2.5 c 0,3,4
 509 -15 509 -15 455 -15 c 128,-1,5
 401 -15 401 -15 355.5 -3 c 128,-1,6
 310 9 310 9 280 38 c 0,7,8
 221.869 94.1935 221.869 94.1935 216 237 c 1,9,-1
 216 1037 l 1,10,-1
 42 1037 l 1,11,-1
 50 1139 l 1,12,13
 190.449 1163.67 190.449 1163.67 244 1244 c 0,14,15
 286.561 1307.84 286.561 1307.84 317 1497 c 1,16,-1
 426 1497 l 1,17,-1
 426 1190 l 1,18,-1
 795 1190 l 1,19,-1
 795 1037 l 1,20,-1
 418 1037 l 1,21,-1
 418 353 l 2,22,23
 418 227.838 418 227.838 453.5 188.5 c 0,24,25
 483.732 155 483.732 155 578.966 155 c 128,-1,26
 674.2 155 674.2 155 767 213 c 1,0,-1
EndSplineSet
EndChar

StartChar: u
Encoding: 117 117 46
Width: 1365
Flags: HW
LayerCount: 2
Fore
SplineSet
1288 182 m 1,0,-1
 1296 183 l 1,1,-1
 1301 183 l 1,2,-1
 1298 59 l 1,3,-1
 1004 -17 l 1,4,5
 960.693 49.6262 960.693 49.6262 947 140 c 1,6,7
 839.261 50.2174 839.261 50.2174 663.5 0 c 0,8,9
 604 -17 604 -17 540.5 -17 c 128,-1,10
 477 -17 477 -17 414.5 4 c 128,-1,11
 352 25 352 25 306 68 c 0,12,13
 209 158.674 209 158.674 209 334 c 1,14,-1
 217 899 l 1,15,16
 217 998.938 217 998.938 186 1028 c 0,17,18
 163.37 1049.22 163.37 1049.22 91 1056 c 1,19,-1
 106 1154 l 1,20,-1
 450 1210 l 1,21,-1
 430 1024 l 2,22,23
 409 831.5 409 831.5 409 440 c 0,24,25
 409 280.383 409 280.383 453.5 216 c 0,26,27
 498.426 151 498.426 151 610 151 c 0,28,29
 711.343 151 711.343 151 784.671 180.5 c 0,30,31
 903.311 228.228 903.311 228.228 934 266 c 1,32,-1
 932 265 l 1,33,-1
 932 889 l 2,34,35
 932 993.75 932 993.75 891 1024.5 c 0,36,37
 858.557 1048.83 858.557 1048.83 748 1051 c 1,38,-1
 763 1154 l 1,39,-1
 1150 1210 l 1,40,41
 1147 1158 1147 1158 1144.5 1120 c 2,42,-1
 1140 1053 l 2,43,44
 1138 1020 1138 1020 1136 993.5 c 128,-1,45
 1134 967 1134 967 1133 938 c 0,46,47
 1131 880 1131 880 1131 781 c 2,48,-1
 1131 305 l 2,49,50
 1131 209.429 1131 209.429 1147.5 188.214 c 128,-1,51
 1164 167 1164 167 1178.5 165 c 128,-1,52
 1193 163 1193 163 1210 163 c 2,53,-1
 1219 163 l 2,54,55
 1250 163 1250 163 1288 182 c 1,0,-1
EndSplineSet
EndChar

StartChar: v
Encoding: 118 118 47
Width: 1196
Flags: HW
LayerCount: 2
Fore
SplineSet
1168 1079 m 1,0,1
 1147 1082 1147 1082 1136 1082 c 128,-1,2
 1125 1082 1125 1082 1112 1068.5 c 128,-1,3
 1099 1055 1099 1055 1086 1031 c 128,-1,4
 1073 1007 1073 1007 1059.5 974 c 2,5,-1
 1030 902 l 2,6,7
 1025 889 1025 889 1005 844 c 2,8,-1
 633 11 l 1,9,-1
 641 8 l 1,10,-1
 564 -17 l 1,11,-1
 556 -16 l 1,12,-1
 135 929 l 2,13,14
 116 973 116 973 103 1000.5 c 128,-1,15
 90 1028 90 1028 64 1055.5 c 128,-1,16
 38 1083 38 1083 6 1083 c 2,17,-1
 -2.5 1083 l 2,18,19
 -9 1083 -9 1083 -15 1082 c 1,20,-1
 -1 1190 l 1,21,-1
 503 1190 l 1,22,-1
 488 1084 l 1,23,24
 471.5 1081 471.5 1081 446.75 1081 c 128,-1,25
 422 1081 422 1081 407.5 1078 c 128,-1,26
 393 1075 393 1075 378.5 1065.5 c 0,27,28
 342 1041.59 342 1041.59 342 994 c 0,29,30
 342 965.194 342 965.194 366.5 899.597 c 0,31,32
 419.164 763.976 419.164 763.976 447.082 697.988 c 1,33,-1
 582.5 390 l 2,34,35
 601 349 601 349 608 329.5 c 0,36,37
 613.969 312.871 613.969 312.871 621 266 c 1,38,-1
 875 903 l 1,39,40
 897 966.556 897 966.556 897 999 c 256,41,42
 897 1054.32 897 1054.32 849 1075.5 c 0,43,44
 832 1083 832 1083 805.5 1083 c 128,-1,45
 779 1083 779 1083 742 1077 c 1,46,-1
 759 1190 l 1,47,-1
 1187 1190 l 1,48,-1
 1168 1079 l 1,0,1
EndSplineSet
EndChar

StartChar: w
Encoding: 119 119 48
Width: 1877
Flags: HW
LayerCount: 2
Fore
SplineSet
1855 1074 m 1,0,1
 1835 1082 1835 1082 1817.5 1082 c 128,-1,2
 1800 1082 1800 1082 1783 1066.5 c 128,-1,3
 1766 1051 1766 1051 1750 1023.5 c 0,4,5
 1721.92 975.238 1721.92 975.238 1688 878 c 1,6,-1
 1371 1 l 1,7,-1
 1252 -18 l 1,8,-1
 1017 625.5 l 1,9,-1
 971 744 l 1,10,11
 958.581 778.774 958.581 778.774 955 811 c 1,12,-1
 674 1 l 1,13,-1
 563 -17 l 1,14,-1
 555 -16 l 1,15,-1
 194.5 935 l 2,16,17
 178 979 178 979 177 981 c 0,18,19
 157 1040 157 1040 118 1060.5 c 128,-1,20
 79 1081 79 1081 23 1081 c 1,21,-1
 37 1189 l 1,22,-1
 589 1189 l 1,23,-1
 569 1074 l 1,24,25
 534 1081 534 1081 501.5 1081 c 128,-1,26
 469 1081 469 1081 451 1078 c 128,-1,27
 433 1075 433 1075 421 1066.5 c 0,28,29
 396 1048.79 396 1048.79 396 1009.9 c 128,-1,30
 396 971 396 971 406 926 c 128,-1,31
 416 881 416 881 433 828 c 128,-1,32
 450 775 450 775 471 718 c 2,33,-1
 555.5 496 l 2,34,35
 576 444 576 444 589.5 408.5 c 0,36,37
 609.288 356.466 609.288 356.466 624 278 c 1,38,39
 781.916 687.258 781.916 687.258 825.958 825.129 c 2,40,-1
 887 1019 l 2,41,42
 892 1035 892 1035 897 1056.5 c 128,-1,43
 902 1078 902 1078 907 1099.5 c 0,44,45
 915.409 1135.66 915.409 1135.66 921 1172 c 1,46,47
 981.333 1172 981.333 1172 1051 1191 c 1,48,49
 1092.45 983.771 1092.45 983.771 1226.5 602.5 c 1,50,-1
 1322.5 334 l 2,51,52
 1333 305 1333 305 1338 279 c 1,53,-1
 1547 901 l 2,54,55
 1565 955 1565 955 1565 1006 c 0,56,57
 1565 1082 1565 1082 1474 1082 c 0,58,59
 1450 1082 1450 1082 1407 1076 c 1,60,-1
 1424 1190 l 1,61,-1
 1874 1190 l 1,62,-1
 1855 1074 l 1,0,1
EndSplineSet
EndChar

StartChar: x
Encoding: 120 120 49
Width: 1364
Flags: HW
LayerCount: 2
Fore
SplineSet
753 106 m 1,0,1
 874 106 874 106 874 147 c 0,2,3
 874 172 874 172 836 225 c 0,4,5
 718.221 384.105 718.221 384.105 645 475 c 1,6,7
 615 437 615 437 588 399 c 0,8,9
 517.187 299.284 517.187 299.284 502.594 277.142 c 128,-1,10
 488 255 488 255 474 236.5 c 0,11,12
 424 170.429 424 170.429 424 152.714 c 128,-1,13
 424 135 424 135 431 127.5 c 128,-1,14
 438 120 438 120 449.5 115.5 c 0,15,16
 473.778 106 473.778 106 493.389 106 c 0,17,18
 535 106 535 106 569 120 c 1,19,-1
 555 0 l 1,20,-1
 79 0 l 1,21,-1
 91 106 l 1,22,23
 171.78 106 171.78 106 205.39 132 c 128,-1,24
 239 158 239 158 271 197.5 c 2,25,-1
 566 573 l 1,26,-1
 408 768 l 1,27,-1
 212 1016 l 1,28,29
 164.206 1081 164.206 1081 72 1081 c 1,30,-1
 84 1189 l 1,31,-1
 606 1189 l 1,32,-1
 592 1074 l 1,33,34
 569.6 1081 569.6 1081 534 1081 c 0,35,36
 463 1081 463 1081 463 1037 c 0,37,38
 463 991 463 991 523 912 c 1,39,-1
 702 684 l 1,40,-1
 825.5 830.5 l 1,41,42
 870 885 870 885 895 922.5 c 0,43,44
 945 997.5 945 997.5 945 1035 c 0,45,46
 945 1081 945 1081 884 1081 c 0,47,48
 854.333 1081 854.333 1081 816 1076 c 1,49,-1
 832 1189 l 1,50,-1
 1276 1189 l 1,51,-1
 1260 1081 l 1,52,53
 1171.07 1081 1171.07 1081 1053 927 c 1,54,-1
 782 589 l 1,55,-1
 1025 294.5 l 1,56,-1
 1137 153 l 2,57,58
 1154 133 1154 133 1181 119.5 c 128,-1,59
 1208 106 1208 106 1225.5 106 c 0,60,61
 1257.2 106 1257.2 106 1288 120 c 1,62,-1
 1273 0 l 1,63,-1
 748 0 l 1,64,-1
 741 2 l 1,65,66
 744.176 55.9997 744.176 55.9997 753 106 c 1,0,1
EndSplineSet
EndChar

StartChar: y
Encoding: 121 121 50
Width: 1193
Flags: HW
LayerCount: 2
Fore
SplineSet
1248 1074 m 1,0,1
 1227 1077 1227 1077 1213.5 1077 c 128,-1,2
 1200 1077 1200 1077 1187 1064.5 c 128,-1,3
 1174 1052 1174 1052 1160.5 1029 c 128,-1,4
 1147 1006 1147 1006 1132.5 973.5 c 2,5,-1
 1101 901 l 1,6,7
 1053 788 1053 788 1001 650.5 c 2,8,-1
 768.5 32 l 1,9,-1
 705.5 -125.5 l 1,10,11
 632.538 -302.692 632.538 -302.692 593.769 -360.846 c 128,-1,12
 555 -419 555 -419 518 -451 c 0,13,14
 440.531 -518 440.531 -518 338 -518 c 0,15,16
 232.426 -518 232.426 -518 128.5 -426 c 0,17,18
 98 -399 98 -399 76 -369 c 1,19,-1
 141 -258 l 1,20,-1
 150 -257 l 1,21,22
 267.857 -323 267.857 -323 348 -323 c 0,23,24
 455.762 -323 455.762 -323 531 -165 c 0,25,26
 551 -123 551 -123 566 -84 c 2,27,-1
 605 17 l 1,28,-1
 521 56 l 1,29,-1
 518 57 l 1,30,-1
 169.5 913.5 l 2,31,32
 151 960 151 960 137.5 995 c 128,-1,33
 124 1030 124 1030 92 1054 c 128,-1,34
 60 1078 60 1078 43 1078 c 2,35,-1
 22 1078 l 2,36,37
 18 1078 18 1078 7 1077 c 1,38,-1
 21 1189 l 1,39,-1
 527 1189 l 1,40,-1
 513 1079 l 1,41,42
 495 1076 495 1076 472 1076 c 2,43,-1
 445 1076 l 2,44,45
 397 1076 397 1076 376 1037.5 c 0,46,47
 367 1021 367 1021 367 998 c 128,-1,48
 367 975 367 975 379 932.5 c 128,-1,49
 391 890 391 890 411 832.5 c 0,50,51
 472.259 664.037 472.259 664.037 506.63 577.519 c 0,52,53
 655.625 205.462 655.625 205.462 668 177 c 1,54,55
 761.489 431.468 761.489 431.468 782.245 493.734 c 2,56,-1
 873 755.5 l 1,57,58
 950 966.586 950 966.586 950 1015 c 0,59,60
 950 1078 950 1078 862 1078 c 0,61,62
 829 1078 829 1078 787 1072 c 1,63,-1
 804 1189 l 1,64,-1
 1265 1189 l 1,65,-1
 1248 1074 l 1,0,1
EndSplineSet
EndChar

StartChar: z
Encoding: 122 122 51
Width: 1195
Flags: HW
LayerCount: 2
Fore
SplineSet
799 1069 m 1,0,1
 741 1071 741 1071 680 1071 c 0,2,3
 452.846 1071 452.846 1071 379 1039 c 0,4,5
 289.946 1000.41 289.946 1000.41 276 847 c 1,6,-1
 147 847 l 1,7,-1
 181 1190 l 1,8,-1
 1057 1190 l 1,9,-1
 1074 1087 l 1,10,11
 1069 1081 1069 1081 1041 1045 c 1,12,13
 632.602 479.57 632.602 479.57 549.301 356.285 c 128,-1,14
 466 233 466 233 396 116 c 1,15,16
 674.833 116 674.833 116 748.417 127 c 128,-1,17
 822 138 822 138 851 151.5 c 128,-1,18
 880 165 880 165 905 193.5 c 0,19,20
 957.848 253.747 957.848 253.747 986 387 c 1,21,-1
 1111 387 l 1,22,-1
 1064 0 l 1,23,-1
 158 0 l 1,24,-1
 119 87 l 1,25,-1
 119 89 l 1,26,-1
 584 747.5 l 1,27,-1
 706 925.5 l 1,28,29
 762 1009 762 1009 799 1069 c 1,0,1
EndSplineSet
EndChar

StartChar: X
Encoding: 88 88 52
Width: 1535
Flags: HW
LayerCount: 2
Fore
SplineSet
872 120 m 1,0,1
 914.5 115 914.5 115 960.25 115 c 0,2,3
 1055.91 115 1055.91 115 1054 182 c 0,4,5
 1052.02 223.541 1052.02 223.541 992 305 c 2,6,-1
 740 642 l 1,7,8
 498.126 317.829 498.126 317.829 460.063 253.414 c 128,-1,9
 422 189 422 189 422 171 c 0,10,11
 420 117 420 117 496 117 c 0,12,13
 550.25 117 550.25 117 587 124 c 1,14,-1
 568 0 l 1,15,-1
 29 0 l 1,16,-1
 49 117 l 1,17,18
 116.429 117 116.429 117 180.5 151.5 c 0,19,20
 200 162 200 162 213 175 c 1,21,22
 328 309 328 309 434.5 446 c 1,23,-1
 649 727 l 2,24,25
 650.2 729 650.2 729 663 745 c 1,26,27
 273.031 1268.89 273.031 1268.89 242.016 1307.94 c 128,-1,28
 211 1347 211 1347 183.5 1369.5 c 0,29,30
 129.111 1414 129.111 1414 55 1414 c 1,31,-1
 66 1530 l 1,32,-1
 687 1530 l 1,33,-1
 668 1414 l 1,34,35
 555.643 1414 555.643 1414 527.821 1404.5 c 128,-1,36
 500 1395 500 1395 492.5 1382.5 c 128,-1,37
 485 1370 485 1370 485.5 1357 c 128,-1,38
 486 1344 486 1344 488 1337 c 128,-1,39
 490 1330 490 1330 497.5 1316.5 c 128,-1,40
 505 1303 505 1303 519.5 1281 c 2,41,-1
 650.5 1097 l 1,42,-1
 800 896 l 1,43,44
 1124 1324.14 1124 1324.14 1124 1372 c 0,45,46
 1124 1398 1124 1398 1104.5 1406 c 128,-1,47
 1085 1414 1085 1414 1058.5 1414 c 0,48,49
 1010.6 1414 1010.6 1414 953 1402 c 1,50,-1
 974 1530 l 1,51,-1
 1494 1530 l 1,52,-1
 1474 1414 l 1,53,54
 1358.5 1414 1358.5 1414 1320 1365 c 2,55,-1
 1199.5 1213 l 1,56,-1
 876 794 l 1,57,-1
 1299 235 l 1,58,-1
 1334 191.5 l 1,59,60
 1398.05 115 1398.05 115 1461 115 c 0,61,62
 1495 115 1495 115 1527 123 c 1,63,-1
 1514 0 l 1,64,-1
 865 0 l 1,65,-1
 872 120 l 1,0,1
EndSplineSet
EndChar

StartChar: J
Encoding: 74 74 53
Width: 855
Flags: HW
LayerCount: 2
Fore
SplineSet
74 -310 m 1,0,1
 211.956 -163.2 211.956 -163.2 279.5 65.5 c 0,2,3
 329 233.105 329 233.105 329 396 c 2,4,-1
 329 1177 l 2,5,6
 329 1323.05 329 1323.05 314.5 1360.03 c 128,-1,7
 300 1397 300 1397 283.5 1405.5 c 128,-1,8
 267 1414 267 1414 237 1414 c 0,9,10
 157 1414 157 1414 121 1406 c 1,11,12
 122 1405 122 1405 122 1403 c 1,13,-1
 110 1404 l 1,14,-1
 128 1530 l 1,15,-1
 749 1530 l 1,16,-1
 734 1414 l 1,17,18
 624.595 1414 624.595 1414 594.797 1389.5 c 128,-1,19
 565 1365 565 1365 555 1330.5 c 128,-1,20
 545 1296 545 1296 545 1240 c 2,21,-1
 545 332 l 2,22,23
 545 188.333 545 188.333 525 113.667 c 128,-1,24
 505 39 505 39 478 -16 c 128,-1,25
 451 -71 451 -71 407 -129.5 c 0,26,27
 321.37 -243.349 321.37 -243.349 149 -386 c 1,28,-1
 74 -312 l 1,29,-1
 74 -310 l 1,0,1
EndSplineSet
EndChar

StartChar: U
Encoding: 85 85 54
Width: 1537
Flags: HW
LayerCount: 2
Fore
SplineSet
1154.5 1403.5 m 128,-1,1
 1135 1414 1135 1414 1106.1 1414 c 128,-1,2
 1077.2 1414 1077.2 1414 1022 1402 c 1,3,-1
 1033 1530 l 1,4,-1
 1514 1530 l 1,5,-1
 1499 1414 l 1,6,7
 1404.26 1414 1404.26 1414 1380.5 1370 c 0,8,9
 1360 1332.04 1360 1332.04 1360 1193 c 2,10,-1
 1360 610 l 2,11,12
 1360 302 1360 302 1220.5 143.5 c 128,-1,13
 1081 -15 1081 -15 789 -15 c 0,14,15
 482.392 -15 482.392 -15 332.5 159 c 0,16,17
 195 318.615 195 318.615 195 617 c 2,18,-1
 195 1014 l 1,19,-1
 194 1202.5 l 1,20,-1
 194 1260 l 2,21,22
 194 1366.95 194 1366.95 179.5 1387.97 c 128,-1,23
 165 1409 165 1409 150 1411.5 c 128,-1,24
 135 1414 135 1414 120 1414 c 0,25,26
 88.8 1414 88.8 1414 36 1402 c 1,27,-1
 50 1530 l 1,28,-1
 613 1530 l 1,29,-1
 598 1414 l 1,30,31
 475.35 1414 475.35 1414 444 1381 c 0,32,33
 414 1349.42 414 1349.42 414 1221 c 2,34,-1
 414 646 l 2,35,36
 414 112 414 112 788 112 c 0,37,38
 917.19 112 917.19 112 982.095 141 c 128,-1,39
 1047 170 1047 170 1085.5 207 c 128,-1,40
 1124 244 1124 244 1151.5 302.5 c 0,41,42
 1209 424.818 1209 424.818 1209 636 c 2,43,-1
 1209 1196 l 2,44,45
 1209 1318.62 1209 1318.62 1191.5 1355.81 c 128,-1,0
 1174 1393 1174 1393 1154.5 1403.5 c 128,-1,1
EndSplineSet
EndChar

StartChar: Y
Encoding: 89 89 55
Width: 1364
Flags: HW
LayerCount: 2
Fore
SplineSet
863.5 119.5 m 128,-1,1
 884 109 884 109 940 109 c 128,-1,2
 996 109 996 109 1060 125 c 1,3,-1
 1051 0 l 1,4,-1
 353 0 l 1,5,-1
 361 109 l 1,6,-1
 404 109 l 2,7,8
 531.73 109 531.73 109 560.865 133.5 c 128,-1,9
 590 158 590 158 597.5 191.5 c 128,-1,10
 605 225 605 225 605 280 c 2,11,-1
 605 534 l 1,12,-1
 126 1329 l 1,13,14
 94.0288 1375.89 94.0288 1375.89 64.5144 1389.95 c 0,15,16
 13.9999 1414 13.9999 1414 -56 1414 c 1,17,-1
 -41 1530 l 1,18,-1
 567 1530 l 1,19,-1
 541 1414 l 1,20,21
 438.357 1414 438.357 1414 414.679 1405.5 c 128,-1,22
 391 1397 391 1397 382.5 1383.5 c 128,-1,23
 374 1370 374 1370 374 1344.5 c 128,-1,24
 374 1319 374 1319 388 1282.5 c 128,-1,25
 402 1246 402 1246 425.5 1202 c 128,-1,26
 449 1158 449 1158 480 1108 c 2,27,-1
 612 897.5 l 2,28,29
 646 843 646 843 675 789 c 1,30,-1
 734 664 l 1,31,32
 885.807 947.451 885.807 947.451 922.403 1021.23 c 1,33,-1
 984.5 1150.5 l 1,34,35
 1040.64 1272.68 1040.64 1272.68 1044.82 1300.34 c 128,-1,36
 1049 1328 1049 1328 1048.5 1346 c 128,-1,37
 1048 1364 1048 1364 1039.5 1379 c 0,38,39
 1019.67 1414 1019.67 1414 960 1414 c 0,40,41
 920 1414 920 1414 860 1402 c 1,42,-1
 875 1530 l 1,43,-1
 1433 1530 l 1,44,-1
 1414 1414 l 1,45,46
 1326.97 1414 1326.97 1414 1294.99 1389.5 c 0,47,48
 1245.98 1351.97 1245.98 1351.97 1196 1248 c 1,49,-1
 819 534 l 1,50,-1
 819 348 l 2,51,52
 819 193.6 819 193.6 831 161.8 c 128,-1,0
 843 130 843 130 863.5 119.5 c 128,-1,1
EndSplineSet
EndChar

StartChar: Z
Encoding: 90 90 56
Width: 1365
Flags: HW
LayerCount: 2
Fore
SplineSet
984 1414 m 1,0,-1
 531 1414 l 2,1,2
 410.273 1414 410.273 1414 351 1332.5 c 0,3,4
 323 1294 323 1294 305 1241 c 128,-1,5
 287 1188 287 1188 268 1126 c 1,6,-1
 127 1126 l 1,7,8
 169 1277.2 169 1277.2 169 1537 c 1,9,-1
 304 1533 l 2,10,11
 389.5 1530 389.5 1530 527 1530 c 2,12,-1
 1237 1530 l 1,13,-1
 1273 1460 l 1,14,-1
 391 115 l 1,15,-1
 817 115 l 2,16,17
 1012.11 115 1012.11 115 1103.5 279.5 c 0,18,19
 1136 338 1136 338 1158 421 c 1,20,-1
 1284 420 l 1,21,22
 1284 327 1284 327 1267 225 c 2,23,-1
 1230 0 l 1,24,-1
 146 0 l 1,25,-1
 101 68 l 1,26,-1
 984 1414 l 1,0,-1
EndSplineSet
EndChar

StartChar: ampersand
Encoding: 38 38 57
Width: 1881
Flags: HW
LayerCount: 2
Fore
SplineSet
1805 629 m 1,0,1
 1810 591.5 1810 591.5 1810 567.75 c 0,2,3
 1810 523.545 1810 523.545 1783 499 c 1,4,5
 1723.44 490.241 1723.44 490.241 1580 488 c 1,6,7
 1527.96 273.612 1527.96 273.612 1341.5 133 c 0,8,9
 1143.91 -16 1143.91 -16 873 -16 c 0,10,11
 579.21 -16 579.21 -16 416 108.5 c 0,12,13
 259 228.263 259 228.263 259 433.156 c 128,-1,14
 259 638.05 259 638.05 546 882 c 1,15,16
 433 995 433 995 433 1132 c 0,17,18
 433 1294.64 433 1294.64 578 1418 c 0,19,20
 726.105 1544 726.105 1544 928 1544 c 0,21,22
 1156.07 1544 1156.07 1544 1237 1438.5 c 0,23,24
 1265 1402 1265 1402 1265 1366 c 128,-1,25
 1265 1330 1265 1330 1260.5 1305 c 128,-1,26
 1256 1280 1256 1280 1249 1256 c 0,27,28
 1233.42 1202.58 1233.42 1202.58 1221.21 1188.79 c 0,29,30
 1204.57 1170 1204.57 1170 1147.79 1170 c 128,-1,31
 1091 1170 1091 1170 1091 1186 c 0,32,33
 1091 1295.44 1091 1295.44 1026.5 1361 c 0,34,35
 963.532 1425 963.532 1425 864 1425 c 0,36,37
 784.964 1425 784.964 1425 707 1366 c 0,38,39
 620 1300.16 620 1300.16 620 1214 c 0,40,41
 620 1120.38 620 1120.38 695 1028.5 c 0,42,43
 715 1004 715 1004 731.5 991.5 c 128,-1,44
 748 979 748 979 755.5 967.5 c 128,-1,45
 763 956 763 956 765.5 946 c 0,46,47
 770.895 924.421 770.895 924.421 761 917 c 0,48,49
 593.055 800.372 593.055 800.372 523 646.5 c 0,50,51
 495 585 495 585 495 502 c 128,-1,52
 495 419 495 419 527 345 c 128,-1,53
 559 271 559 271 615.5 222 c 0,54,55
 727.347 125 727.347 125 920 125 c 0,56,57
 1131.6 125 1131.6 125 1268.5 229 c 0,58,59
 1402.82 331.043 1402.82 331.043 1417 487 c 1,60,61
 1344 487 1344 487 1268.5 488 c 2,62,-1
 1123.5 490 l 2,63,64
 1054 491 1054 491 994.5 492.5 c 2,65,-1
 893 495 l 2,66,67
 868 496 868 496 845.5 496 c 2,68,-1
 818 496 l 2,69,70
 786 496 786 496 786 532 c 128,-1,71
 786 568 786 568 802 609.5 c 128,-1,72
 818 651 818 651 847.5 696.5 c 128,-1,73
 877 742 877 742 920.5 788 c 128,-1,74
 964 834 964 834 1019 870.5 c 0,75,76
 1141.81 952 1141.81 952 1282 952 c 0,77,78
 1490.82 952 1490.82 952 1568 779 c 0,79,80
 1597 714 1597 714 1597 615 c 1,81,82
 1752.34 619.707 1752.34 619.707 1805 629 c 1,0,1
986 610 m 1,83,84
 1013 613 1013 613 1151.5 613 c 2,85,-1
 1418 613 l 1,86,87
 1388.23 732.07 1388.23 732.07 1284 788 c 0,88,89
 1243 810 1243 810 1200 810 c 128,-1,90
 1157 810 1157 810 1132.5 801.5 c 128,-1,91
 1108 793 1108 793 1088 779 c 0,92,93
 1015.58 728.303 1015.58 728.303 986 610 c 1,83,84
EndSplineSet
EndChar

StartChar: exclam
Encoding: 33 33 58
Width: 684
Flags: HW
LayerCount: 2
Fore
SplineSet
293 430 m 2,0,-1
 271 429 l 1,1,-1
 206 1612 l 1,2,3
 236.828 1655.16 236.828 1655.16 404.5 1690 c 0,4,5
 443 1698 443 1698 462 1698 c 1,6,-1
 490 1647 l 1,7,-1
 408 455 l 1,8,9
 361.384 432.358 361.384 432.358 293 430 c 2,0,-1
181 129 m 256,10,11
 181 195.136 181 195.136 228 240 c 0,12,13
 276.19 286 276.19 286 324.595 286 c 128,-1,14
 373 286 373 286 402.5 273.5 c 128,-1,15
 432 261 432 261 453.5 240 c 0,16,17
 501 193.605 501 193.605 501 129 c 256,18,19
 501 65 501 65 453.5 17.5 c 0,20,21
 407 -29 407 -29 340 -29 c 0,22,23
 275.581 -29 275.581 -29 228 17.5 c 0,24,25
 181 63.4318 181 63.4318 181 129 c 256,10,11
EndSplineSet
EndChar

StartChar: question
Encoding: 63 63 61
Width: 1537
Flags: HW
LayerCount: 2
Fore
SplineSet
905 468 m 1,0,1
 871.667 458 871.667 458 793.833 458 c 128,-1,2
 716 458 716 458 677 471 c 128,-1,3
 638 484 638 484 609 509 c 0,4,5
 547 562.448 547 562.448 547 651 c 0,6,7
 547 788.706 547 788.706 695.5 911 c 1,8,-1
 865.5 1048.5 l 1,9,10
 1011 1169.46 1011 1169.46 1011 1308 c 0,11,12
 1011 1448.24 1011 1448.24 929.5 1533 c 0,13,14
 851.615 1614 851.615 1614 741 1614 c 0,15,16
 518.351 1614 518.351 1614 456.5 1415 c 0,17,18
 438 1355.48 438 1355.48 438 1279 c 1,19,20
 364.5 1279 364.5 1279 277 1293 c 1,21,22
 262 1360.5 262 1360.5 262 1429.75 c 0,23,24
 262 1522 262 1522 267 1587 c 1,25,26
 310 1598 310 1598 345.5 1612.5 c 2,27,-1
 488.5 1671 l 2,28,29
 617.467 1724 617.467 1724 772 1724 c 0,30,31
 953.8 1724 953.8 1724 1089 1652.5 c 0,32,33
 1199.52 1594.05 1199.52 1594.05 1246.5 1479 c 0,34,35
 1271 1419 1271 1419 1271 1343 c 128,-1,36
 1271 1267 1271 1267 1243 1209.5 c 128,-1,37
 1215 1152 1215 1152 1170 1103 c 128,-1,38
 1125 1054 1125 1054 1069.5 1012.5 c 1,39,-1
 877 873 l 1,40,41
 744 774.103 744 774.103 744 686 c 0,42,43
 744 600.795 744 600.795 816.5 591.5 c 0,44,45
 836 589 836 589 856 589 c 128,-1,46
 876 589 876 589 904 596 c 1,47,-1
 905 468 l 1,0,1
599 129 m 256,48,49
 599 193.605 599 193.605 646.5 240 c 0,50,51
 693.595 286 693.595 286 759 286 c 256,52,53
 824.405 286 824.405 286 871.5 240 c 0,54,55
 919 193.605 919 193.605 919 129 c 256,56,57
 919 65 919 65 871.5 17.5 c 0,58,59
 825 -29 825 -29 759 -29 c 256,60,61
 693 -29 693 -29 646.5 17.5 c 0,62,63
 599 65 599 65 599 129 c 256,48,49
EndSplineSet
EndChar

StartChar: quoteleft
Encoding: 8216 8216 64
Width: 683
Flags: HW
LayerCount: 2
Fore
SplineSet
376.5 1167.5 m 0,0,1
 345 1156 345 1156 305 1158 c 128,-1,2
 265 1160 265 1160 231.5 1178 c 128,-1,3
 198 1196 198 1196 177 1224 c 0,4,5
 76.082 1358.56 76.082 1358.56 221 1593.5 c 0,6,7
 285.744 1698.46 285.744 1698.46 344.872 1752.73 c 0,8,9
 445.403 1845 445.403 1845 470.701 1844.5 c 0,10,11
 528.86 1843.35 528.86 1843.35 543 1808 c 1,12,13
 530 1796 530 1796 512.5 1774 c 2,14,-1
 475 1724.5 l 1,15,16
 364.714 1572.86 364.714 1572.86 354 1480 c 1,17,18
 450.57 1464.42 450.57 1464.42 480 1374.5 c 0,19,20
 500.564 1311.67 500.564 1311.67 470.5 1250.5 c 0,21,22
 441.338 1191.17 441.338 1191.17 376.5 1167.5 c 0,0,1
EndSplineSet
EndChar

StartChar: comma
Encoding: 44 44 66
Width: 512
Flags: HW
LayerCount: 2
Fore
SplineSet
119 27.5 m 128,-1,1
 89 69 89 69 89 111.5 c 128,-1,2
 89 154 89 154 102 183.5 c 128,-1,3
 115 213 115 213 137.5 235.5 c 0,4,5
 188 286 188 286 255 286 c 0,6,7
 326.118 286 326.118 286 371 231.5 c 128,-1,8
 416 176.857 416 176.857 416 110.929 c 128,-1,9
 416 45 416 45 399 -6.5 c 128,-1,10
 382 -58 382 -58 355.5 -106 c 128,-1,11
 329 -154 329 -154 297 -196.5 c 128,-1,12
 265 -239 265 -239 234.5 -270.5 c 0,13,14
 168.175 -339 168.175 -339 145.087 -339 c 0,15,16
 91 -339 91 -339 49 -290 c 1,17,-1
 93 -241.5 l 1,18,19
 209.56 -109.83 209.56 -109.83 212 -22 c 1,20,0
 149 -14 149 -14 119 27.5 c 128,-1,1
EndSplineSet
EndChar

StartChar: period
Encoding: 46 46 67
Width: 512
Flags: HW
LayerCount: 2
Fore
SplineSet
95 129 m 256,0,1
 95 193.605 95 193.605 142.5 240 c 0,2,3
 189.595 286 189.595 286 255 286 c 256,4,5
 320.405 286 320.405 286 367.5 240 c 0,6,7
 415 193.605 415 193.605 415 129 c 256,8,9
 415 65 415 65 367.5 17.5 c 0,10,11
 321 -29 321 -29 255 -29 c 256,12,13
 189 -29 189 -29 142.5 17.5 c 0,14,15
 95 65 95 65 95 129 c 256,0,1
EndSplineSet
EndChar

StartChar: periodcentered
Encoding: 183 183 68
Width: 852
Flags: HW
LayerCount: 2
Fore
SplineSet
424.5 585 m 0,0,1
 390 585 390 585 359.5 598.5 c 128,-1,2
 329 612 329 612 305.5 634.5 c 0,3,4
 255 682.851 255 682.851 255 752 c 0,5,6
 255 821.574 255 821.574 305.5 871 c 0,7,8
 355.565 920 355.565 920 424 920 c 0,9,10
 494.435 920 494.435 920 544.5 871 c 0,11,12
 595 821.574 595 821.574 595 752 c 0,13,14
 595 682.851 595 682.851 544.5 634.5 c 0,15,16
 492.8 585 492.8 585 424.5 585 c 0,0,1
EndSplineSet
EndChar

StartChar: bullet
Encoding: 8226 8226 69
Width: 1195
Flags: HW
LayerCount: 2
Fore
SplineSet
595 349 m 256,0,1
 483 349 483 349 405.5 426.5 c 0,2,3
 327 505 327 505 327 622 c 0,4,5
 327 737.425 327 737.425 405.5 817 c 0,6,7
 482.446 895 482.446 895 595 895 c 256,8,9
 709.554 895 709.554 895 786.5 817 c 0,10,11
 866 736.411 866 736.411 866 622 c 0,12,13
 866 506 866 506 786.5 426.5 c 0,14,15
 709 349 709 349 595 349 c 256,0,1
EndSplineSet
EndChar

StartChar: paragraph
Encoding: 182 182 70
Width: 1364
Flags: HW
LayerCount: 2
Fore
SplineSet
666 508 m 1,0,-1
 635 508 l 2,1,2
 457.531 508 457.531 508 324.5 594 c 0,3,4
 154 704.222 154 704.222 154 950 c 0,5,6
 154 1153.08 154 1153.08 268 1270.5 c 0,7,8
 353.435 1358.5 353.435 1358.5 497 1392.5 c 0,9,10
 579.333 1412 579.333 1412 635.667 1412 c 128,-1,11
 692 1412 692 1412 736 1412.5 c 128,-1,12
 780 1413 780 1413 834 1413.5 c 128,-1,13
 888 1414 888 1414 945.5 1415 c 128,-1,14
 1003 1416 1003 1416 1051.5 1417.5 c 0,15,16
 1162.56 1420.93 1162.56 1420.93 1171 1426 c 1,17,18
 1159.39 1391.18 1159.39 1391.18 1152.7 1260.59 c 128,-1,19
 1146 1130 1146 1130 1146 1075 c 2,20,-1
 1146 -169 l 1,21,-1
 977 -169 l 1,22,-1
 980 1284 l 1,23,-1
 835 1283 l 1,24,-1
 835 -169 l 1,25,-1
 673 -169 l 1,26,-1
 666 -167 l 1,27,-1
 666 508 l 1,0,-1
EndSplineSet
EndChar

StartChar: asterisk
Encoding: 42 42 73
Width: 1364
Flags: HW
LayerCount: 2
Fore
SplineSet
718 1077 m 1,0,1
 838 865.8 838 865.8 838 733.4 c 128,-1,2
 838 601 838 601 729 601 c 0,3,4
 668.333 601 668.333 601 653.167 614 c 0,5,6
 631 633 631 633 631 676 c 2,7,-1
 634 1070 l 1,8,9
 502.822 840.439 502.822 840.439 359.5 782.5 c 0,10,11
 336 773 336 773 311 773 c 0,12,13
 254.467 773 254.467 773 227.233 820.5 c 128,-1,14
 200 868 200 868 200 887.5 c 0,15,16
 200 918 200 918 244 944 c 2,17,-1
 597 1146 l 1,18,-1
 580 1146 l 2,19,20
 353.895 1146 353.895 1146 241 1211 c 1,21,-1
 212 1230.5 l 1,22,23
 157 1269 157 1269 157 1317 c 0,24,25
 157 1340 157 1340 174 1371 c 0,26,27
 206.355 1430 206.355 1430 244 1430 c 0,28,29
 264.571 1430 264.571 1430 292 1414 c 2,30,-1
 615 1227 l 1,31,32
 552 1356 552 1356 529 1448 c 128,-1,33
 506 1540 506 1540 506 1561 c 128,-1,34
 506 1582 506 1582 509 1606.5 c 128,-1,35
 512 1631 512 1631 523.5 1651 c 0,36,37
 550.525 1698 550.525 1698 616 1698 c 0,38,39
 695 1698 695 1698 708.5 1656 c 0,40,41
 717 1629.56 717 1629.56 717 1241 c 1,42,43
 807.332 1364.79 807.332 1364.79 901.5 1454 c 0,44,45
 975.389 1524 975.389 1524 1043 1524 c 256,46,47
 1096.52 1524 1096.52 1524 1124.26 1476.5 c 128,-1,48
 1152 1429 1152 1429 1152 1409.5 c 128,-1,49
 1152 1390 1152 1390 1140 1378.5 c 128,-1,50
 1128 1367 1128 1367 1054.5 1322.5 c 1,51,-1
 765 1156 l 1,52,53
 927.172 1142.49 927.172 1142.49 1014.09 1115.74 c 128,-1,54
 1101 1089 1101 1089 1119 1079 c 1,55,-1
 1118 1079 l 1,56,57
 1206 1032.07 1206 1032.07 1206 974 c 0,58,59
 1206 950 1206 950 1188 919 c 0,60,61
 1154.32 861 1154.32 861 1119 861 c 256,62,63
 1099 861 1099 861 1049.5 888.5 c 0,64,65
 801.21 1027.67 801.21 1027.67 771.605 1045.33 c 2,66,-1
 718 1077 l 1,0,1
EndSplineSet
EndChar

StartChar: onesuperior
Encoding: 185 185 75
Width: 855
Flags: HW
LayerCount: 2
Fore
SplineSet
164 827 m 1,0,-1
 265 827 l 1,1,2
 335.725 825.035 335.725 825.035 349.362 844.518 c 0,3,4
 368 871.143 368 871.143 368 971 c 2,5,-1
 368 1330 l 2,6,7
 368 1406 368 1406 356 1436.5 c 128,-1,8
 344 1467 344 1467 306.5 1467 c 128,-1,9
 269 1467 269 1467 228 1456.5 c 128,-1,10
 187 1446 187 1446 146 1437 c 1,11,-1
 117 1546 l 1,12,-1
 598 1669 l 1,13,14
 577 1609 577 1609 574 1553.5 c 2,15,-1
 570 1480.5 l 2,16,17
 569 1463 569 1463 569 1451 c 2,18,-1
 569 998 l 2,19,20
 569 867.875 569 867.875 596 837.5 c 0,21,22
 608 824 608 824 640.5 824 c 0,23,24
 711.714 824 711.714 824 776 839 c 1,25,-1
 763 713 l 1,26,-1
 151 713 l 1,27,-1
 164 827 l 1,0,-1
EndSplineSet
EndChar

StartChar: twosuperior
Encoding: 178 178 76
Width: 1026
Flags: HW
LayerCount: 2
Fore
SplineSet
124 1606 m 1,0,1
 148 1602 148 1602 170.5 1602 c 0,2,3
 207.3 1602 207.3 1602 251.65 1616.5 c 128,-1,4
 296 1631 296 1631 320.5 1638 c 128,-1,5
 345 1645 345 1645 374 1651 c 0,6,7
 441.667 1665 441.667 1665 513.833 1665 c 128,-1,8
 586 1665 586 1665 649.5 1649.5 c 128,-1,9
 713 1634 713 1634 760.5 1600.5 c 0,10,11
 862 1528.92 862 1528.92 862 1386 c 0,12,13
 862 1285.63 862 1285.63 753.5 1160 c 0,14,15
 631.652 1018.91 631.652 1018.91 425 894.5 c 0,16,17
 376 865 376 865 348 851 c 1,18,19
 490.125 851 490.125 851 574.062 859.5 c 2,20,-1
 704 873 l 1,21,22
 748 883 748 883 770.5 913 c 128,-1,23
 793 943 793 943 804 1007 c 1,24,-1
 943 1007 l 1,25,-1
 908 713 l 1,26,-1
 107 713 l 1,27,28
 81 733.222 81 733.222 81 783 c 1,29,30
 110 806 110 806 145.5 831.5 c 2,31,-1
 363.5 987 l 1,32,33
 639 1190.39 639 1190.39 639 1389 c 0,34,35
 639 1512.2 639 1512.2 545.5 1544.5 c 0,36,37
 518 1554 518 1554 473 1554 c 128,-1,38
 428 1554 428 1554 387 1535.5 c 128,-1,39
 346 1517 346 1517 320 1484.5 c 0,40,41
 270 1422 270 1422 270 1312 c 1,42,-1
 128 1312 l 1,43,44
 128 1402 128 1402 126.5 1456 c 0,45,46
 124 1546 124 1546 124 1606 c 1,0,1
EndSplineSet
EndChar

StartChar: threesuperior
Encoding: 179 179 77
Width: 1031
Flags: HW
LayerCount: 2
Fore
SplineSet
872 1434 m 0,0,1
 872 1291.64 872 1291.64 716 1216 c 1,2,3
 823.739 1194.09 823.739 1194.09 882.5 1121.5 c 0,4,5
 931 1061.59 931 1061.59 931 993.294 c 128,-1,6
 931 925 931 925 900 870.5 c 128,-1,7
 869 816 869 816 813.5 777 c 0,8,9
 696.808 695 696.808 695 510 695 c 0,10,11
 417.333 695 417.333 695 347.167 711.5 c 0,12,13
 230.222 739 230.222 739 182 739 c 1,14,-1
 175 741 l 1,15,16
 167 801.8 167 801.8 167 873.275 c 128,-1,17
 167 944.75 167 944.75 174 992 c 1,18,-1
 274 992 l 1,19,20
 283.657 795 283.657 795 511 795 c 0,21,22
 675.238 795 675.238 795 710 904.5 c 0,23,24
 720 936 720 936 720 970 c 0,25,26
 720 1142 720 1142 501 1142 c 0,27,28
 492 1142 492 1142 483 1142 c 0,29,30
 469 1142 469 1142 429 1136 c 1,31,32
 421.517 1136 421.517 1136 411.259 1178.5 c 128,-1,33
 401 1221 401 1221 401 1227 c 1,34,35
 546 1234 546 1234 610.5 1279.5 c 128,-1,36
 675 1325 675 1325 675 1417 c 0,37,38
 675 1517.87 675 1517.87 589 1554.5 c 0,39,40
 562 1566 562 1566 528 1566 c 0,41,42
 312.417 1566 312.417 1566 309 1361 c 1,43,-1
 189 1361 l 1,44,45
 178 1449 178 1449 178 1507.75 c 128,-1,46
 178 1566.5 178 1566.5 185 1626 c 1,47,-1
 198 1625 l 1,48,-1
 204 1625 l 2,49,50
 242.286 1625 242.286 1625 314.143 1638 c 0,51,52
 479.967 1668 479.967 1668 546.984 1668 c 128,-1,53
 614 1668 614 1668 674 1655 c 128,-1,54
 734 1642 734 1642 778 1613.5 c 0,55,56
 872 1552.61 872 1552.61 872 1434 c 0,0,1
EndSplineSet
EndChar

StartChar: onequarter
Encoding: 188 188 78
Width: 2219
Flags: HW
LayerCount: 2
Fore
SplineSet
1583 1901 m 1,0,-1
 1664 1857 l 2,1,2
 1684 1845 1684 1845 1690 1842 c 1,3,-1
 592 -233 l 1,4,-1
 484 -173 l 1,5,-1
 1583 1901 l 1,0,-1
1647 -19 m 1,6,7
 1650 -1 1650 -1 1650 99 c 2,8,-1
 1650 276 l 1,9,-1
 1201 276 l 1,10,-1
 1149 391 l 1,11,-1
 1652 995 l 1,12,13
 1702.44 999.386 1702.44 999.386 1764 1010 c 1,14,-1
 1855 1022 l 1,15,-1
 1855 419 l 1,16,-1
 2097 419 l 1,17,-1
 2082 276 l 1,18,-1
 1855 276 l 1,19,-1
 1855 157 l 1,20,-1
 1857 20 l 1,21,22
 1805 8 1805 8 1753 0 c 128,-1,23
 1701 -8 1701 -8 1647 -19 c 1,6,7
1650 418 m 1,24,-1
 1650 843 l 1,25,-1
 1323 420 l 1,26,-1
 1650 418 l 1,24,-1
251 829 m 1,27,-1
 352 829 l 1,28,29
 422.725 827.035 422.725 827.035 436.362 846.518 c 0,30,31
 455 873.143 455 873.143 455 973 c 2,32,-1
 455 1332 l 2,33,34
 455 1408 455 1408 443 1438.5 c 128,-1,35
 431 1469 431 1469 393.5 1469 c 128,-1,36
 356 1469 356 1469 315 1458.5 c 128,-1,37
 274 1448 274 1448 233 1439 c 1,38,-1
 204 1548 l 1,39,-1
 685 1671 l 1,40,41
 664 1611 664 1611 661 1555.5 c 2,42,-1
 657 1482.5 l 2,43,44
 656 1465 656 1465 656 1453 c 2,45,-1
 656 1000 l 2,46,47
 656 869.875 656 869.875 683 839.5 c 0,48,49
 695 826 695 826 727.5 826 c 0,50,51
 798.714 826 798.714 826 863 841 c 1,52,-1
 850 715 l 1,53,-1
 238 715 l 1,54,-1
 251 829 l 1,27,-1
EndSplineSet
EndChar

StartChar: onehalf
Encoding: 189 189 79
Width: 2219
Flags: HW
LayerCount: 2
Fore
SplineSet
1583 1901 m 1,0,-1
 1664 1857 l 2,1,2
 1684 1845 1684 1845 1690 1842 c 1,3,-1
 592 -233 l 1,4,-1
 484 -173 l 1,5,-1
 1583 1901 l 1,0,-1
1305 898 m 1,6,7
 1329 894 1329 894 1351.5 894 c 0,8,9
 1388.3 894 1388.3 894 1432.65 908.5 c 128,-1,10
 1477 923 1477 923 1501.5 930 c 128,-1,11
 1526 937 1526 937 1555 943 c 0,12,13
 1622.67 957 1622.67 957 1694.83 957 c 128,-1,14
 1767 957 1767 957 1830.5 941.5 c 128,-1,15
 1894 926 1894 926 1941.5 892.5 c 0,16,17
 2043 820.916 2043 820.916 2043 678 c 0,18,19
 2043 577.632 2043 577.632 1934.5 452 c 0,20,21
 1812.65 310.913 1812.65 310.913 1606 186.5 c 0,22,23
 1557 157 1557 157 1529 143 c 1,24,25
 1671.12 143 1671.12 143 1755.06 151.5 c 2,26,-1
 1885 165 l 1,27,28
 1929 175 1929 175 1951.5 205 c 128,-1,29
 1974 235 1974 235 1985 299 c 1,30,-1
 2124 299 l 1,31,-1
 2089 5 l 1,32,-1
 1288 5 l 1,33,34
 1262 25.2222 1262 25.2222 1262 75 c 1,35,36
 1291 98 1291 98 1326.5 123.5 c 2,37,-1
 1544.5 279 l 1,38,39
 1820 482.389 1820 482.389 1820 681 c 0,40,41
 1820 804.2 1820 804.2 1726.5 836.5 c 0,42,43
 1699 846 1699 846 1654 846 c 128,-1,44
 1609 846 1609 846 1568 827.5 c 128,-1,45
 1527 809 1527 809 1501 776.5 c 0,46,47
 1451 714 1451 714 1451 604 c 1,48,-1
 1309 604 l 1,49,50
 1309 694 1309 694 1307.5 748 c 0,51,52
 1305 838 1305 838 1305 898 c 1,6,7
246 829 m 1,53,-1
 347 829 l 1,54,55
 417.725 827.035 417.725 827.035 431.362 846.518 c 0,56,57
 450 873.143 450 873.143 450 973 c 2,58,-1
 450 1332 l 2,59,60
 450 1408 450 1408 438 1438.5 c 128,-1,61
 426 1469 426 1469 388.5 1469 c 128,-1,62
 351 1469 351 1469 310 1458.5 c 128,-1,63
 269 1448 269 1448 228 1439 c 1,64,-1
 199 1548 l 1,65,-1
 680 1671 l 1,66,67
 659 1611 659 1611 656 1555.5 c 2,68,-1
 652 1482.5 l 2,69,70
 651 1465 651 1465 651 1453 c 2,71,-1
 651 1000 l 2,72,73
 651 869.875 651 869.875 678 839.5 c 0,74,75
 690 826 690 826 722.5 826 c 0,76,77
 793.714 826 793.714 826 858 841 c 1,78,-1
 845 715 l 1,79,-1
 233 715 l 1,80,-1
 246 829 l 1,53,-1
EndSplineSet
EndChar

StartChar: threequarters
Encoding: 190 190 80
Width: 2219
Flags: HW
LayerCount: 2
Fore
SplineSet
1583 1901 m 1,0,-1
 1664 1857 l 2,1,2
 1684 1845 1684 1845 1690 1842 c 1,3,-1
 592 -233 l 1,4,-1
 484 -173 l 1,5,-1
 1583 1901 l 1,0,-1
1647 -19 m 1,6,7
 1650 -1 1650 -1 1650 99 c 2,8,-1
 1650 276 l 1,9,-1
 1201 276 l 1,10,-1
 1149 391 l 1,11,-1
 1652 995 l 1,12,13
 1702.44 999.386 1702.44 999.386 1764 1010 c 1,14,-1
 1855 1022 l 1,15,-1
 1855 419 l 1,16,-1
 2097 419 l 1,17,-1
 2082 276 l 1,18,-1
 1855 276 l 1,19,-1
 1855 157 l 1,20,-1
 1857 20 l 1,21,22
 1805 8 1805 8 1753 0 c 128,-1,23
 1701 -8 1701 -8 1647 -19 c 1,6,7
1650 418 m 1,24,-1
 1650 843 l 1,25,-1
 1323 420 l 1,26,-1
 1650 418 l 1,24,-1
870 1436 m 0,27,28
 870 1293.64 870 1293.64 714 1218 c 1,29,30
 821.739 1196.09 821.739 1196.09 880.5 1123.5 c 0,31,32
 929 1063.59 929 1063.59 929 995.294 c 128,-1,33
 929 927 929 927 898 872.5 c 128,-1,34
 867 818 867 818 811.5 779 c 0,35,36
 694.808 697 694.808 697 508 697 c 0,37,38
 415.333 697 415.333 697 345.167 713.5 c 0,39,40
 228.222 741 228.222 741 180 741 c 1,41,-1
 173 743 l 1,42,43
 165 803.8 165 803.8 165 875.275 c 128,-1,44
 165 946.75 165 946.75 172 994 c 1,45,-1
 272 994 l 1,46,47
 281.657 797 281.657 797 509 797 c 0,48,49
 673.238 797 673.238 797 708 906.5 c 0,50,51
 718 938 718 938 718 972 c 0,52,53
 718 1144 718 1144 499 1144 c 0,54,55
 490 1144 490 1144 481 1144 c 0,56,57
 467 1144 467 1144 427 1138 c 1,58,59
 419.517 1138 419.517 1138 409.259 1180.5 c 128,-1,60
 399 1223 399 1223 399 1229 c 1,61,62
 544 1236 544 1236 608.5 1281.5 c 128,-1,63
 673 1327 673 1327 673 1419 c 0,64,65
 673 1519.87 673 1519.87 587 1556.5 c 0,66,67
 560 1568 560 1568 526 1568 c 0,68,69
 310.417 1568 310.417 1568 307 1363 c 1,70,-1
 187 1363 l 1,71,72
 176 1451 176 1451 176 1509.75 c 128,-1,73
 176 1568.5 176 1568.5 183 1628 c 1,74,-1
 196 1627 l 1,75,-1
 202 1627 l 2,76,77
 240.286 1627 240.286 1627 312.143 1640 c 0,78,79
 477.967 1670 477.967 1670 544.984 1670 c 128,-1,80
 612 1670 612 1670 672 1657 c 128,-1,81
 732 1644 732 1644 776 1615.5 c 0,82,83
 870 1554.61 870 1554.61 870 1436 c 0,27,28
EndSplineSet
EndChar

StartChar: Eth
Encoding: 208 208 81
Width: 1539
Flags: HW
LayerCount: 2
Fore
SplineSet
708 -13 m 1,0,-1
 374 1 l 1,1,-1
 93 2 l 1,2,-1
 100 112 l 1,3,4
 189.789 112 189.789 112 219.895 138 c 0,5,6
 273 183.864 273 183.864 273 288 c 2,7,-1
 273 724 l 1,8,-1
 109 724 l 1,9,-1
 129 851 l 1,10,-1
 273 851 l 1,11,-1
 273 1231 l 2,12,13
 273 1336 273 1336 252 1367.5 c 128,-1,14
 231 1399 231 1399 211 1408 c 128,-1,15
 191 1417 191 1417 161.214 1417 c 128,-1,16
 131.429 1417 131.429 1417 92 1405 c 1,17,-1
 102 1532 l 1,18,-1
 354 1532 l 1,19,-1
 719 1547 l 1,20,21
 1495 1547 1495 1547 1495 811 c 0,22,23
 1495 438.437 1495 438.437 1280 213 c 0,24,25
 1064.46 -12.9999 1064.46 -12.9999 708 -13 c 1,0,-1
824.5 1418 m 0,26,27
 746 1431 746 1431 662.444 1431 c 128,-1,28
 578.889 1431 578.889 1431 490 1411 c 1,29,-1
 490 851 l 1,30,-1
 842 851 l 1,31,-1
 822 724 l 1,32,-1
 490 724 l 1,33,-1
 490 210 l 2,34,35
 490 160.231 490 160.231 497.5 148.115 c 128,-1,36
 505 136 505 136 520 130.5 c 128,-1,37
 535 125 535 125 563.5 122 c 0,38,39
 611 117 611 117 733.5 117 c 128,-1,40
 856 117 856 117 950 153.5 c 128,-1,41
 1044 190 1044 190 1112 268.5 c 0,42,43
 1256 434.735 1256 434.735 1256 765 c 0,44,45
 1256 1346.54 1256 1346.54 824.5 1418 c 0,26,27
EndSplineSet
EndChar

StartChar: plus
Encoding: 43 43 85
Width: 1193
Flags: HW
LayerCount: 2
Fore
SplineSet
167 669 m 1,0,-1
 502 669 l 1,1,-1
 502 1031 l 1,2,-1
 688 1031 l 1,3,-1
 688 669 l 1,4,-1
 1043 669 l 1,5,-1
 1024 506 l 1,6,-1
 688 506 l 1,7,-1
 688 169 l 1,8,-1
 502 169 l 1,9,-1
 502 506 l 1,10,-1
 148 506 l 1,11,-1
 167 669 l 1,0,-1
EndSplineSet
EndChar

StartChar: plusminus
Encoding: 177 177 86
Width: 1370
Flags: HW
LayerCount: 2
Fore
SplineSet
172 173 m 1,0,-1
 502 173 l 1,1,-1
 502 506 l 1,2,-1
 148 506 l 1,3,-1
 167 669 l 1,4,-1
 502 669 l 1,5,-1
 502 1031 l 1,6,-1
 688 1031 l 1,7,-1
 688 669 l 1,8,-1
 1043 669 l 1,9,-1
 1024 506 l 1,10,-1
 688 506 l 1,11,-1
 688 173 l 1,12,-1
 1038 173 l 1,13,-1
 1018 11 l 1,14,-1
 152 11 l 1,15,-1
 172 173 l 1,0,-1
EndSplineSet
EndChar

StartChar: hyphen
Encoding: 45 45 87
Width: 1031
Flags: HW
LayerCount: 2
Fore
SplineSet
175 669 m 1,0,-1
 874 669 l 1,1,-1
 854 506 l 1,2,-1
 155 506 l 1,3,-1
 175 669 l 1,0,-1
EndSplineSet
EndChar

StartChar: equal
Encoding: 61 61 88
Width: 1364
Flags: HW
LayerCount: 2
Fore
SplineSet
208 841 m 1,0,-1
 1176 841 l 1,1,-1
 1156 679 l 1,2,-1
 189 679 l 1,3,-1
 208 841 l 1,0,-1
204 501 m 1,4,-1
 1172 501 l 1,5,-1
 1152 339 l 1,6,-1
 185 339 l 1,7,-1
 204 501 l 1,4,-1
EndSplineSet
EndChar

StartChar: multiply
Encoding: 215 215 89
Width: 1193
Flags: HW
LayerCount: 2
Fore
SplineSet
479 591 m 1,0,-1
 226 850 l 1,1,-1
 357 954 l 1,2,-1
 594 711 l 1,3,-1
 838 964 l 1,4,-1
 962 848 l 1,5,-1
 713 590 l 1,6,-1
 965 333 l 1,7,-1
 833 229 l 1,8,-1
 597 470 l 1,9,-1
 371 236 l 1,10,-1
 248 352 l 1,11,-1
 479 591 l 1,0,-1
EndSplineSet
EndChar

StartChar: ordfeminine
Encoding: 170 170 90
Width: 1026
Flags: HW
LayerCount: 2
Fore
SplineSet
863 677 m 2,0,1
 744.84 677 744.84 677 688 775 c 1,2,3
 598.079 710.369 598.079 710.369 470 684 c 0,4,5
 436 677 436 677 391 677 c 128,-1,6
 346 677 346 677 291.5 696.5 c 128,-1,7
 237 716 237 716 198.5 751.5 c 0,8,9
 118 825.727 118 825.727 118 948 c 0,10,11
 118 1097.84 118 1097.84 278.5 1183 c 0,12,13
 423.09 1259.72 423.09 1259.72 652 1264 c 1,14,-1
 649 1440 l 2,15,16
 647.214 1525.71 647.214 1525.71 595 1562.5 c 0,17,18
 558.806 1588 558.806 1588 495.403 1588 c 0,19,20
 365 1588 365 1588 365 1473 c 0,21,22
 365 1446 365 1446 371 1413 c 1,23,-1
 181 1413 l 1,24,25
 178 1425 178 1425 174.5 1438 c 0,26,27
 164.955 1473.45 164.955 1473.45 160.977 1506.23 c 0,28,29
 154.818 1556.98 154.818 1556.98 164 1568 c 1,30,31
 219.5 1599.5 l 2,32,33
 389.558 1697 389.558 1697 569 1697 c 0,34,35
 765.429 1697 765.429 1697 836 1573.5 c 0,36,37
 862 1528 862 1528 862 1469.5 c 128,-1,38
 862 1411 862 1411 860 1344 c 2,39,-1
 852 1057 l 2,40,41
 850 987 850 987 850 939.5 c 128,-1,42
 850 892 850 892 864.5 865.5 c 128,-1,43
 879 839 879 839 900 825 c 0,44,45
 936 801 936 801 989 801 c 1,46,47
 970.258 739.419 970.258 739.419 901 697.5 c 1,48,-1
 866 677 l 1,49,-1
 863 677 l 2,0,1
470 809 m 0,50,51
 561.091 809 561.091 809 658 887 c 1,52,-1
 658 896 l 1,53,-1
 653 1179 l 1,54,55
 525.909 1179 525.909 1179 436 1121.5 c 0,56,57
 343 1062.02 343 1062.02 343 967 c 0,58,59
 343 898.765 343 898.765 369 865.882 c 0,60,61
 413.977 809 413.977 809 470 809 c 0,50,51
EndSplineSet
EndChar

StartChar: ordmasculine
Encoding: 186 186 91
Width: 1026
Flags: HW
LayerCount: 2
Fore
SplineSet
501.5 678 m 0,0,1
 400 678 400 678 323.5 713 c 128,-1,2
 247 748 247 748 197.5 813 c 0,3,4
 98.9215 942.447 98.9215 942.447 103 1179 c 0,5,6
 107.086 1413.93 107.086 1413.93 216.5 1553 c 0,7,8
 329.794 1697 329.794 1697 525 1697 c 0,9,10
 726.477 1697 726.477 1697 829 1561 c 0,11,12
 926.142 1432.14 926.142 1432.14 922 1194 c 256,13,14
 917.887 957.493 917.887 957.493 810.5 821 c 0,15,16
 697.993 678 697.993 678 501.5 678 c 0,0,1
420.5 824 m 128,-1,18
 460 786 460 786 521 786 c 128,-1,19
 582 786 582 786 615.5 809.5 c 128,-1,20
 649 833 649 833 667.5 880 c 0,21,22
 696.789 954.411 696.789 954.411 698.395 1094.71 c 128,-1,23
 700 1235 700 1235 693 1312 c 128,-1,24
 686 1389 686 1389 665 1451 c 0,25,26
 617.854 1590.19 617.854 1590.19 504 1592 c 0,27,28
 402.669 1593.88 402.669 1593.88 362.5 1495 c 0,29,30
 328.146 1410.44 328.146 1410.44 326 1213 c 0,31,32
 323.607 1028.72 323.607 1028.72 352.303 945.358 c 128,-1,17
 381 862 381 862 420.5 824 c 128,-1,18
EndSplineSet
EndChar

StartChar: divide
Encoding: 247 247 92
Width: 1193
Flags: HW
LayerCount: 2
Fore
SplineSet
175 669 m 1,0,-1
 1035 669 l 1,1,-1
 1016 506 l 1,2,-1
 156 506 l 1,3,-1
 175 669 l 1,0,-1
441 1033 m 256,4,5
 441 1097.6 441 1097.6 488.5 1144 c 0,6,7
 535.595 1190 535.595 1190 601 1190 c 256,8,9
 666.405 1190 666.405 1190 713.5 1144 c 0,10,11
 761 1097.6 761 1097.6 761 1033 c 256,12,13
 761 969 761 969 713.5 921.5 c 0,14,15
 667 875 667 875 601 875 c 256,16,17
 535 875 535 875 488.5 921.5 c 0,18,19
 441 969 441 969 441 1033 c 256,4,5
441 131 m 256,20,21
 441 195.605 441 195.605 488.5 242 c 0,22,23
 535.595 288 535.595 288 601 288 c 256,24,25
 666.405 288 666.405 288 713.5 242 c 0,26,27
 761 195.605 761 195.605 761 131 c 256,28,29
 761 67 761 67 713.5 19.5 c 0,30,31
 667 -27 667 -27 601 -27 c 256,32,33
 535 -27 535 -27 488.5 19.5 c 0,34,35
 441 67 441 67 441 131 c 256,20,21
EndSplineSet
EndChar

StartChar: mu
Encoding: 181 181 93
AltUni2: 0003bc.ffffffff.0
Width: 1537
Flags: HW
LayerCount: 2
Fore
SplineSet
383 26 m 1,0,1
 420.875 -182.314 420.875 -182.314 512 -266 c 1,2,3
 512 -361.171 512 -361.171 471.5 -422.5 c 0,4,5
 436.83 -475 436.83 -475 393 -475 c 0,6,7
 348.804 -475 348.804 -475 299.5 -421.5 c 0,8,9
 243 -360.191 243 -360.191 243 -277 c 2,10,-1
 243 503.5 l 1,11,-1
 246 885 l 1,12,13
 246 1077.36 246 1077.36 203 1136 c 1,14,-1
 495 1192 l 1,15,16
 464 882 464 882 464 408 c 0,17,18
 464 259.297 464 259.297 488 210.649 c 128,-1,19
 512 162 512 162 546.5 141.5 c 128,-1,20
 581 121 581 121 637 121 c 128,-1,21
 693 121 693 121 739 135 c 128,-1,22
 785 149 785 149 823 171.5 c 0,23,24
 889.547 210.903 889.547 210.903 945 276 c 1,25,-1
 943 275 l 1,26,-1
 943 875 l 2,27,28
 943 1073.6 943 1073.6 904 1136 c 1,29,-1
 1173 1192 l 1,30,31
 1158 907 1158 907 1158 663 c 2,32,-1
 1158 283 l 2,33,34
 1158 167.105 1158 167.105 1190.5 150 c 0,35,36
 1200 145 1200 145 1211 145 c 0,37,38
 1300.09 145 1300.09 145 1366 220 c 1,39,-1
 1430 152 l 1,40,41
 1339.42 9.27064 1339.42 9.27064 1182 -31 c 0,42,43
 1139 -42 1139 -42 1103 -42 c 0,44,45
 972.138 -42 972.138 -42 955 137 c 1,46,47
 907.055 72.3791 907.055 72.3791 803.5 19 c 0,48,49
 694.86 -37 694.86 -37 583.43 -37 c 128,-1,50
 472 -37 472 -37 383 26 c 1,0,1
EndSplineSet
EndChar

StartChar: endash
Encoding: 8211 8211 94
Width: 1533
Flags: HW
LayerCount: 2
Fore
SplineSet
189 669 m 1,0,-1
 1364 669 l 1,1,-1
 1344 506 l 1,2,-1
 169 506 l 1,3,-1
 189 669 l 1,0,-1
EndSplineSet
EndChar

StartChar: emdash
Encoding: 8212 8212 95
Width: 2383
Flags: HW
LayerCount: 2
Fore
SplineSet
197 669 m 1,0,-1
 2212 669 l 1,1,-1
 2193 506 l 1,2,-1
 178 506 l 1,3,-1
 197 669 l 1,0,-1
EndSplineSet
EndChar

StartChar: numbersign
Encoding: 35 35 96
Width: 1537
Flags: HW
LayerCount: 2
Fore
SplineSet
409 600 m 1,0,-1
 124 600 l 1,1,-1
 146 731 l 1,2,-1
 433 731 l 1,3,-1
 494 1058 l 1,4,-1
 193 1058 l 1,5,-1
 214 1188 l 1,6,-1
 518 1188 l 1,7,-1
 581 1529 l 1,8,-1
 728 1529 l 1,9,-1
 665 1188 l 1,10,-1
 962 1188 l 1,11,-1
 1025 1529 l 1,12,-1
 1172 1529 l 1,13,-1
 1109 1188 l 1,14,-1
 1410 1188 l 1,15,-1
 1390 1058 l 1,16,-1
 1085 1058 l 1,17,-1
 1025 731 l 1,18,-1
 1339 731 l 1,19,-1
 1320 601 l 1,20,-1
 1001 600 l 1,21,-1
 942 281 l 1,22,-1
 795 281 l 1,23,-1
 854 600 l 1,24,-1
 557 600 l 1,25,-1
 499 281 l 1,26,-1
 350 281 l 1,27,-1
 409 600 l 1,0,-1
878 731 m 1,28,-1
 938 1058 l 1,29,-1
 641 1058 l 1,30,-1
 581 731 l 1,31,-1
 878 731 l 1,28,-1
EndSplineSet
EndChar

StartChar: percent
Encoding: 37 37 97
Width: 2216
Flags: HW
LayerCount: 2
Fore
SplineSet
1367 1545 m 1,0,-1
 1525 1545 l 1,1,-1
 825 0 l 1,2,-1
 668 0 l 1,3,-1
 1367 1545 l 1,0,-1
524.5 660.5 m 0,4,5
 440 662 440 662 372.5 691.5 c 128,-1,6
 305 721 305 721 255 775 c 0,7,8
 146.115 892.595 146.115 892.595 150 1081 c 0,9,10
 154.12 1278.74 154.12 1278.74 273.5 1408.5 c 0,11,12
 398.16 1544 398.16 1544 588 1544 c 0,13,14
 739.939 1544 739.939 1544 859.5 1415.5 c 0,15,16
 976 1290.29 976 1290.29 976 1134 c 0,17,18
 976 909.476 976 909.476 839 779 c 0,19,20
 711.097 657.188 711.097 657.188 524.5 660.5 c 0,4,5
480.5 783.5 m 128,-1,22
 518 755 518 755 564 755 c 128,-1,23
 610 755 610 755 648 779.5 c 128,-1,24
 686 804 686 804 713 848 c 0,25,26
 769 939.259 769 939.259 769 1091 c 0,27,28
 769 1238.2 769 1238.2 710.5 1343.5 c 0,29,30
 650.222 1452 650.222 1452 562 1452 c 0,31,32
 424.213 1452 424.213 1452 376 1279 c 0,33,34
 359 1218 359 1218 359 1134.5 c 128,-1,35
 359 1051 359 1051 374 982 c 128,-1,36
 389 913 389 913 416 862.5 c 128,-1,21
 443 812 443 812 480.5 783.5 c 128,-1,22
1238 407.5 m 0,37,38
 1240 502 1240 502 1272 586 c 128,-1,39
 1304 670 1304 670 1361 732.5 c 0,40,41
 1484.58 868 1484.58 868 1675 868 c 0,42,43
 1826.94 868 1826.94 868 1946.5 739.5 c 0,44,45
 2063 614.29 2063 614.29 2063 458 c 0,46,47
 2063 235.024 2063 235.024 1925 102.5 c 0,48,49
 1796.09 -21.2963 1796.09 -21.2963 1603 -15 c 1,50,51
 1451.42 -8.684 1451.42 -8.684 1346 105 c 0,52,53
 1234.15 225.622 1234.15 225.622 1238 407.5 c 0,37,38
1465 606 m 0,54,55
 1448 545 1448 545 1446 458 c 128,-1,56
 1444 371 1444 371 1458.5 302 c 128,-1,57
 1473 233 1473 233 1500 183.5 c 0,58,59
 1556.45 79.9999 1556.45 79.9999 1650 80 c 0,60,61
 1743.88 80 1743.88 80 1800 172.5 c 0,62,63
 1856 264.796 1856 264.796 1856 416 c 0,64,65
 1856 562.2 1856 562.2 1797.5 667.5 c 0,66,67
 1737.22 776 1737.22 776 1648 776 c 0,68,69
 1512.38 776 1512.38 776 1465 606 c 0,54,55
EndSplineSet
EndChar

StartChar: quotesingle
Encoding: 39 39 98
Width: 683
Flags: HW
LayerCount: 2
Fore
SplineSet
206 1868 m 1,0,-1
 476 1868 l 1,1,-1
 412 1214 l 1,2,-1
 270 1214 l 1,3,-1
 206 1868 l 1,0,-1
EndSplineSet
EndChar

StartChar: quotedbl
Encoding: 34 34 99
Width: 1194
Flags: HW
LayerCount: 2
Fore
SplineSet
680 1868 m 1,0,-1
 950 1868 l 1,1,-1
 886 1214 l 1,2,-1
 744 1214 l 1,3,-1
 680 1868 l 1,0,-1
242 1868 m 1,4,-1
 512 1868 l 1,5,-1
 448 1214 l 1,6,-1
 306 1214 l 1,7,-1
 242 1868 l 1,4,-1
EndSplineSet
EndChar

StartChar: guilsinglleft
Encoding: 8249 8249 101
Width: 1193
Flags: HW
LayerCount: 2
Fore
SplineSet
739 1122 m 1,0,-1
 852 1047 l 1,1,-1
 547 600 l 1,2,-1
 852 151 l 1,3,-1
 736 67 l 1,4,-1
 229 600 l 1,5,-1
 739 1122 l 1,0,-1
EndSplineSet
EndChar

StartChar: degree
Encoding: 176 176 102
Width: 1193
Flags: HW
LayerCount: 2
Fore
SplineSet
595 847 m 256,0,1
 418.155 847 418.155 847 291 972 c 0,2,3
 162 1098.81 162 1098.81 162 1273 c 256,4,5
 162 1447.78 162 1447.78 291 1573.5 c 0,6,7
 418.748 1698 418.748 1698 595 1698 c 256,8,9
 769.67 1698 769.67 1698 898.5 1573.5 c 0,10,11
 1027 1449.32 1027 1449.32 1027 1273 c 256,12,13
 1027 1097.26 1027 1097.26 898.5 972 c 0,14,15
 770.267 847 770.267 847 595 847 c 256,0,1
595 978 m 256,16,17
 708.128 978 708.128 978 789 1061 c 0,18,19
 871 1145.16 871 1145.16 871 1273 c 0,20,21
 871 1399.26 871 1399.26 789 1484.5 c 0,22,23
 708.671 1568 708.671 1568 595 1568 c 256,24,25
 481.329 1568 481.329 1568 401 1484.5 c 0,26,27
 319 1399.26 319 1399.26 319 1273 c 0,28,29
 319 1145.16 319 1145.16 401 1061 c 0,30,31
 481.872 978 481.872 978 595 978 c 256,16,17
EndSplineSet
EndChar

StartChar: logicalnot
Encoding: 172 172 103
Width: 1193
Flags: HW
LayerCount: 2
Fore
SplineSet
176 669 m 1,0,-1
 1026 669 l 1,1,-1
 1026 138 l 1,2,-1
 832 138 l 1,3,-1
 832 506 l 1,4,-1
 157 506 l 1,5,-1
 176 669 l 1,0,-1
EndSplineSet
EndChar

StartChar: slash
Encoding: 47 47 104
Width: 1023
Flags: HW
LayerCount: 2
Fore
SplineSet
799 1668 m 1,0,-1
 957 1668 l 1,1,-1
 220 0 l 1,2,-1
 64 0 l 1,3,-1
 799 1668 l 1,0,-1
EndSplineSet
EndChar

StartChar: bar
Encoding: 124 124 106
Width: 855
Flags: HW
LayerCount: 2
Fore
SplineSet
350 1868 m 1,0,-1
 503 1868 l 1,1,-1
 503 -339 l 1,2,-1
 350 -339 l 1,3,-1
 350 1868 l 1,0,-1
EndSplineSet
EndChar

StartChar: brokenbar
Encoding: 166 166 107
Width: 855
Flags: HW
LayerCount: 2
Fore
SplineSet
350 1868 m 1,0,-1
 503 1868 l 1,1,-1
 503 903 l 1,2,-1
 350 903 l 1,3,-1
 350 1868 l 1,0,-1
350 614 m 1,4,-1
 503 614 l 1,5,-1
 503 -339 l 1,6,-1
 350 -339 l 1,7,-1
 350 614 l 1,4,-1
EndSplineSet
EndChar

StartChar: dollar
Encoding: 36 36 108
Width: 1364
Flags: HW
LayerCount: 2
Fore
SplineSet
174 32 m 1,0,1
 183 128 183 128 183 382 c 2,2,-1
 183 459 l 1,3,-1
 325 459 l 1,4,5
 339.539 286.96 339.539 286.96 399 205 c 0,6,7
 480.255 93 480.255 93 658.127 93 c 128,-1,8
 836 93 836 93 916.5 167 c 128,-1,9
 997 241 997 241 997 370 c 0,10,11
 997 515.091 997 515.091 736.5 633.5 c 0,12,13
 665 666 665 666 593 695.5 c 128,-1,14
 521 725 521 725 447.5 769.5 c 128,-1,15
 374 814 374 814 316.5 870.5 c 0,16,17
 188 996.765 188 996.765 188 1138 c 0,18,19
 188 1301.05 188 1301.05 311 1410.5 c 128,-1,20
 433.94 1519.9 433.94 1519.9 639 1540 c 1,21,-1
 645 1770 l 1,22,-1
 795 1770 l 1,23,-1
 789 1540 l 1,24,25
 806 1538 806 1538 823 1536 c 128,-1,26
 840 1534 840 1534 872.5 1530 c 0,27,28
 986.25 1516 986.25 1516 1048.12 1516 c 128,-1,29
 1110 1516 1110 1516 1175 1529 c 1,30,-1
 1175 1108 l 1,31,-1
 1030 1108 l 1,32,33
 1024.36 1364.61 1024.36 1364.61 844.5 1416 c 0,34,35
 785 1433 785 1433 697 1433 c 128,-1,36
 609 1433 609 1433 547.5 1411 c 128,-1,37
 486 1389 486 1389 451.5 1353 c 0,38,39
 389.392 1288.19 389.392 1288.19 394 1173 c 0,40,41
 399.26 1038.87 399.26 1038.87 616 930.5 c 0,42,43
 677 900 677 900 758.5 864.5 c 128,-1,44
 840 829 840 829 927 781 c 128,-1,45
 1014 733 1014 733 1078 676.5 c 0,46,47
 1214.29 556.183 1214.29 556.183 1218 404 c 1,48,49
 1219.9 210.11 1219.9 210.11 1076 99.5 c 0,50,51
 945.048 -1.15711 945.048 -1.15711 731 -14 c 1,52,-1
 716 -235 l 1,53,-1
 563 -235 l 1,54,-1
 578 -11 l 1,55,56
 543 -7 543 -7 510 -1 c 0,57,58
 387.386 21.6364 387.386 21.6364 345.193 28.8182 c 128,-1,59
 303 36 303 36 260.5 36 c 128,-1,60
 218 36 218 36 182 30 c 1,61,-1
 174 32 l 1,0,1
EndSplineSet
EndChar

StartChar: sterling
Encoding: 163 163 109
Width: 1535
Flags: HW
LayerCount: 2
Fore
SplineSet
1191 208 m 0,0,1
 1191 281.176 1191 281.176 1128 422 c 1,2,-1
 1236 475 l 1,3,4
 1313.37 426.642 1313.37 426.642 1357.5 358 c 0,5,6
 1380 323 1380 323 1380 266.5 c 128,-1,7
 1380 210 1380 210 1352.5 150.5 c 128,-1,8
 1325 91 1325 91 1274 48.5 c 0,9,10
 1167.8 -40 1167.8 -40 986 -40 c 0,11,12
 881.357 -40 881.357 -40 751 33 c 1,13,-1
 701.5 58.5 l 2,14,15
 614.28 103 614.28 103 549.64 103 c 0,16,17
 412.541 103 412.541 103 240 -30 c 0,18,19
 226.412 -41.3232 226.412 -41.3232 189.5 18.5 c 0,20,21
 151.774 79.6425 151.774 79.6425 157 111 c 1,22,-1
 226 144 l 1,23,24
 291.176 171.574 291.176 171.574 327.588 194.787 c 128,-1,25
 364 218 364 218 397.5 246.5 c 128,-1,26
 431 275 431 275 456.5 312 c 0,27,28
 512 392.529 512 392.529 512 505 c 0,29,30
 512 546.087 512 546.087 486 615.043 c 2,31,-1
 448 716 l 1,32,33
 329.761 712.573 329.761 712.573 177 701 c 1,34,-1
 206 845 l 1,35,-1
 302.5 841 l 2,36,37
 351 839 351 839 402 838 c 1,38,39
 346 998.696 346 998.696 346 1096.85 c 128,-1,40
 346 1195 346 1195 381 1281.5 c 128,-1,41
 416 1368 416 1368 482 1432.5 c 0,42,43
 624.744 1572 624.744 1572 858 1572 c 0,44,45
 911.2 1572 911.2 1572 1011.6 1556.5 c 128,-1,46
 1112 1541 1112 1541 1169.5 1495.5 c 128,-1,47
 1227 1450 1227 1450 1227 1387 c 0,48,49
 1227 1311.44 1227 1311.44 1187.5 1243.5 c 0,50,51
 1175 1222 1175 1222 1160 1210 c 1,52,-1
 1041 1210 l 1,53,54
 1041 1306.39 1041 1306.39 1005.5 1355.69 c 0,55,56
 932.727 1456.77 932.727 1456.77 786 1455 c 0,57,58
 708.727 1455 708.727 1455 634.5 1384 c 0,59,60
 554 1307 554 1307 554 1209 c 0,61,62
 554 1103.6 554 1103.6 608 956 c 1,63,-1
 653 836 l 1,64,65
 898.4 836 898.4 836 1100 845 c 1,66,-1
 1072 701 l 1,67,68
 898.953 713.618 898.953 713.618 693 718 c 1,69,70
 724 616.143 724 616.143 724 547.071 c 128,-1,71
 724 478 724 478 704.5 430 c 128,-1,72
 685 382 685 382 653.5 339 c 0,73,74
 596.928 261.775 596.928 261.775 502 190 c 1,75,76
 596.062 233 596.062 233 671.531 233 c 128,-1,77
 747 233 747 233 800 212.5 c 128,-1,78
 853 192 853 192 896.5 170 c 128,-1,79
 940 148 940 148 987.5 129 c 128,-1,80
 1035 110 1035 110 1074 110 c 128,-1,81
 1113 110 1113 110 1131.5 119 c 128,-1,82
 1150 128 1150 128 1163 142.5 c 0,83,84
 1191 173.731 1191 173.731 1191 208 c 0,0,1
EndSplineSet
EndChar

StartChar: yen
Encoding: 165 165 110
Width: 1625
Flags: HW
LayerCount: 2
Fore
SplineSet
1055 107 m 1,0,1
 1135 107 1135 107 1179 119 c 1,2,-1
 1169 0 l 1,3,-1
 466 0 l 1,4,-1
 475 116 l 1,5,-1
 589 112 l 1,6,7
 651.357 112 651.357 112 671.179 130.5 c 0,8,9
 707 163.933 707 163.933 707 242 c 2,10,-1
 706 375 l 1,11,12
 530.945 371.153 530.945 371.153 349 358 c 1,13,-1
 378 502 l 1,14,15
 505.243 495.39 505.243 495.39 706 493 c 1,16,-1
 705 689 l 1,17,-1
 616 690 l 1,18,19
 466.5 690 466.5 690 336 681 c 1,20,-1
 365 825 l 1,21,22
 387 824 387 824 414.5 822 c 128,-1,23
 442 820 442 820 469.5 818 c 128,-1,24
 497 816 497 816 524 813.5 c 2,25,-1
 573 809 l 2,26,27
 584 807 584 807 596 806 c 2,28,-1
 619 804 l 1,29,30
 565 874 565 874 517.5 942 c 0,31,32
 291.127 1267.83 291.127 1267.83 254.064 1316.42 c 128,-1,33
 217 1365 217 1365 199 1378.5 c 128,-1,34
 181 1392 181 1392 159 1399.5 c 0,35,36
 119.4 1413 119.4 1413 46 1413 c 1,37,-1
 61 1529 l 1,38,-1
 714 1529 l 1,39,-1
 688 1413 l 1,40,41
 573.571 1413 573.571 1413 545.286 1404 c 128,-1,42
 517 1395 517 1395 507.5 1381 c 128,-1,43
 498 1367 498 1367 498 1343 c 128,-1,44
 498 1319 498 1319 519 1275 c 128,-1,45
 540 1231 540 1231 579.5 1167.5 c 128,-1,46
 619 1104 619 1104 675 1022.5 c 2,47,-1
 802 841 l 1,48,-1
 823 801 l 1,49,50
 850 848 850 848 881 895.5 c 2,51,-1
 996.5 1070 l 1,52,53
 1134 1273.08 1134 1273.08 1134 1373 c 0,54,55
 1134 1413 1134 1413 1074 1413 c 0,56,57
 1033 1413 1033 1413 973 1401 c 1,58,-1
 988 1529 l 1,59,-1
 1546 1529 l 1,60,-1
 1527 1413 l 1,61,62
 1440.26 1413 1440.26 1413 1397.63 1386 c 128,-1,63
 1355 1359 1355 1359 1327.5 1327 c 128,-1,64
 1300 1295 1300 1295 1269 1247 c 2,65,-1
 983 798 l 1,66,67
 1019 800 1019 800 1055.5 803.5 c 128,-1,68
 1092 807 1092 807 1137.5 811 c 0,69,70
 1255.41 821.366 1255.41 821.366 1339 825 c 1,71,-1
 1311 681 l 1,72,73
 1199.4 690 1199.4 690 1045 690 c 1,74,-1
 938 689 l 1,75,-1
 938 493 l 1,76,77
 1182.5 495.778 1182.5 495.778 1292 502 c 1,78,-1
 1264 358 l 1,79,80
 1103 369.926 1103 369.926 938 374 c 1,81,-1
 938 239 l 2,82,83
 938 149.6 938 149.6 947 132.8 c 0,84,85
 961.357 106 961.357 106 1019 106 c 1,86,-1
 1055 107 l 1,0,1
EndSplineSet
EndChar

StartChar: at
Encoding: 64 64 111
Width: 2048
Flags: HW
LayerCount: 2
Fore
SplineSet
1622 122 m 1,0,1
 1683 91.5 1683 91.5 1683 54 c 0,2,3
 1683 40 1683 40 1666 26 c 0,4,5
 1409.38 -170 1409.38 -170 1023 -170 c 0,6,7
 629.205 -170 629.205 -170 396.5 0 c 0,8,9
 123.564 199.39 123.564 199.39 132 624 c 1,10,11
 135.979 882.61 135.979 882.61 262 1098.5 c 0,12,13
 455.597 1430.15 455.597 1430.15 846.5 1530.5 c 0,14,15
 977 1564 977 1564 1147.5 1564 c 128,-1,16
 1318 1564 1318 1564 1464 1519 c 128,-1,17
 1610 1474 1610 1474 1708 1396 c 0,18,19
 1905 1239.2 1905 1239.2 1905 989 c 0,20,21
 1905 689.474 1905 689.474 1760.5 469 c 0,22,23
 1660.01 315.672 1660.01 315.672 1500.5 255 c 0,24,25
 1419 224 1419 224 1321 225 c 0,26,27
 1228 225 1228 225 1165 297 c 0,28,29
 1144 321 1144 321 1133 354 c 1,30,31
 981.444 244 981.444 244 822 244 c 0,32,33
 722.5 244 722.5 244 639.5 328 c 0,34,35
 493.157 476.106 493.157 476.106 583 756 c 0,36,37
 659.33 993.798 659.33 993.798 858 1113 c 0,38,39
 981.333 1187 981.333 1187 1107 1187 c 0,40,41
 1223 1187 1223 1187 1311 1121 c 1,42,43
 1331 1123 1331 1123 1360 1126.5 c 2,44,-1
 1415.5 1133.5 l 2,45,46
 1479.47 1141.95 1479.47 1141.95 1484.74 1148.97 c 128,-1,47
 1490 1156 1490 1156 1489 1137.5 c 128,-1,48
 1488 1119 1488 1119 1480 1080.5 c 128,-1,49
 1472 1042 1472 1042 1458.5 988.5 c 2,50,-1
 1399 758 l 2,51,52
 1383 699 1383 699 1375 666 c 128,-1,53
 1367 633 1367 633 1362.5 616.5 c 128,-1,54
 1358 600 1358 600 1351 569 c 0,55,56
 1332 484.857 1332 484.857 1332 438.929 c 128,-1,57
 1332 393 1332 393 1347 380 c 128,-1,58
 1362 367 1362 367 1406 367 c 128,-1,59
 1450 367 1450 367 1497.5 393.5 c 128,-1,60
 1545 420 1545 420 1581 465 c 128,-1,61
 1617 510 1617 510 1642 569.5 c 128,-1,62
 1667 629 1667 629 1683 695 c 0,63,64
 1714 822.875 1714 822.875 1714 946.438 c 128,-1,65
 1714 1070 1714 1070 1676.5 1158 c 128,-1,66
 1639 1246 1639 1246 1564 1308 c 0,67,68
 1407.95 1437 1407.95 1437 1116 1437 c 0,69,70
 763.546 1437 763.546 1437 543.5 1203 c 0,71,72
 332.217 978.318 332.217 978.318 324 625 c 1,73,74
 318.217 312.697 318.217 312.697 521.5 132 c 0,75,76
 712.75 -38 712.75 -38 1023 -38 c 0,77,78
 1335.45 -38 1335.45 -38 1532.5 61.5 c 0,79,80
 1583 87 1583 87 1622 122 c 1,0,1
1263 1041 m 1,81,82
 1207.8 1064 1207.8 1064 1126.4 1064 c 128,-1,83
 1045 1064 1045 1064 980 1024 c 128,-1,84
 915 984 915 984 868.5 918.5 c 0,85,86
 773.596 784.818 773.596 784.818 765 600 c 0,87,88
 761.217 514.885 761.217 514.885 809 458 c 0,89,90
 852.68 406 852.68 406 921.84 406 c 0,91,92
 1043.31 406 1043.31 406 1127 474 c 1,93,94
 1130.6 510 1130.6 510 1135.8 537.5 c 2,95,-1
 1144 581 l 1,96,-1
 1263 1041 l 1,81,82
EndSplineSet
EndChar

StartChar: asciicircum
Encoding: 94 94 112
Width: 1364
Flags: HW
LayerCount: 2
Fore
SplineSet
577 1530 m 1,0,-1
 793 1530 l 1,1,-1
 1166 562 l 1,2,-1
 969 562 l 1,3,-1
 676 1325 l 1,4,-1
 371 562 l 1,5,-1
 194 562 l 1,6,-1
 577 1530 l 1,0,-1
EndSplineSet
EndChar

StartChar: underscore
Encoding: 95 95 113
Width: 1533
Flags: HW
LayerCount: 2
Fore
SplineSet
1560 -165 m 1,0,-1
 1541 -311 l 1,1,-1
 -37 -311 l 1,2,-1
 -18 -165 l 1,3,-1
 1560 -165 l 1,0,-1
EndSplineSet
EndChar

StartChar: section
Encoding: 167 167 114
Width: 1320
Flags: HW
LayerCount: 2
Fore
SplineSet
806 -144 m 128,-1,1
 722 -171 722 -171 657.933 -171 c 128,-1,2
 593.867 -171 593.867 -171 503.1 -164 c 128,-1,3
 412.333 -157 412.333 -157 348.667 -157 c 128,-1,4
 285 -157 285 -157 249 -160 c 1,5,-1
 282 202 l 1,6,-1
 397 210 l 1,7,8
 417.312 53.5987 417.312 53.5987 465.5 -5.5 c 0,9,10
 515.646 -67 515.646 -67 611.823 -67 c 128,-1,11
 708 -67 708 -67 758.5 -50.5 c 128,-1,12
 809 -34 809 -34 837.5 -5.5 c 0,13,14
 887 44 887 44 887 143 c 0,15,16
 887 292.111 887 292.111 756.5 363 c 0,17,18
 716 385 716 385 662 403.5 c 2,19,-1
 549.5 442.5 l 2,20,21
 342.694 514.971 342.694 514.971 262 603 c 0,22,23
 192 679.364 192 679.364 192 789 c 0,24,25
 192 942.419 192 942.419 340 1057 c 1,26,27
 228 1177.78 228 1177.78 228 1332 c 0,28,29
 228 1491.46 228 1491.46 361 1595.5 c 0,30,31
 493.309 1699 493.309 1699 687 1699 c 0,32,33
 713 1699 713 1699 742 1697 c 2,34,-1
 801 1693 l 1,35,36
 902.333 1685 902.333 1685 964.167 1685 c 128,-1,37
 1026 1685 1026 1685 1062 1688 c 1,38,-1
 1030 1326 l 1,39,-1
 916 1318 l 1,40,41
 895.559 1475.4 895.559 1475.4 848.5 1534 c 0,42,43
 798.712 1596 798.712 1596 701.356 1596 c 128,-1,44
 604 1596 604 1596 554 1575 c 128,-1,45
 504 1554 504 1554 475.5 1522.5 c 0,46,47
 426 1467.79 426 1467.79 426 1395.39 c 128,-1,48
 426 1323 426 1323 442.5 1279 c 128,-1,49
 459 1235 459 1235 488 1203 c 0,50,51
 538.642 1147.12 538.642 1147.12 638.321 1114.06 c 1,52,-1
 823.5 1050 l 1,53,54
 1008.97 982.755 1008.97 982.755 1082.5 872 c 0,55,56
 1123 811 1123 811 1123 721 c 0,57,58
 1123 567.042 1123 567.042 962 465 c 1,59,60
 1083 346.241 1083 346.241 1083 196 c 0,61,62
 1083 36.7724 1083 36.7724 951.5 -68 c 0,63,0
 890 -117 890 -117 806 -144 c 128,-1,1
854 547 m 1,64,65
 926 592 926 592 926 646 c 128,-1,66
 926 700 926 700 895.5 738 c 128,-1,67
 865 776 865 776 814 806.5 c 128,-1,68
 763 837 763 837 695.5 863 c 2,69,-1
 554 917 l 1,70,71
 495 938 495 938 442 973 c 1,72,73
 366.792 905.313 366.792 905.313 383 834 c 1,74,75
 403.409 734.505 403.409 734.505 533.5 679 c 0,76,77
 571 663 571 663 610.5 649.5 c 2,78,-1
 689 623.5 l 2,79,80
 772.054 596.88 772.054 596.88 854 547 c 1,64,65
EndSplineSet
EndChar

StartChar: Euro
Encoding: 8364 8364 115
Width: 1535
Flags: HW
LayerCount: 2
Fore
SplineSet
1402 343 m 1,0,1
 1425 299.3 1425 299.3 1425 189 c 0,2,3
 1425 81.7299 1425 81.7299 1274.5 29 c 0,4,5
 1148.92 -15 1148.92 -15 932 -15 c 0,6,7
 694.977 -15 694.977 -15 515.5 107.5 c 0,8,9
 304.484 251.527 304.484 251.527 243 531 c 1,10,11
 196 529 196 529 150.5 526 c 2,12,-1
 60 520 l 1,13,-1
 89 665 l 1,14,-1
 224 659 l 1,15,16
 219 724 219 724 219 765 c 128,-1,17
 219 806 219 806 224 871 c 1,18,-1
 106 863 l 1,19,-1
 135 1008 l 1,20,21
 163 1006 163 1006 191 1005 c 2,22,-1
 248 1003 l 1,23,24
 314.078 1257.3 314.078 1257.3 516 1400.5 c 0,25,26
 718.345 1544 718.345 1544 1009 1544 c 0,27,28
 1148.9 1544 1148.9 1544 1281 1498.5 c 0,29,30
 1437 1444.77 1437 1444.77 1437 1359 c 0,31,32
 1437 1283.75 1437 1283.75 1400 1219 c 0,33,34
 1388 1198 1388 1198 1373 1186 c 1,35,-1
 1251 1186 l 1,36,37
 1251 1342.2 1251 1342.2 1101.5 1402 c 0,38,39
 1039 1427 1039 1427 946 1427 c 128,-1,40
 853 1427 853 1427 780.5 1398.5 c 128,-1,41
 708 1370 708 1370 649 1315.5 c 0,42,43
 526.95 1202.76 526.95 1202.76 485 999 c 1,44,-1
 572 999 l 2,45,46
 823.8 999 823.8 999 1029 1008 c 1,47,-1
 1001 863 l 1,48,49
 744.5 881 744.5 881 637.75 881 c 2,50,-1
 510.5 881 l 2,51,52
 490 881 490 881 469 880 c 1,53,54
 467 844 467 844 467 785 c 128,-1,55
 467 726 467 726 475 656 c 1,56,-1
 526 656 l 2,57,58
 777.8 656 777.8 656 983 665 c 1,59,-1
 955 520 l 1,60,61
 700.75 538 700.75 538 506 538 c 2,62,-1
 495 538 l 1,63,64
 544.636 324.182 544.636 324.182 670.5 208 c 0,65,66
 785.333 102 785.333 102 934 102 c 0,67,68
 1117.58 102 1117.58 102 1210 188.5 c 0,69,70
 1279 253.077 1279 253.077 1279 343 c 1,71,-1
 1402 343 l 1,0,1
EndSplineSet
EndChar

StartChar: acute
Encoding: 180 180 116
Width: 1287
Flags: HW
LayerCount: 2
Fore
SplineSet
584 1416 m 1,0,-1
 1016 1760 l 1,1,-1
 1138 1590 l 1,2,-1
 657 1303 l 1,3,-1
 584 1416 l 1,0,-1
EndSplineSet
EndChar

StartChar: ae
Encoding: 230 230 117
Width: 1912
Flags: HW
LayerCount: 2
Fore
SplineSet
1325 -17 m 0,0,1
 1028.11 -17 1028.11 -17 915 201 c 1,2,3
 854.083 107.593 854.083 107.593 733.5 42.5 c 0,4,5
 536.615 -63.7833 536.615 -63.7833 346.5 0.5 c 0,6,7
 207.573 47.4753 207.573 47.4753 155.5 170 c 0,8,9
 130 230 130 230 130 314 c 128,-1,10
 130 398 130 398 184 469 c 128,-1,11
 238 540 238 540 332 587 c 0,12,13
 520 681 520 681 831 681 c 2,14,-1
 844 681 l 1,15,-1
 844 683 l 2,16,17
 844 770 844 770 841.5 840.5 c 128,-1,18
 839 911 839 911 814.5 956 c 128,-1,19
 790 1001 790 1001 755 1028 c 0,20,21
 690.185 1078 690.185 1078 592.593 1078 c 128,-1,22
 495 1078 495 1078 433.5 1028 c 128,-1,23
 372 978 372 978 372 882 c 0,24,25
 372 839 372 839 380 807 c 1,26,-1
 204 807 l 1,27,28
 189.209 812.916 189.209 812.916 179.605 895.958 c 128,-1,29
 170 979 170 979 170 994.5 c 0,30,31
 170 1016 170 1016 178 1026 c 1,32,-1
 264.5 1080.5 l 1,33,34
 474.587 1209 474.587 1209 704.428 1209 c 128,-1,35
 934.269 1209 934.269 1209 1007 1031 c 1,36,37
 1159.57 1209 1159.57 1209 1368 1209 c 0,38,39
 1794 1209 1794 1209 1794 713 c 0,40,41
 1794 586 1794 586 1764 586 c 2,42,-1
 1036 586 l 1,43,44
 1036 376 1036 376 1125.5 267.5 c 128,-1,45
 1215 159 1215 159 1382 156 c 1,46,47
 1572.9 168.87 1572.9 168.87 1731 254 c 1,48,-1
 1776 167 l 1,49,50
 1625.81 41.8445 1625.81 41.8445 1431 -3.5 c 0,51,52
 1373 -17 1373 -17 1325 -17 c 0,0,1
1562 714 m 1,53,54
 1563 735 1563 735 1563 746.5 c 2,55,-1
 1563 779 l 2,56,57
 1563 1013.25 1563 1013.25 1427 1068.5 c 0,58,59
 1379 1088 1379 1088 1318 1088 c 128,-1,60
 1257 1088 1257 1088 1207 1053.5 c 128,-1,61
 1157 1019 1157 1019 1119.5 962.5 c 0,62,63
 1036 836.693 1036 836.693 1036 690 c 1,64,-1
 1562 714 l 1,53,54
843 571 m 1,65,66
 829 575 829 575 774 575 c 128,-1,67
 719 575 719 575 635 557.5 c 128,-1,68
 551 540 551 540 489 507 c 0,69,70
 356 436.21 356 436.21 356 317 c 0,71,72
 356 233.538 356 233.538 410 178.5 c 0,73,74
 465.434 122 465.434 122 553 122 c 0,75,76
 660.293 122 660.293 122 773.5 220 c 0,77,78
 807 249 807 249 833 281 c 1,79,80
 837 370 837 370 839 440.5 c 128,-1,81
 841 511 841 511 843 571 c 1,65,66
EndSplineSet
EndChar

StartChar: tilde
Encoding: 732 732 118
Width: 1020
Flags: HW
LayerCount: 2
Fore
SplineSet
107 1504 m 1,0,1
 110 1517 110 1517 129 1548 c 128,-1,2
 148 1579 148 1579 182.5 1611 c 0,3,4
 269.828 1692 269.828 1692 377 1692 c 0,5,6
 431 1692 431 1692 474.5 1670 c 128,-1,7
 518 1648 518 1648 552 1625.5 c 0,8,9
 637.378 1569 637.378 1569 666.189 1569 c 128,-1,10
 695 1569 695 1569 714 1575 c 128,-1,11
 733 1581 733 1581 750.5 1594 c 0,12,13
 781.269 1616.86 781.269 1616.86 825 1671 c 1,14,-1
 914 1574 l 1,15,16
 903.2 1527.2 903.2 1527.2 856.6 1480.6 c 0,17,18
 761 1385 761 1385 653 1385 c 0,19,20
 608 1385 608 1385 563 1407 c 128,-1,21
 518 1429 518 1429 479.5 1451.5 c 0,22,23
 381.111 1509 381.111 1509 353.056 1509 c 128,-1,24
 325 1509 325 1509 306.5 1502.5 c 128,-1,25
 288 1496 288 1496 270 1483.5 c 0,26,27
 241.752 1463.88 241.752 1463.88 195 1406 c 1,28,-1
 107 1504 l 1,0,1
EndSplineSet
EndChar

StartChar: dieresis
Encoding: 168 168 119
Width: 1025
Flags: HW
LayerCount: 2
Fore
SplineSet
638.5 1440.5 m 128,-1,1
 594 1482.83 594 1482.83 594 1527.91 c 128,-1,2
 594 1573 594 1573 606 1601 c 128,-1,3
 618 1629 618 1629 638.5 1649.5 c 0,4,5
 682 1693 682 1693 749 1693 c 0,6,7
 811 1693 811 1693 854.5 1649.5 c 128,-1,8
 898 1606 898 1606 898 1541 c 0,9,10
 898 1481.88 898 1481.88 854.5 1440.5 c 0,11,12
 809.82 1398 809.82 1398 762.91 1398 c 0,13,0
 683.18 1398 683.18 1398 638.5 1440.5 c 128,-1,1
125 1527.38 m 128,-1,15
 125 1573 125 1573 137 1601 c 128,-1,16
 149 1629 149 1629 170.5 1649.5 c 0,17,18
 216.122 1693 216.122 1693 283 1693 c 0,19,20
 346.122 1693 346.122 1693 387.5 1649.5 c 128,-1,21
 429 1605.87 429 1605.87 429 1541 c 0,22,23
 429 1482 429 1482 387.5 1440.5 c 0,24,25
 345 1398 345 1398 297.5 1398 c 0,26,27
 217.359 1398 217.359 1398 171.179 1439.88 c 128,-1,14
 125 1481.77 125 1481.77 125 1527.38 c 128,-1,15
EndSplineSet
EndChar

StartChar: asciitilde
Encoding: 126 126 122
Width: 1024
Flags: HW
LayerCount: 2
Fore
SplineSet
712.3 616 m 128,-1,1
 764.6 616 764.6 616 843 700 c 1,2,-1
 906 595 l 1,3,4
 891.467 561.09 891.467 561.09 846.734 524.045 c 0,5,6
 752.491 446 752.491 446 659 446 c 0,7,8
 608.885 446 608.885 446 529.5 494 c 0,9,10
 527.392 495.275 527.392 495.275 477.196 524.137 c 128,-1,11
 427 553 427 553 405.5 563 c 0,12,13
 358.2 585 358.2 585 327.6 585 c 128,-1,14
 297 585 297 585 281.5 580.5 c 128,-1,15
 266 576 266 576 249.5 566 c 0,16,17
 222.563 549.675 222.563 549.675 174 499 c 1,18,-1
 110 605 l 1,19,20
 113 612 113 612 133 636 c 128,-1,21
 153 660 153 660 186 686 c 0,22,23
 272.308 754 272.308 754 359 754 c 0,24,25
 419.483 754 419.483 754 513 697.5 c 0,26,27
 563.268 667.13 563.268 667.13 611.634 641.565 c 128,-1,0
 660 616 660 616 712.3 616 c 128,-1,1
EndSplineSet
EndChar

StartChar: cedilla
Encoding: 184 184 123
Width: 1707
Flags: HW
LayerCount: 2
Fore
SplineSet
558 -501.5 m 128,-1,1
 512 -515 512 -515 424.8 -515 c 128,-1,2
 337.6 -515 337.6 -515 273 -496 c 1,3,-1
 285 -328 l 1,4,-1
 296 -326 l 1,5,6
 366 -354 366 -354 425.5 -354 c 128,-1,7
 485 -354 485 -354 504 -347.5 c 128,-1,8
 523 -341 523 -341 535.5 -330.5 c 0,9,10
 557.547 -311.98 557.547 -311.98 559.774 -285.49 c 0,11,12
 563.137 -245.467 563.137 -245.467 512 -202 c 1,13,14
 471.736 -165.091 471.736 -165.091 456 -99 c 0,15,16
 444.73 -51.6667 444.73 -51.6667 466.5 -16.5 c 0,17,18
 473 -6 473 -6 483 8.5 c 2,19,-1
 507 44 l 1,20,-1
 588 44 l 1,21,22
 578 23 578 23 578 -4 c 0,23,24
 578 -52.5172 578 -52.5172 647 -112 c 1,25,26
 751.48 -199.066 751.48 -199.066 746 -284 c 0,27,28
 738.591 -393.288 738.591 -393.288 644.5 -459.5 c 0,29,0
 604 -488 604 -488 558 -501.5 c 128,-1,1
EndSplineSet
EndChar

StartChar: dotlessi
Encoding: 305 305 124
Width: 683
Flags: HW
LayerCount: 2
Fore
SplineSet
509 1210 m 1,0,1
 464 1079.5 464 1079.5 464 698 c 1,2,-1
 471 232 l 2,3,4
 471 171 471 171 490 138.5 c 128,-1,5
 509 106 509 106 566 106 c 0,6,7
 612 106 612 106 648 118 c 1,8,-1
 634 0 l 1,9,-1
 97 0 l 1,10,-1
 115 106 l 1,11,12
 213.038 106 213.038 106 248 160.5 c 0,13,14
 277 205.706 277 205.706 277 313 c 2,15,-1
 277 836 l 2,16,17
 277 961.196 277 961.196 233 998.5 c 0,18,19
 198.205 1028 198.205 1028 79 1028 c 1,20,-1
 95 1154 l 1,21,-1
 509 1210 l 1,0,1
EndSplineSet
EndChar

StartChar: igrave
Encoding: 236 236 126
Width: 690
Flags: HW
LayerCount: 2
Fore
SplineSet
-38 1590 m 1,0,-1
 83 1760 l 1,1,-1
 464 1416 l 1,2,-1
 392 1303 l 1,3,-1
 -38 1590 l 1,0,-1
510 1212 m 1,4,5
 465 1081.5 465 1081.5 465 700 c 1,6,-1
 472 234 l 2,7,8
 472 173 472 173 491 140.5 c 128,-1,9
 510 108 510 108 567 108 c 0,10,11
 613 108 613 108 649 120 c 1,12,-1
 635 2 l 1,13,-1
 98 2 l 1,14,-1
 116 108 l 1,15,16
 214.038 108 214.038 108 249 162.5 c 0,17,18
 278 207.706 278 207.706 278 315 c 2,19,-1
 278 838 l 2,20,21
 278 963.196 278 963.196 234 1000.5 c 0,22,23
 199.205 1030 199.205 1030 80 1030 c 1,24,-1
 96 1156 l 1,25,-1
 510 1212 l 1,4,5
EndSplineSet
EndChar

StartChar: idieresis
Encoding: 239 239 129
Width: 690
Flags: HW
LayerCount: 2
Fore
SplineSet
410 1527.64 m 128,-1,1
 410 1573 410 1573 422 1601 c 128,-1,2
 434 1629 434 1629 455 1649.5 c 0,3,4
 499.561 1693 499.561 1693 566 1693 c 0,5,6
 628.561 1693 628.561 1693 671 1649.5 c 0,7,8
 714 1605.43 714 1605.43 714 1541 c 0,9,10
 714 1482.43 714 1482.43 671 1440.5 c 0,11,12
 627.41 1398 627.41 1398 580.205 1398 c 0,13,14
 500.769 1398 500.769 1398 455.385 1440.14 c 128,-1,0
 410 1482.29 410 1482.29 410 1527.64 c 128,-1,1
203 1409.5 m 128,-1,16
 176 1398 176 1398 144 1398 c 128,-1,17
 112 1398 112 1398 83 1409.5 c 128,-1,18
 54 1421 54 1421 33 1440.5 c 0,19,20
 -12 1482.29 -12 1482.29 -12 1527.64 c 128,-1,21
 -12 1573 -12 1573 0 1601 c 128,-1,22
 12 1629 12 1629 33 1649.5 c 0,23,24
 77.561 1693 77.561 1693 145 1693 c 0,25,26
 242.714 1693 242.714 1693 280.5 1601 c 0,27,28
 292 1573 292 1573 292 1542.5 c 128,-1,29
 292 1512 292 1512 280.5 1486 c 128,-1,30
 269 1460 269 1460 249.5 1440.5 c 128,-1,15
 230 1421 230 1421 203 1409.5 c 128,-1,16
510 1212 m 1,31,32
 465 1081.5 465 1081.5 465 700 c 1,33,-1
 472 234 l 2,34,35
 472 173 472 173 491 140.5 c 128,-1,36
 510 108 510 108 567 108 c 0,37,38
 613 108 613 108 649 120 c 1,39,-1
 635 2 l 1,40,-1
 98 2 l 1,41,-1
 116 108 l 1,42,43
 214.038 108 214.038 108 249 162.5 c 0,44,45
 278 207.706 278 207.706 278 315 c 2,46,-1
 278 838 l 2,47,48
 278 963.196 278 963.196 234 1000.5 c 0,49,50
 199.205 1030 199.205 1030 80 1030 c 1,51,-1
 96 1156 l 1,52,-1
 510 1212 l 1,31,32
EndSplineSet
EndChar

StartChar: kgreenlandic
Encoding: 312 312 131
Width: 1191
Flags: HW
LayerCount: 2
Fore
SplineSet
1158 1190 m 1,0,1
 1155.57 1139 1155.57 1139 1147 1079 c 1,2,-1
 1119 1079 l 1,3,4
 1066.5 1076.5 1066.5 1076.5 1003.5 1031.5 c 2,5,-1
 970 1007 l 2,6,7
 937 983 937 983 898.5 950.5 c 0,8,9
 798.878 863.249 798.878 863.249 755.939 822.125 c 0,10,11
 664.389 733.583 664.389 733.583 644.695 713.291 c 2,12,-1
 624 692 l 1,13,-1
 913.5 302 l 1,14,-1
 968 233 l 1,15,16
 1077.53 109 1077.53 109 1165 109 c 0,17,18
 1178 109 1178 109 1210 113 c 1,19,-1
 1196 0 l 1,20,-1
 896 0 l 2,21,22
 846.937 0 846.937 0 687 229 c 1,23,-1
 485.5 524 l 1,24,-1
 440 586 l 2,25,26
 420 612 420 612 407 623 c 1,27,-1
 408 238 l 2,28,29
 408 146.667 408 146.667 418 129.333 c 128,-1,30
 428 112 428 112 441 109 c 128,-1,31
 454 106 454 106 472 106 c 0,32,33
 503.6 106 503.6 106 554 118 c 1,34,-1
 541 0 l 1,35,-1
 39 0 l 1,36,-1
 56 106 l 1,37,38
 139.222 106 139.222 106 171.5 147.5 c 0,39,40
 204.005 189.292 204.005 189.292 206 301 c 1,41,-1
 206 829 l 2,42,43
 206 948.643 206 948.643 177 988 c 0,44,45
 148.111 1028 148.111 1028 43 1028 c 1,46,-1
 59 1154 l 1,47,-1
 416 1210 l 1,48,49
 406 1126.67 406 1126.67 406 1024 c 2,50,-1
 407 641 l 1,51,52
 609.688 830.332 609.688 830.332 666.844 895.166 c 0,53,54
 766 1007.64 766 1007.64 766 1034 c 256,55,56
 766 1078 766 1078 673 1078 c 0,57,58
 669 1078 669 1078 662.5 1078.5 c 128,-1,59
 656 1079 656 1079 654 1079 c 1,60,-1
 667 1190 l 1,61,-1
 1158 1190 l 1,0,1
EndSplineSet
EndChar

StartChar: lslash
Encoding: 322 322 133
Width: 683
Flags: HW
LayerCount: 2
Fore
SplineSet
476 1707 m 1,0,1
 455 1598.5 455 1598.5 455 1269 c 2,2,-1
 455 985 l 1,3,-1
 651 1058 l 1,4,-1
 691 907 l 1,5,-1
 456 819 l 1,6,-1
 457 240 l 2,7,8
 457 158.278 457 158.278 469.5 138.139 c 0,9,10
 488.207 108 488.207 108 536 108 c 0,11,12
 603.5 108 603.5 108 653 119 c 1,13,-1
 637 2 l 1,14,-1
 58 2 l 1,15,-1
 75 108 l 1,16,17
 179.062 108 179.062 108 208.531 131 c 128,-1,18
 238 154 238 154 246.5 178.5 c 128,-1,19
 255 203 255 203 255 239 c 2,20,-1
 255 743 l 1,21,-1
 86 680 l 1,22,-1
 46 832 l 1,23,-1
 255 910 l 1,24,-1
 255 1367 l 2,25,26
 255 1452 255 1452 244.5 1473 c 128,-1,27
 234 1494 234 1494 225.5 1504.5 c 128,-1,28
 217 1515 217 1515 199.5 1521.5 c 128,-1,29
 182 1528 182 1528 159 1530.5 c 0,30,31
 126.8 1534 126.8 1534 53 1534 c 1,32,-1
 65 1648 l 1,33,-1
 476 1707 l 1,0,1
EndSplineSet
EndChar

StartChar: oe
Encoding: 339 339 136
Width: 2103
Flags: HW
LayerCount: 2
Fore
SplineSet
1495 -17 m 0,0,1
 1200.61 -17 1200.61 -17 1073 195 c 1,2,3
 992 95 992 95 875.5 40 c 128,-1,4
 759 -15 759 -15 625.5 -15 c 128,-1,5
 492 -15 492 -15 394 32 c 128,-1,6
 296 79 296 79 230 161 c 0,7,8
 98 325 98 325 98 595 c 0,9,10
 98 872.952 98 872.952 282 1046 c 0,11,12
 455.316 1209 455.316 1209 703 1209 c 0,13,14
 846 1209 846 1209 953 1152.5 c 128,-1,15
 1060 1096 1060 1096 1125 998 c 1,16,17
 1241.8 1150.74 1241.8 1150.74 1422 1195 c 0,18,19
 1479 1209 1479 1209 1563.5 1209 c 128,-1,20
 1648 1209 1648 1209 1730 1177 c 128,-1,21
 1812 1145 1812 1145 1866.5 1083 c 0,22,23
 1976 958.431 1976 958.431 1976 723 c 2,24,-1
 1976 713 l 2,25,26
 1976 586 1976 586 1946 586 c 2,27,-1
 1197 586 l 1,28,29
 1197 377 1197 377 1289.5 268 c 128,-1,30
 1382 159 1382 159 1552 156 c 1,31,32
 1750.67 169.545 1750.67 169.545 1900 251 c 1,33,-1
 1945 167 l 1,34,35
 1793.98 41.149 1793.98 41.149 1600.5 -3.5 c 0,36,37
 1542 -17 1542 -17 1495 -17 c 0,0,1
1749 779 m 2,38,39
 1749 1088 1749 1088 1481 1088 c 0,40,41
 1373.19 1088 1373.19 1088 1284.5 962.5 c 0,42,43
 1197 838.679 1197 838.679 1197 690 c 1,44,-1
 1748 714 l 1,45,46
 1749 735 1749 735 1749 746.5 c 2,47,-1
 1749 779 l 2,38,39
523.5 154 m 128,-1,49
 588 112 588 112 663 112 c 128,-1,50
 738 112 738 112 796 139 c 128,-1,51
 854 166 854 166 896.5 221.5 c 0,52,53
 987 339.682 987 339.682 987 566 c 0,54,55
 987 788.828 987 788.828 896.5 935.5 c 0,56,57
 802.404 1088 802.404 1088 650 1088 c 0,58,59
 510.875 1088 510.875 1088 421.5 978 c 0,60,61
 322 855.538 322 855.538 322 631 c 0,62,63
 322 413.678 322 413.678 414 267.5 c 0,64,48
 459 196 459 196 523.5 154 c 128,-1,49
EndSplineSet
EndChar

StartChar: oslash
Encoding: 248 248 141
Width: 1365
Flags: HW
LayerCount: 2
Fore
SplineSet
797 9 m 128,-1,1
 719 -13 719 -13 645.917 -13 c 128,-1,2
 572.833 -13 572.833 -13 510 0 c 1,3,-1
 447 -168 l 1,4,-1
 297 -168 l 1,5,-1
 379 48 l 1,6,7
 180.45 157.647 180.45 157.647 127.5 424 c 0,8,9
 111 507 111 507 111 624 c 128,-1,10
 111 741 111 741 161 854.5 c 128,-1,11
 211 968 211 968 295 1047.5 c 0,12,13
 467.755 1211 467.755 1211 720 1211 c 0,14,15
 777 1211 777 1211 829 1201 c 1,16,-1
 889 1359 l 1,17,-1
 1040 1359 l 1,18,-1
 963 1158 l 1,19,20
 1167.48 1058.77 1167.48 1058.77 1225.5 811 c 0,21,22
 1244 732 1244 732 1244 640.5 c 128,-1,23
 1244 549 1244 549 1222.5 463 c 128,-1,24
 1201 377 1201 377 1161 304 c 128,-1,25
 1121 231 1121 231 1065.5 172 c 128,-1,26
 1010 113 1010 113 942.5 72 c 128,-1,0
 875 31 875 31 797 9 c 128,-1,1
680 114 m 0,27,28
 756 114 756 114 814.5 141 c 128,-1,29
 873 168 873 168 916.5 223.5 c 0,30,31
 1010 342.793 1010 342.793 1010 568 c 0,32,33
 1010 807.652 1010 807.652 917.5 949 c 0,34,35
 825.228 1090 825.228 1090 665 1090 c 0,36,37
 524.393 1090 524.393 1090 436 980 c 0,38,39
 339 859.289 339 859.289 339 633 c 0,40,41
 339 397.809 339 397.809 429.5 258.5 c 0,42,43
 523.372 114 523.372 114 680 114 c 0,27,28
EndSplineSet
EndChar

StartChar: germandbls
Encoding: 223 223 143
Width: 1535
Flags: HW
LayerCount: 2
Fore
SplineSet
992 -14 m 0,0,1
 877 -14 877 -14 679 41 c 1,2,-1
 692 344 l 1,3,-1
 825 344 l 1,4,5
 827.645 140.338 827.645 140.338 955 108.5 c 0,6,7
 993 99 993 99 1037 99 c 0,8,9
 1136 99 1136 99 1184 146.5 c 128,-1,10
 1232 194 1232 194 1232 264 c 128,-1,11
 1232 334 1232 334 1211.5 372 c 128,-1,12
 1191 410 1191 410 1158 439 c 0,13,14
 1112.77 478.744 1112.77 478.744 1029.89 518.372 c 128,-1,15
 947 558 947 558 900.5 585 c 128,-1,16
 854 612 854 612 818 649 c 0,17,18
 738 731.222 738 731.222 738 857 c 0,19,20
 738 934.079 738 934.079 768.5 983.039 c 128,-1,21
 799 1032 799 1032 823.5 1058.5 c 2,22,-1
 874 1112 l 1,23,24
 948.4 1186.4 948.4 1186.4 974.2 1230.2 c 0,25,26
 1027 1319.84 1027 1319.84 1027 1420 c 0,27,28
 1027 1504.98 1027 1504.98 975 1569.5 c 0,29,30
 911.731 1648 911.731 1648 804 1648 c 0,31,32
 733 1648 733 1648 678 1625.5 c 128,-1,33
 623 1603 623 1603 585.5 1541 c 0,34,35
 509 1414.52 509 1414.52 509 1081 c 2,36,-1
 509 874 l 2,37,38
 509 418 509 418 506 291 c 2,39,-1
 502 122 l 2,40,41
 499 23 499 23 496 3 c 1,42,-1
 92 0 l 1,43,-1
 107 106 l 1,44,45
 221 106 221 106 259.5 144.5 c 0,46,47
 294 179 294 179 294 281 c 2,48,-1
 295 1033 l 1,49,-1
 295 1038 l 1,50,-1
 121 1038 l 1,51,-1
 132 1145 l 1,52,53
 223.429 1148.52 223.429 1148.52 279.5 1186.5 c 0,54,55
 294.167 1196.42 294.167 1196.42 295 1205 c 0,56,57
 304.114 1382.72 304.114 1382.72 407.5 1545 c 0,58,59
 493.095 1679.35 493.095 1679.35 643.5 1738 c 0,60,61
 723 1769 723 1769 836.5 1769 c 128,-1,62
 950 1769 950 1769 1032 1739.5 c 128,-1,63
 1114 1710 1114 1710 1163.5 1663.5 c 0,64,65
 1255 1577.55 1255 1577.55 1255 1447 c 0,66,67
 1255 1267.2 1255 1267.2 1115.5 1137 c 0,68,69
 1078 1102 1078 1102 1048 1077 c 2,70,-1
 996.5 1033.5 l 2,71,72
 923 970.256 923 970.256 923 907 c 0,73,74
 923 820.339 923 820.339 1029 760.5 c 0,75,76
 1060 743 1060 743 1105.5 721 c 128,-1,77
 1151 699 1151 699 1212 664.5 c 128,-1,78
 1273 630 1273 630 1323.5 586.5 c 0,79,80
 1439 487.01 1439 487.01 1439 364 c 0,81,82
 1439 180.421 1439 180.421 1316 79 c 0,83,84
 1203.21 -14 1203.21 -14 992 -14 c 0,0,1
EndSplineSet
EndChar

StartChar: Ccedilla
Encoding: 199 199 154
Width: 1709
Flags: HW
LayerCount: 2
Fore
SplineSet
766 -326 m 1,0,1
 836 -354 836 -354 895.5 -354 c 128,-1,2
 955 -354 955 -354 974 -347.5 c 128,-1,3
 993 -341 993 -341 1005.5 -330.5 c 0,4,5
 1027.55 -311.98 1027.55 -311.98 1029.77 -285.49 c 0,6,7
 1033.14 -245.467 1033.14 -245.467 982 -202 c 1,8,9
 941.736 -165.091 941.736 -165.091 926 -99 c 0,10,11
 914.441 -50.4506 914.441 -50.4506 937 -15 c 1,12,13
 617.079 -11.5226 617.079 -11.5226 398 157 c 0,14,15
 235.403 282.075 235.403 282.075 170.5 501 c 0,16,17
 137 614 137 614 137 777 c 128,-1,18
 137 940 137 940 200 1085.5 c 128,-1,19
 263 1231 263 1231 376 1333 c 0,20,21
 610.863 1545 610.863 1545 986 1545 c 0,22,23
 1055.5 1545 1055.5 1545 1168.75 1532 c 128,-1,24
 1282 1519 1282 1519 1317 1515.5 c 2,25,-1
 1385 1509 l 2,26,27
 1462 1502 1462 1502 1486 1502 c 2,28,-1
 1517.5 1502 l 2,29,30
 1525 1502 1525 1502 1540 1504 c 1,31,32
 1542 1480 1542 1480 1542 1391.14 c 128,-1,33
 1542 1302.29 1542 1302.29 1510 1092 c 1,34,-1
 1382 1092 l 1,35,36
 1363.17 1242.67 1363.17 1242.67 1334 1301 c 1,37,38
 1251.32 1434 1251.32 1434 971 1434 c 0,39,40
 690.983 1434 690.983 1434 534 1250.5 c 0,41,42
 384 1075.16 384 1075.16 384 787 c 0,43,44
 384 454 384 454 572.5 265.5 c 0,45,46
 744 94 744 94 992 94 c 0,47,48
 1170.69 94 1170.69 94 1263.5 162 c 0,49,50
 1357.63 230.97 1357.63 230.97 1415 409 c 1,51,-1
 1540 409 l 1,52,53
 1542 389 1542 389 1542 358.5 c 128,-1,54
 1542 328 1542 328 1538.5 288.5 c 128,-1,55
 1535 249 1535 249 1529.5 211.5 c 0,56,57
 1517.25 127.956 1517.25 127.956 1504 92 c 1,58,59
 1320.1 0.0487671 1320.1 0.0487671 1049 -12 c 1,60,61
 1055.26 -57.3833 1055.26 -57.3833 1117 -112 c 1,62,63
 1221.48 -199.066 1221.48 -199.066 1216 -284 c 0,64,65
 1208.59 -393.287 1208.59 -393.287 1114.5 -459.5 c 0,66,67
 1035.63 -515 1035.63 -515 921.616 -515 c 128,-1,68
 807.6 -515 807.6 -515 743 -496 c 1,69,-1
 755 -328 l 1,70,-1
 766 -326 l 1,0,1
EndSplineSet
EndChar

StartChar: Lslash
Encoding: 321 321 166
Width: 1367
Flags: HW
LayerCount: 2
Fore
SplineSet
1274 449 m 1,0,1
 1279 394 1279 394 1279 335 c 0,2,3
 1279 251.8 1279 251.8 1260.5 153.9 c 0,4,5
 1236.75 28.2001 1236.75 28.2001 1235 2 c 1,6,-1
 63 2 l 1,7,-1
 75 117 l 1,8,9
 170.939 114.868 170.939 114.868 209.5 156 c 0,10,11
 254 203.467 254 203.467 254 333 c 2,12,-1
 253 633 l 1,13,-1
 56 557 l 1,14,-1
 18 700 l 1,15,-1
 253 790 l 1,16,-1
 253 1250 l 2,17,18
 253 1358.4 253 1358.4 239 1382.2 c 128,-1,19
 225 1406 225 1406 209.5 1411 c 128,-1,20
 194 1416 194 1416 166.625 1416 c 128,-1,21
 139.25 1416 139.25 1416 119.125 1411.5 c 0,22,23
 94.5278 1406 94.5278 1406 87 1406 c 1,24,-1
 103 1532 l 1,25,-1
 703 1532 l 1,26,-1
 689 1415 l 1,27,28
 559.75 1415 559.75 1415 527.875 1395 c 128,-1,29
 496 1375 496 1375 484.5 1343 c 128,-1,30
 473 1311 473 1311 473 1256 c 1,31,-1
 474 1225 l 1,32,-1
 474 875 l 1,33,-1
 832 1013 l 1,34,-1
 870 871 l 1,35,-1
 474 718 l 1,36,-1
 474 282 l 2,37,38
 474 133.897 474 133.897 572 117 c 0,39,40
 601 112 601 112 634 112 c 2,41,-1
 799 112 l 2,42,43
 1073.89 112 1073.89 112 1127.5 323 c 0,44,45
 1143 384 1143 384 1150 449 c 1,46,-1
 1274 449 l 1,0,1
EndSplineSet
EndChar

StartChar: OE
Encoding: 338 338 169
Width: 2214
Flags: HW
LayerCount: 2
Fore
SplineSet
975 0 m 1,0,1
 734.484 -44.3056 734.484 -44.3056 531.5 34.5 c 0,2,3
 271.734 135.35 271.734 135.35 170.5 416 c 0,4,5
 120 556 120 556 123 728.5 c 128,-1,6
 126 901 126 901 173.5 1048 c 128,-1,7
 221 1195 221 1195 315 1306 c 0,8,9
 518.243 1546 518.243 1546 876 1546 c 0,10,11
 961 1546 961 1546 1041 1530 c 1,12,-1
 1708 1530 l 2,13,14
 1949 1530 1949 1530 2069 1546 c 1,15,16
 2069 1385.6 2069 1385.6 2037.5 1226 c 0,17,18
 2030 1188 2030 1188 2024 1168 c 1,19,-1
 1922 1168 l 1,20,21
 1912.4 1329.3 1912.4 1329.3 1860.5 1373 c 0,22,23
 1832 1397 1832 1397 1785 1403 c 128,-1,24
 1738 1409 1738 1409 1668 1409 c 2,25,-1
 1270 1409 l 1,26,-1
 1270 874 l 1,27,-1
 1508 874 l 2,28,29
 1606.24 874 1606.24 874 1639 917 c 0,30,31
 1655 938 1655 938 1660 969.5 c 128,-1,32
 1665 1001 1665 1001 1670 1043 c 1,33,-1
 1793 1044 l 1,34,35
 1794 991 l 1,36,37
 1794 864 1794 864 1776 600 c 1,38,-1
 1774 568 l 1,39,-1
 1650 568 l 1,40,41
 1643.39 680.428 1643.39 680.428 1624.69 709.714 c 128,-1,42
 1606 739 1606 739 1578 750 c 128,-1,43
 1550 761 1550 761 1502 761 c 2,44,-1
 1270 761 l 1,45,-1
 1270 279 l 2,46,47
 1270 184.981 1270 184.981 1321.5 150 c 0,48,49
 1366.84 119.205 1366.84 119.205 1493 115 c 1,50,-1
 1683 115 l 2,51,52
 1883.04 115 1883.04 115 1959 287.5 c 0,53,54
 1983 342 1983 342 1991 410 c 1,55,-1
 2115 410 l 1,56,57
 2115 296.421 2115 296.421 2092.5 169.711 c 2,58,-1
 2062 0 l 1,59,-1
 975 0 l 1,0,1
641.5 163 m 128,-1,61
 736 112 736 112 839 112 c 128,-1,62
 942 112 942 112 1011 137 c 1,63,64
 1054 173.385 1054 173.385 1054 307 c 2,65,-1
 1054 1221 l 2,66,67
 1054 1346 1054 1346 1020 1388 c 1,68,69
 945 1418 945 1418 849.5 1418 c 128,-1,70
 754 1418 754 1418 665.5 1380.5 c 128,-1,71
 577 1343 577 1343 511 1266.5 c 0,72,73
 367.816 1100.54 367.816 1100.54 364 801 c 1,74,75
 357.85 489.402 357.85 489.402 484.5 305 c 0,76,60
 547 214 547 214 641.5 163 c 128,-1,61
EndSplineSet
EndChar

StartChar: Oslash
Encoding: 216 216 175
Width: 1709
Flags: HW
LayerCount: 2
Fore
SplineSet
1035.5 17 m 0,0,1
 931 -13 931 -13 809.188 -13 c 128,-1,2
 687.375 -13 687.375 -13 576 20 c 1,3,-1
 482 -188 l 1,4,-1
 326 -119 l 1,5,-1
 423 89 l 1,6,7
 199.91 228.431 199.91 228.431 138.5 523.5 c 0,8,9
 118 622 118 622 120.5 762.5 c 128,-1,10
 123 903 123 903 175.5 1050 c 128,-1,11
 228 1197 228 1197 327 1308 c 0,12,13
 541.054 1548 541.054 1548 903 1548 c 0,14,15
 1005 1548 1005 1548 1095 1524 c 1,16,-1
 1185 1719 l 1,17,-1
 1346 1655 l 1,18,-1
 1253 1461 l 1,19,20
 1495.14 1324.41 1495.14 1324.41 1565.5 1019 c 0,21,22
 1589 917 1589 917 1589 799 c 1,23,24
 1576.35 457.397 1576.35 457.397 1378 230.5 c 0,25,26
 1243.58 76.7373 1243.58 76.7373 1035.5 17 c 0,0,1
638.5 165 m 128,-1,28
 733 114 733 114 845.5 114 c 128,-1,29
 958 114 958 114 1046.5 152 c 128,-1,30
 1135 190 1135 190 1201 267.5 c 0,31,32
 1344.19 435.636 1344.19 435.636 1348 735 c 1,33,34
 1354.15 1044.59 1354.15 1044.59 1227.5 1229 c 0,35,36
 1096.32 1420 1096.32 1420 851 1420 c 0,37,38
 638.706 1420 638.706 1420 508 1268.5 c 0,39,40
 365.744 1103.61 365.744 1103.61 360 803 c 0,41,42
 353.836 490.681 353.836 490.681 481 307 c 0,43,27
 544 216 544 216 638.5 165 c 128,-1,28
EndSplineSet
EndChar

StartChar: Thorn
Encoding: 222 222 183
Width: 1364
Flags: HW
LayerCount: 2
Fore
SplineSet
588 117 m 128,-1,1
 617 110 617 110 663.333 110 c 128,-1,2
 709.667 110 709.667 110 783 130 c 1,3,-1
 771 0 l 1,4,-1
 125 0 l 1,5,-1
 136 109 l 1,6,7
 224.643 109 224.643 109 260 164 c 0,8,9
 293 215.333 293 215.333 293 331 c 2,10,-1
 292 1214 l 2,11,12
 292 1383.38 292 1383.38 238 1407 c 0,13,14
 222 1414 222 1414 201 1414 c 0,15,16
 143 1414 143 1414 95 1405 c 1,17,-1
 111 1530 l 1,18,-1
 695 1530 l 1,19,-1
 679 1414 l 1,20,21
 573.487 1414 573.487 1414 544.5 1381.5 c 0,22,23
 517 1350.67 517 1350.67 517 1247 c 1,24,-1
 715 1256 l 2,25,26
 928.055 1266.15 928.055 1266.15 1039.53 1227.07 c 128,-1,27
 1151 1188 1151 1188 1211.5 1128 c 0,28,29
 1326 1014.45 1326 1014.45 1326 808 c 0,30,31
 1326 587.779 1326 587.779 1163.5 446 c 0,32,33
 1007.62 310 1007.62 310 782 310 c 0,34,35
 691 310 691 310 598 335 c 1,36,-1
 579 452 l 1,37,38
 667 432 667 432 740 432 c 128,-1,39
 813 432 813 432 880 457 c 128,-1,40
 947 482 947 482 995 528.5 c 0,41,42
 1097 627.312 1097 627.312 1097 795 c 0,43,44
 1097 1145 1097 1145 704 1145 c 0,45,46
 612 1145 612 1145 517 1126 c 1,47,-1
 512 261 l 2,48,49
 512 171 512 171 535.5 147.5 c 128,-1,0
 559 124 559 124 588 117 c 128,-1,1
EndSplineSet
EndChar

StartChar: AE
Encoding: 198 198 184
Width: 2049
Flags: HW
LayerCount: 2
Fore
SplineSet
333 161 m 0,0,1
 333 116.333 333 116.333 390 110 c 1,2,3
 494 110 494 110 545 127 c 1,4,-1
 529 0 l 1,5,-1
 -39 0 l 1,6,-1
 -19 109 l 1,7,8
 42.0667 109 42.0667 109 65.5333 131 c 128,-1,9
 89 153 89 153 103 176 c 2,10,-1
 824 1413 l 1,11,-1
 684 1413 l 2,12,13
 539.286 1413 539.286 1413 409 1375 c 1,14,-1
 418 1530 l 1,15,-1
 1600 1530 l 2,16,17
 1842 1530 1842 1530 1958 1546 c 1,18,19
 1958 1321.33 1958 1321.33 1912 1168 c 1,20,-1
 1815 1168 l 1,21,22
 1805.37 1329.86 1805.37 1329.86 1753 1375 c 0,23,24
 1724 1400 1724 1400 1677 1406.5 c 128,-1,25
 1630 1413 1630 1413 1560 1413 c 2,26,-1
 1184 1413 l 1,27,-1
 1184 801 l 1,28,-1
 1374 801 l 2,29,30
 1520.71 801 1520.71 801 1548 896.5 c 0,31,32
 1557 928 1557 928 1561 970 c 1,33,-1
 1678 971 l 1,34,-1
 1678 922 l 2,35,36
 1678 773.857 1678 773.857 1670 650.429 c 2,37,-1
 1659 481 l 1,38,-1
 1542 481 l 1,39,40
 1535.78 586.665 1535.78 586.665 1507.89 620.832 c 128,-1,41
 1480 655 1480 655 1448 666.5 c 128,-1,42
 1416 678 1416 678 1368 678 c 2,43,-1
 1184 678 l 1,44,-1
 1184 279 l 2,45,46
 1184 181.091 1184 181.091 1222 150 c 128,-1,47
 1259.93 118.969 1259.93 118.969 1379 115 c 1,48,-1
 1575 115 l 2,49,50
 1775.04 115 1775.04 115 1851 287.5 c 0,51,52
 1875 342 1875 342 1883 410 c 1,53,-1
 2004 410 l 1,54,55
 2004 296.421 2004 296.421 1981.5 169.711 c 2,56,-1
 1951 0 l 1,57,-1
 806 0 l 1,58,-1
 799 2 l 1,59,60
 808.231 78.9231 808.231 78.9231 816 110 c 1,61,62
 901.286 110 901.286 110 928.143 133.5 c 0,63,64
 975 174.5 975 174.5 975 269 c 2,65,-1
 975 678 l 1,66,-1
 598 678 l 1,67,-1
 357 223 l 2,68,69
 333 178.429 333 178.429 333 161 c 0,0,1
975 801 m 1,70,-1
 976 1388 l 1,71,-1
 664 801 l 1,72,-1
 975 801 l 1,70,-1
EndSplineSet
EndChar

StartChar: eth
Encoding: 240 240 186
Width: 1322
Flags: HW
LayerCount: 2
Fore
SplineSet
228 1747 m 1,0,1
 382.574 1711.96 382.574 1711.96 524 1655 c 1,2,-1
 647 1843 l 1,3,-1
 763 1764 l 1,4,-1
 651 1591 l 1,5,6
 1059.51 1372.9 1059.51 1372.9 1190 949.5 c 0,7,8
 1237 797 1237 797 1237 645.5 c 128,-1,9
 1237 494 1237 494 1200 381 c 128,-1,10
 1163 268 1163 268 1091.5 180 c 0,11,12
 933.062 -15 933.062 -15 677 -15 c 0,13,14
 264.969 -15 264.969 -15 153.5 322 c 0,15,16
 117 432.349 117 432.349 117 536.674 c 128,-1,17
 117 641 117 641 136 712.5 c 128,-1,18
 155 784 155 784 191 849.5 c 128,-1,19
 227 915 227 915 278.5 972 c 128,-1,20
 330 1029 330 1029 394.5 1071 c 0,21,22
 532.714 1161 532.714 1161 699 1161 c 0,23,24
 805.222 1161 805.222 1161 883 1141 c 1,25,26
 767.8 1350.63 767.8 1350.63 573 1474 c 1,27,-1
 443 1271 l 1,28,-1
 320 1349 l 1,29,-1
 451 1547 l 1,30,31
 294.273 1621.01 294.273 1621.01 188 1648 c 1,32,-1
 208 1692 l 2,33,34
 223.652 1725.26 223.652 1725.26 228 1747 c 1,0,1
345 566.5 m 0,35,36
 345 477 345 477 368 393.5 c 128,-1,37
 391 310 391 310 433 244 c 0,38,39
 527.182 96 527.182 96 668 96 c 256,40,41
 832.121 96 832.121 96 915.5 200 c 0,42,43
 1014 322.86 1014 322.86 1014 607 c 0,44,45
 1014 776.048 1014 776.048 970 929 c 1,46,47
 858 1041 858 1041 689 1041 c 0,48,49
 496.083 1041 496.083 1041 411.5 896 c 0,50,51
 345 782 345 782 345 566.5 c 0,35,36
EndSplineSet
EndChar

StartChar: thorn
Encoding: 254 254 187
Width: 1362
Flags: HW
LayerCount: 2
Fore
SplineSet
448 -105 m 1,0,-1
 449 -243 l 1,1,-1
 449 -254 l 2,2,3
 449 -341.75 449 -341.75 459 -359.875 c 128,-1,4
 469 -378 469 -378 484.5 -382.5 c 128,-1,5
 500 -387 500 -387 536 -387 c 128,-1,6
 572 -387 572 -387 606.5 -384.5 c 0,7,8
 693.974 -378.161 693.974 -378.161 704 -371 c 1,9,-1
 686 -508 l 1,10,-1
 64 -508 l 1,11,-1
 80 -397 l 1,12,13
 172.818 -397 172.818 -397 198.909 -369 c 0,14,15
 245 -319.537 245 -319.537 245 -178 c 2,16,-1
 245 547 l 1,17,-1
 239 1365 l 2,18,19
 239 1453.89 239 1453.89 231 1473.44 c 128,-1,20
 223 1493 223 1493 214.5 1503 c 128,-1,21
 206 1513 206 1513 190.5 1519.5 c 128,-1,22
 175 1526 175 1526 156 1528.5 c 0,23,24
 129.4 1532 129.4 1532 77 1532 c 2,25,-1
 52 1532 l 1,26,-1
 64 1646 l 1,27,-1
 466 1705 l 1,28,29
 447 1620.36 447 1620.36 447 1195 c 1,30,-1
 439 1063 l 1,31,32
 564.257 1162.56 564.257 1162.56 720.5 1198 c 0,33,34
 769 1209 769 1209 831.5 1209 c 128,-1,35
 894 1209 894 1209 978.5 1181 c 128,-1,36
 1063 1153 1063 1153 1131 1087 c 0,37,38
 1284 938.5 1284 938.5 1284 642 c 0,39,40
 1284 372.942 1284 372.942 1119 181.5 c 0,41,42
 949.641 -15 949.641 -15 698 -15 c 0,43,44
 562.545 -15 562.545 -15 448 13 c 1,45,-1
 448 -105 l 1,0,-1
447 213 m 1,46,47
 491.186 147.82 491.186 147.82 635.5 120 c 0,48,49
 677 112 677 112 740.5 112 c 128,-1,50
 804 112 804 112 873 147 c 128,-1,51
 942 182 942 182 989.5 247 c 0,52,53
 1086 379.053 1086 379.053 1086 617 c 0,54,55
 1086 809.271 1086 809.271 985 925 c 0,56,57
 884.636 1040 884.636 1040 723 1040 c 0,58,59
 654 1040 654 1040 584 1012 c 0,60,61
 468.062 965.625 468.062 965.625 445 940 c 1,62,-1
 447 941 l 1,63,-1
 447 213 l 1,46,47
EndSplineSet
EndChar

StartChar: ccedilla
Encoding: 231 231 191
Width: 1191
Flags: HW
LayerCount: 2
Fore
SplineSet
658 -501.5 m 128,-1,1
 612 -515 612 -515 524.8 -515 c 128,-1,2
 437.6 -515 437.6 -515 373 -496 c 1,3,-1
 385 -328 l 1,4,-1
 396 -326 l 1,5,6
 466 -354 466 -354 525.5 -354 c 128,-1,7
 585 -354 585 -354 604 -347.5 c 128,-1,8
 623 -341 623 -341 635.5 -330.5 c 0,9,10
 657.547 -311.98 657.547 -311.98 659.774 -285.49 c 0,11,12
 663.137 -245.467 663.137 -245.467 612 -202 c 1,13,14
 571.736 -165.091 571.736 -165.091 556 -99 c 0,15,16
 544.519 -50.781 544.519 -50.781 569 -11 c 1,17,18
 363.44 15.4582 363.44 15.4582 240 160.5 c 0,19,20
 113 309.725 113 309.725 113 539 c 0,21,22
 113 848.817 113 848.817 297.5 1035.5 c 0,23,24
 468.971 1209 468.971 1209 727 1209 c 0,25,26
 867.714 1209 867.714 1209 1009 1166 c 2,27,-1
 1035.5 1158 l 2,28,29
 1049 1154 1049 1154 1059 1152 c 1,30,31
 1067 1136 1067 1136 1067 1080 c 128,-1,32
 1067 1024 1067 1024 1064.5 992.5 c 128,-1,33
 1062 961 1062 961 1058.5 932 c 128,-1,34
 1055 903 1055 903 1051 879.5 c 2,35,-1
 1045 844 l 1,36,37
 1038.75 834 1038.75 834 983 834 c 256,38,39
 914.571 834 914.571 834 894 843 c 1,40,41
 894 961.783 894 961.783 864.5 1005.39 c 128,-1,42
 835 1049 835 1049 790.5 1069 c 128,-1,43
 746 1089 746 1089 673.5 1089 c 128,-1,44
 601 1089 601 1089 539 1058.5 c 128,-1,45
 477 1028 477 1028 430 967.5 c 0,46,47
 328 836.202 328 836.202 328 610 c 0,48,49
 328 286.714 328 286.714 545.5 193.5 c 0,50,51
 619 162 619 162 718 162 c 0,52,53
 879.757 162 879.757 162 1047 253 c 1,54,-1
 1085 172 l 1,55,56
 991.623 72.3975 991.623 72.3975 818 11.5 c 0,57,58
 751 -12 751 -12 679 -16 c 1,59,60
 687 -59.2 687 -59.2 747 -112 c 1,61,62
 851.48 -199.066 851.48 -199.066 846 -284 c 0,63,64
 838.591 -393.288 838.591 -393.288 744.5 -459.5 c 0,65,0
 704 -488 704 -488 658 -501.5 c 128,-1,1
EndSplineSet
EndChar

StartChar: florin
Encoding: 402 402 198
Width: 860
Flags: HW
LayerCount: 2
Fore
SplineSet
542 1041 m 1,0,1
 434.27 40.6476 434.27 40.6476 317 -356 c 1,2,-1
 174 -354 l 1,3,-1
 322 1041 l 1,4,-1
 134 1041 l 1,5,-1
 158 1169 l 1,6,-1
 337 1190 l 1,7,8
 343 1238 343 1238 352 1285.5 c 2,9,10
 370 1383 l 2,11,12
 395.769 1526.57 395.769 1526.57 495.5 1634.5 c 0,13,14
 619.785 1769 619.785 1769 834 1769 c 0,15,16
 948.647 1769 948.647 1769 996.823 1743 c 128,-1,17
 1045 1717 1045 1717 1060.5 1692 c 128,-1,18
 1076 1667 1076 1667 1073 1638.5 c 128,-1,19
 1070 1610 1070 1610 1063.5 1586 c 128,-1,20
 1057 1562 1057 1562 1048.5 1540 c 128,-1,21
 1040 1518 1040 1518 1031 1499 c 2,22,-1
 1015 1466 l 1,23,24
 1000 1465 1000 1465 985 1463 c 0,25,26
 949.333 1458.24 949.333 1458.24 933.667 1459.12 c 128,-1,27
 918 1460 918 1460 907.5 1460.5 c 2,28,-1
 885.5 1461.5 l 2,29,30
 856.476 1462.76 856.476 1462.76 846 1468 c 1,31,32
 857 1518.6 857 1518.6 857 1545.8 c 128,-1,33
 857 1573 857 1573 852 1591.5 c 128,-1,34
 847 1610 847 1610 835 1622.5 c 0,35,36
 810.52 1648 810.52 1648 762.76 1647.5 c 128,-1,37
 715 1647 715 1647 685 1621.5 c 128,-1,38
 655 1596 655 1596 632.5 1556 c 0,39,40
 589.589 1479.71 589.589 1479.71 576 1371 c 1,41,-1
 557 1190 l 1,42,-1
 829 1190 l 1,43,-1
 799 1041 l 1,44,-1
 542 1041 l 1,0,1
EndSplineSet
EndChar

StartChar: dagger
Encoding: 8224 8224 199
Width: 1201
Flags: HW
LayerCount: 2
Fore
SplineSet
549 1023 m 1,0,1
 204 942 l 1,2,3
 133.657 930.276 133.657 930.276 100.5 977.5 c 0,4,5
 84 1001 84 1001 84 1050 c 2,6,-1
 84 1203 l 1,7,-1
 551 1113 l 1,8,-1
 459 1541 l 2,9,10
 446.014 1605.93 446.014 1605.93 497.5 1638.5 c 0,11,12
 522 1654 522 1654 573 1654 c 2,13,-1
 747 1654 l 1,14,-1
 650 1112 l 1,15,-1
 1115 1203 l 1,16,-1
 1115 1050 l 2,17,18
 1115 968.87 1115 968.87 1055 948 c 0,19,20
 1029 938 1029 938 1002.5 942 c 128,-1,21
 976 946 976 946 946 953 c 2,22,-1
 744 997 l 2,23,24
 712 1004 712 1004 687 1010 c 2,25,-1
 649 1019 l 1,26,-1
 739 -55 l 1,27,28
 750.764 -117.74 750.764 -117.74 703.5 -151.5 c 0,29,30
 679 -169 679 -169 625 -169 c 2,31,-1
 451 -169 l 1,32,-1
 549 1023 l 1,0,1
EndSplineSet
EndChar

StartChar: daggerdbl
Encoding: 8225 8225 200
Width: 1196
Flags: HW
LayerCount: 2
Fore
SplineSet
81 436 m 2,0,1
 81 519.478 81 519.478 140 540 c 0,2,3
 166 549 166 549 200 544 c 1,4,-1
 545 467 l 1,5,-1
 480 750 l 1,6,-1
 546 1023 l 1,7,-1
 201 942 l 1,8,9
 130.657 930.276 130.657 930.276 97.5 977.5 c 0,10,11
 81 1001 81 1001 81 1050 c 2,12,-1
 81 1203 l 1,13,-1
 548 1113 l 1,14,-1
 456 1541 l 2,15,16
 443.014 1605.93 443.014 1605.93 494.5 1638.5 c 0,17,18
 519 1654 519 1654 570 1654 c 2,19,-1
 745 1654 l 1,20,-1
 647 1112 l 1,21,-1
 1112 1203 l 1,22,-1
 1112 1050 l 2,23,24
 1112 968.87 1112 968.87 1052 948 c 0,25,26
 1026 938 1026 938 999.5 942 c 128,-1,27
 973 946 973 946 943 953 c 2,28,-1
 742 997 l 2,29,30
 710 1004 710 1004 685 1010 c 2,31,-1
 647 1019 l 1,32,-1
 713 750 l 1,33,-1
 647 463 l 1,34,-1
 992 544 l 1,35,36
 1062.34 555.724 1062.34 555.724 1095.5 508.5 c 0,37,38
 1112 485 1112 485 1112 436 c 2,39,-1
 1112 283 l 1,40,-1
 645 373 l 1,41,-1
 737 -56 l 2,42,43
 749.873 -120.366 749.873 -120.366 697.5 -153.5 c 0,44,45
 673 -169 673 -169 623 -169 c 2,46,-1
 448 -169 l 1,47,-1
 546 373 l 1,48,-1
 81 284 l 1,49,-1
 81 436 l 2,0,1
EndSplineSet
EndChar

StartChar: macron
Encoding: 175 175 201
Width: 678
Flags: HW
LayerCount: 2
Fore
SplineSet
-40 1620 m 1,0,-1
 725 1620 l 1,1,-1
 705 1458 l 1,2,-1
 -60 1458 l 1,3,-1
 -40 1620 l 1,0,-1
EndSplineSet
EndChar

StartChar: dotaccent
Encoding: 729 729 202
Width: 678
Flags: HW
LayerCount: 2
Fore
SplineSet
229 1438 m 128,-1,1
 184 1480.86 184 1480.86 184 1529.93 c 128,-1,2
 184 1579 184 1579 196 1608 c 128,-1,3
 208 1637 208 1637 229 1658 c 0,4,5
 274 1703 274 1703 340 1703 c 0,6,7
 403.143 1703 403.143 1703 446 1658 c 128,-1,8
 489 1612.85 489 1612.85 489 1545 c 0,9,10
 489 1481 489 1481 446 1438 c 128,-1,11
 403 1395 403 1395 355 1395 c 0,12,0
 274.15 1395 274.15 1395 229 1438 c 128,-1,1
EndSplineSet
EndChar

StartChar: ring
Encoding: 730 730 203
Width: 505
Flags: HW
LayerCount: 2
Fore
SplineSet
247 1281 m 0,0,1
 187 1281 187 1281 131.5 1300 c 128,-1,2
 76 1319 76 1319 36 1354.5 c 0,3,4
 -49 1429.94 -49 1429.94 -49 1555 c 0,5,6
 -49 1675.33 -49 1675.33 47 1749 c 0,7,8
 134.303 1816 134.303 1816 253 1816 c 0,9,10
 385.029 1816 385.029 1816 469.5 1743 c 0,11,12
 555 1669.11 555 1669.11 555 1543 c 0,13,14
 555 1422.44 555 1422.44 458 1348 c 0,15,16
 370.697 1281 370.697 1281 247 1281 c 0,0,1
198.5 1414 m 128,-1,18
 224 1402 224 1402 254 1402 c 128,-1,19
 284 1402 284 1402 310 1412.5 c 128,-1,20
 336 1423 336 1423 354.5 1441.5 c 0,21,22
 393 1480 393 1480 393 1543 c 256,23,24
 393 1605.18 393 1605.18 351 1650.5 c 0,25,26
 309.756 1695 309.756 1695 249.378 1695 c 128,-1,27
 189 1695 189 1695 150.5 1655.5 c 128,-1,28
 112 1616 112 1616 112 1569.5 c 128,-1,29
 112 1523 112 1523 123.5 1495.5 c 128,-1,30
 135 1468 135 1468 154 1447 c 128,-1,17
 173 1426 173 1426 198.5 1414 c 128,-1,18
EndSplineSet
EndChar

StartChar: hungarumlaut
Encoding: 733 733 204
Width: 1287
Flags: HW
LayerCount: 2
Fore
SplineSet
764 1434 m 1,0,-1
 1119 1791 l 1,1,-1
 1237 1643 l 1,2,-1
 851 1342 l 1,3,-1
 764 1434 l 1,0,-1
316 1434 m 1,4,-1
 671 1791 l 1,5,-1
 790 1643 l 1,6,-1
 404 1342 l 1,7,-1
 316 1434 l 1,4,-1
EndSplineSet
EndChar

StartChar: circumflex
Encoding: 710 710 206
Width: 1048
Flags: HW
LayerCount: 2
Fore
SplineSet
188 1448 m 1,0,-1
 593 1749 l 1,1,-1
 991 1447 l 1,2,-1
 905 1341 l 1,3,-1
 593 1516 l 1,4,-1
 267 1341 l 1,5,-1
 188 1448 l 1,0,-1
EndSplineSet
EndChar

StartChar: dotlessj
Encoding: 567 567 225
Width: 683
Flags: HW
LayerCount: 2
Fore
SplineSet
519 1210 m 1,0,1
 481 1113.27 481 1113.27 481 698 c 0,2,3
 481 471 481 471 484 395 c 128,-1,4
 487 319 487 319 488.5 279.5 c 0,5,6
 492 187.333 492 187.333 492.5 75.6667 c 128,-1,7
 493 -36 493 -36 455.5 -139.5 c 128,-1,8
 418 -243 418 -243 360 -317.5 c 0,9,10
 262.057 -443.306 262.057 -443.306 101 -520 c 1,11,-1
 30 -459 l 1,12,13
 248.078 -280.334 248.078 -280.334 278 40.5 c 0,14,15
 288 147.722 288 147.722 288 265.5 c 2,16,-1
 287 540 l 1,17,-1
 287 842 l 2,18,19
 287 947.22 287 947.22 239 988.5 c 0,20,21
 193.07 1028 193.07 1028 80 1028 c 1,22,-1
 96 1154 l 1,23,-1
 519 1210 l 1,0,1
EndSplineSet
EndChar

StartChar: commaaccent
Encoding: 65539 -1 226
Width: 707
Flags: HW
LayerCount: 2
Fore
SplineSet
380 -59 m 0,0,1
 537 -59 537 -59 537 -214 c 0,2,3
 537 -331.696 537 -331.696 468 -431.5 c 0,4,5
 440 -472 440 -472 411 -495 c 128,-1,6
 382 -518 382 -518 363.5 -518 c 0,7,8
 333 -518 333 -518 318 -502.5 c 128,-1,9
 303 -487 303 -487 299 -475 c 1,10,11
 354.172 -421.552 354.172 -421.552 352 -339 c 1,12,13
 231 -327.476 231 -327.476 231 -204 c 0,14,15
 231 -144.105 231 -144.105 271 -102 c 0,16,17
 311.85 -59 311.85 -59 380 -59 c 0,0,1
EndSplineSet
EndChar

StartChar: grave.cap
Encoding: 65540 -1 227
Width: 1287
Flags: HW
LayerCount: 2
Fore
SplineSet
349 2041 m 1,0,-1
 912 1781 l 1,1,-1
 873 1663 l 1,2,-1
 277 1848 l 1,3,-1
 349 2041 l 1,0,-1
EndSplineSet
EndChar

StartChar: acute.cap
Encoding: 65541 -1 228
Width: 1287
Flags: HW
LayerCount: 2
Fore
SplineSet
482 1781 m 1,0,-1
 1045 2041 l 1,1,-1
 1117 1848 l 1,2,-1
 521 1663 l 1,3,-1
 482 1781 l 1,0,-1
EndSplineSet
EndChar

StartChar: circumflex.cap
Encoding: 65542 -1 229
Width: 687
Flags: HW
LayerCount: 2
Fore
SplineSet
-57 1767 m 1,0,-1
 339 2040 l 1,1,-1
 730 1775 l 1,2,-1
 666 1664 l 1,3,-1
 339 1821 l 1,4,5
 0 1664 l 1,6,-1
 -57 1767 l 1,0,-1
EndSplineSet
EndChar

StartChar: dieresis.cap
Encoding: 65543 -1 230
Width: 1025
Flags: HW
LayerCount: 2
Fore
SplineSet
805.5 1747 m 128,-1,1
 779 1736 779 1736 747.5 1736 c 128,-1,2
 716 1736 716 1736 688 1747 c 128,-1,3
 660 1758 660 1758 639.5 1777.5 c 0,4,5
 596 1818.88 596 1818.88 596 1864.44 c 128,-1,6
 596 1910 596 1910 607.5 1937.5 c 128,-1,7
 619 1965 619 1965 639.5 1985.5 c 0,8,9
 683 2029 683 2029 748 2029 c 0,10,11
 844.236 2029 844.236 2029 882.5 1937.5 c 0,12,13
 894 1910 894 1910 894 1879.5 c 128,-1,14
 894 1849 894 1849 882.5 1823 c 128,-1,15
 871 1797 871 1797 851.5 1777.5 c 128,-1,0
 832 1758 832 1758 805.5 1747 c 128,-1,1
348.5 1747 m 128,-1,17
 322 1736 322 1736 290.5 1736 c 128,-1,18
 259 1736 259 1736 230.5 1747 c 128,-1,19
 202 1758 202 1758 181.5 1777.5 c 0,20,21
 137 1819.83 137 1819.83 137 1864.91 c 128,-1,22
 137 1910 137 1910 149 1937.5 c 128,-1,23
 161 1965 161 1965 181.5 1985.5 c 0,24,25
 225 2029 225 2029 292 2029 c 0,26,27
 387.4 2029 387.4 2029 424 1937.5 c 0,28,29
 435 1910 435 1910 435 1879.5 c 128,-1,30
 435 1849 435 1849 424 1823 c 128,-1,31
 413 1797 413 1797 394 1777.5 c 128,-1,16
 375 1758 375 1758 348.5 1747 c 128,-1,17
EndSplineSet
EndChar

StartChar: caron.cap
Encoding: 65544 -1 231
Width: 1229
Flags: HW
LayerCount: 2
Fore
SplineSet
197 1930 m 1,0,-1
 254 2040 l 1,1,-1
 594 1883 l 1,2,-1
 921 2040 l 1,3,-1
 985 1930 l 1,4,-1
 594 1664 l 1,5,-1
 197 1930 l 1,0,-1
EndSplineSet
EndChar

StartChar: ring.cap
Encoding: 65545 -1 232
Width: 681
Flags: HW
LayerCount: 2
Fore
SplineSet
333.5 1502 m 0,0,1
 273 1502 273 1502 218 1521 c 128,-1,2
 163 1540 163 1540 122.5 1575.5 c 0,3,4
 37 1650.44 37 1650.44 37 1776 c 256,5,6
 37 1895.56 37 1895.56 134 1970 c 0,7,8
 221.303 2037 221.303 2037 339 2037 c 0,9,10
 472.571 2037 472.571 2037 556 1964 c 0,11,12
 641 1889.62 641 1889.62 641 1764 c 0,13,14
 641 1644.29 641 1644.29 545 1569.5 c 0,15,16
 458.358 1502 458.358 1502 333.5 1502 c 0,0,1
441.5 1663 m 128,-1,18
 480 1702 480 1702 480 1748.5 c 128,-1,19
 480 1795 480 1795 468.5 1823 c 128,-1,20
 457 1851 457 1851 438 1872 c 0,21,22
 397.286 1917 397.286 1917 352.143 1917 c 128,-1,23
 307 1917 307 1917 281.5 1906.5 c 128,-1,24
 256 1896 256 1896 237.5 1877 c 0,25,26
 199 1837.46 199 1837.46 199 1790.73 c 128,-1,27
 199 1744 199 1744 210.5 1716.5 c 128,-1,28
 222 1689 222 1689 241 1668.5 c 0,29,30
 282.244 1624 282.244 1624 342.622 1624 c 128,-1,17
 403 1624 403 1624 441.5 1663 c 128,-1,18
EndSplineSet
EndChar

StartChar: tilde.cap
Encoding: 65546 -1 233
Width: 1020
Flags: HW
LayerCount: 2
Fore
SplineSet
97 1782 m 1,0,1
 100 1795 100 1795 120.5 1826 c 128,-1,2
 141 1857 141 1857 177.5 1889 c 0,3,4
 269.891 1970 269.891 1970 377 1970 c 0,5,6
 431 1970 431 1970 474.5 1948 c 128,-1,7
 518 1926 518 1926 552 1903.5 c 0,8,9
 637.378 1847 637.378 1847 666.189 1847 c 128,-1,10
 695 1847 695 1847 714 1853 c 128,-1,11
 733 1859 733 1859 750.5 1872 c 0,12,13
 781.269 1894.86 781.269 1894.86 825 1949 c 1,14,-1
 914 1852 l 1,15,16
 903.2 1805.2 903.2 1805.2 856.6 1758.6 c 0,17,18
 761 1663 761 1663 653 1663 c 0,19,20
 608 1663 608 1663 563 1685 c 128,-1,21
 518 1707 518 1707 479.5 1729.5 c 0,22,23
 381.111 1787 381.111 1787 353.056 1787 c 128,-1,24
 325 1787 325 1787 306.5 1781 c 128,-1,25
 288 1775 288 1775 270.5 1762.5 c 0,26,27
 242.364 1742.4 242.364 1742.4 196 1685 c 1,28,-1
 97 1782 l 1,0,1
EndSplineSet
EndChar

StartChar: caron
Encoding: 711 711 235
Width: 1229
Flags: HW
LayerCount: 2
Fore
SplineSet
199 1636 m 1,0,-1
 276 1741 l 1,1,-1
 596 1567 l 1,2,3
 902 1741 l 1,4,-1
 986 1636 l 1,5,-1
 596 1334 l 1,6,-1
 199 1636 l 1,0,-1
EndSplineSet
EndChar

StartChar: macron.cap
Encoding: 65547 -1 238
Width: 687
Flags: HW
LayerCount: 2
Fore
SplineSet
-23 1970 m 1,0,-1
 727 1970 l 1,1,-1
 708 1814 l 1,2,-1
 -42 1814 l 1,3,-1
 -23 1970 l 1,0,-1
EndSplineSet
EndChar

StartChar: dotaccent.cap
Encoding: 65548 -1 240
Width: 687
Flags: HW
LayerCount: 2
Fore
SplineSet
185 1863.86 m 128,-1,1
 185 1913 185 1913 197.5 1942 c 128,-1,2
 210 1971 210 1971 232 1992 c 0,3,4
 279.143 2037 279.143 2037 347 2037 c 0,5,6
 411.571 2037 411.571 2037 455.5 1992 c 0,7,8
 500 1946.41 500 1946.41 500 1879 c 0,9,10
 500 1815.41 500 1815.41 455.5 1772 c 0,11,12
 411.425 1729 411.425 1729 362.212 1729 c 0,13,14
 279.3 1729 279.3 1729 232.15 1771.86 c 128,-1,0
 185 1814.73 185 1814.73 185 1863.86 c 128,-1,1
EndSplineSet
EndChar

StartChar: zero
Encoding: 48 48 241
Width: 1368
Flags: HW
LayerCount: 2
Fore
SplineSet
147.5 392.5 m 128,-1,1
 109 514 109 514 109 629 c 128,-1,2
 109 744 109 744 127.5 832.5 c 128,-1,3
 146 921 146 921 181 999.5 c 128,-1,4
 216 1078 216 1078 266.5 1144.5 c 128,-1,5
 317 1211 317 1211 382 1258.5 c 0,6,7
 520.895 1360 520.895 1360 672.447 1360 c 128,-1,8
 824 1360 824 1360 929 1307 c 128,-1,9
 1034 1254 1034 1254 1106.5 1163.5 c 0,10,11
 1256 976.883 1256 976.883 1256 691 c 0,12,13
 1256 408.353 1256 408.353 1095 200 c 0,14,15
 991.276 65.7688 991.276 65.7688 837.5 12.5 c 0,16,17
 761 -14 761 -14 651 -14 c 128,-1,18
 541 -14 541 -14 436 38 c 128,-1,19
 331 90 331 90 258.5 180.5 c 128,-1,0
 186 271 186 271 147.5 392.5 c 128,-1,1
542.5 138.5 m 0,20,21
 602 96 602 96 682.5 96 c 128,-1,22
 763 96 763 96 822.5 138.5 c 128,-1,23
 882 181 882 181 921 258 c 0,24,25
 999 412 999 412 999 681 c 256,26,27
 999 1092.34 999 1092.34 822.5 1211 c 0,28,29
 763 1251 763 1251 682.5 1251 c 128,-1,30
 602 1251 602 1251 542.5 1211 c 128,-1,31
 483 1171 483 1171 444 1097 c 0,32,33
 366 949 366 949 366 681 c 256,34,35
 366 264.571 366 264.571 542.5 138.5 c 0,20,21
EndSplineSet
EndChar

StartChar: one
Encoding: 49 49 242
Width: 855
Flags: HW
LayerCount: 2
Fore
SplineSet
566 962.5 m 1,0,-1
 565 563.5 l 1,1,-1
 565 260 l 2,2,3
 565 167.167 565 167.167 575.5 145.583 c 0,4,5
 594.757 106 594.757 106 662 106 c 0,6,7
 718 106 718 106 808 124 c 1,8,-1
 795 0 l 1,9,-1
 89 0 l 1,10,-1
 103 106 l 1,11,-1
 184 106 l 2,12,13
 241 106 241 106 274.5 114 c 128,-1,14
 308 122 308 122 325.5 149.5 c 0,15,16
 354 194.286 354 194.286 354 336.143 c 2,17,-1
 354 578.5 l 1,18,-1
 353 918 l 1,19,-1
 353 1025 l 2,20,21
 353 1152 353 1152 278 1152 c 0,22,23
 219 1152 219 1152 131 1108 c 1,24,-1
 95 1239 l 1,25,-1
 594 1382 l 1,26,27
 566 1298 566 1298 566 1167.5 c 2,28,29
 566 962.5 l 1,0,-1
EndSplineSet
EndChar

StartChar: two
Encoding: 50 50 243
Width: 1364
Flags: HW
LayerCount: 2
Fore
SplineSet
191 948 m 1,0,1
 173 1116 173 1116 173 1253 c 2,2,-1
 173 1317 l 1,3,4
 265.797 1313.02 265.797 1313.02 369.898 1336.01 c 0,5,6
 569.097 1380 569.097 1380 670.548 1380 c 128,-1,7
 772 1380 772 1380 857.5 1353.5 c 128,-1,8
 943 1327 943 1327 1003 1276.5 c 0,9,10
 1126 1172.97 1126 1172.97 1126 987 c 0,11,12
 1126 754.667 1126 754.667 816 455 c 0,13,14
 756 397 756 397 695.5 347.5 c 1,15,-1
 583 258.5 l 1,16,17
 531 219 531 219 492 192 c 2,18,-1
 435 153 l 1,19,-1
 866 153 l 2,20,21
 941.885 153 941.885 153 992.5 209 c 0,22,23
 1036.73 257.938 1036.73 257.938 1052 343 c 1,24,-1
 1189 343 l 1,25,26
 1189 261.667 1189 261.667 1171.5 147.333 c 128,-1,27
 1154 33 1154 33 1146 0 c 1,28,-1
 192 0 l 1,29,30
 167 6.25 167 6.25 152 55 c 0,31,32
 148 68 148 68 148 79 c 1,33,34
 171.523 94.6818 171.523 94.6818 261.261 163.341 c 128,-1,35
 351 232 351 232 432.5 302.5 c 128,-1,36
 514 373 514 373 595 455 c 128,-1,37
 676 537 676 537 740.5 624.5 c 0,38,39
 886 821.884 886 821.884 886 982 c 0,40,41
 886 1112.95 886 1112.95 816 1192.5 c 0,42,43
 746.92 1271 746.92 1271 657.96 1271 c 128,-1,44
 569 1271 569 1271 511 1254 c 128,-1,45
 453 1237 453 1237 413.5 1198.5 c 0,46,47
 333.066 1120.1 333.066 1120.1 335 948 c 1,48,-1
 191 948 l 1,0,1
EndSplineSet
EndChar

StartChar: three
Encoding: 51 51 244
Width: 1365
Flags: HW
LayerCount: 2
Fore
SplineSet
242 946 m 1,0,1
 232 1094 232 1094 232 1181.5 c 128,-1,2
 232 1269 232 1269 236 1313 c 1,3,4
 276 1309 276 1309 322.5 1318.5 c 2,5,-1
 419 1339 l 1,6,7
 581.857 1379 581.857 1379 665.429 1379 c 128,-1,8
 749 1379 749 1379 828.5 1363.5 c 128,-1,9
 908 1348 908 1348 972.5 1311 c 0,10,11
 1118 1227.53 1118 1227.53 1118 1054 c 0,12,13
 1118 902.798 1118 902.798 969.5 786 c 0,14,15
 925 751 925 751 875 724 c 1,16,17
 1008.73 697.692 1008.73 697.692 1097.5 606 c 0,18,19
 1198 502.187 1198 502.187 1198 349 c 0,20,21
 1198 162.87 1198 162.87 1061 8 c 0,22,23
 904.423 -169 904.423 -169 640 -169 c 0,24,25
 517.071 -169 517.071 -169 375 -130 c 1,26,27
 260.455 -100 260.455 -100 203 -100 c 1,28,-1
 196 -98 l 1,29,30
 186 10 186 10 186 76.6 c 128,-1,31
 186 143.2 186 143.2 198 256 c 1,32,-1
 345 256 l 1,33,34
 345 12.6667 345 12.6667 525.5 -47.5 c 0,35,36
 581 -66 581 -66 647 -66 c 256,37,38
 779.778 -66 779.778 -66 869.5 38.5 c 0,39,40
 960 143.906 960 143.906 960 312 c 0,41,42
 960 442.026 960 442.026 880 531.5 c 0,43,44
 797.294 624 797.294 624 666 624 c 0,45,46
 587.235 624 587.235 624 529 594 c 1,47,48
 503 672 503 672 503 692 c 128,-1,49
 503 712 503 712 508 716 c 1,50,-1
 508 718 l 1,51,-1
 517 718 l 1,52,53
 664.234 720.103 664.234 720.103 772 803 c 0,54,55
 887 891.462 887 891.462 887 1019 c 0,56,57
 887 1193.6 887 1193.6 742 1251 c 0,58,59
 694 1270 694 1270 632 1270 c 128,-1,60
 570 1270 570 1270 525 1252 c 128,-1,61
 480 1234 480 1234 449.5 1195 c 0,62,63
 389 1117.64 389 1117.64 389 946 c 1,64,-1
 242 946 l 1,0,1
EndSplineSet
EndChar

StartChar: four
Encoding: 52 52 245
Width: 1365
Flags: HW
LayerCount: 2
Fore
SplineSet
794 -198 m 1,0,1
 813 3.39999 813 3.39999 813 169 c 1,2,-1
 96 169 l 1,3,-1
 55 261 l 1,4,-1
 357.5 654 l 1,5,6
 624 1012 l 1,7,8
 806.946 1266.84 806.946 1266.84 868 1359 c 1,9,10
 970.819 1371.1 970.819 1371.1 1022 1391 c 1,11,-1
 1022 322 l 1,12,-1
 1302 322 l 1,13,-1
 1269 173 l 1,14,-1
 1022 174 l 1,15,-1
 1022 2 l 2,16,17
 1022 -47 1022 -47 1025 -161 c 1,18,-1
 953 -191 l 1,19,20
 879.071 -220.571 879.071 -220.571 827 -236 c 1,21,-1
 794 -198 l 1,0,1
813 322 m 1,22,-1
 813 1061 l 1,23,-1
 663 834.5 l 1,24,-1
 310 322 l 1,25,-1
 813 322 l 1,22,-1
EndSplineSet
EndChar

StartChar: five
Encoding: 53 53 246
Width: 1365
Flags: HW
LayerCount: 2
Fore
SplineSet
413 720 m 1,0,1
 587.2 787 587.2 787 704.6 787 c 128,-1,2
 822 787 822 787 912 762 c 128,-1,3
 1002 737 1002 737 1068.5 684.5 c 0,4,5
 1213 570.421 1213 570.421 1213 351 c 0,6,7
 1213 107.892 1213 107.892 1031.5 -36 c 0,8,9
 863.739 -169 863.739 -169 627 -169 c 0,10,11
 457 -169 457 -169 304 -113.5 c 0,12,13
 253 -95 253 -95 216 -70 c 1,14,-1
 237 47 l 1,15,16
 318.78 -11.4146 318.78 -11.4146 487 -36.5 c 0,17,18
 544 -45 544 -45 623 -45 c 128,-1,19
 702 -45 702 -45 772 -14.5 c 128,-1,20
 842 16 842 16 887 67.5 c 0,21,22
 974 167.067 974 167.067 974 329 c 256,23,24
 974 474.421 974 474.421 871.5 557.5 c 0,25,26
 774.649 636 774.649 636 630.825 636 c 128,-1,27
 487 636 487 636 355 592 c 1,28,-1
 259 626 l 1,29,-1
 317 1359 l 1,30,-1
 869 1359 l 2,31,32
 937.074 1359 937.074 1359 966.037 1376 c 0,33,34
 1020.36 1407.88 1020.36 1407.88 1051 1489 c 1,35,-1
 1167 1489 l 1,36,37
 1167 1362 1167 1362 1132.5 1248 c 0,38,39
 1121 1210 1121 1210 1107 1186 c 1,40,-1
 493 1186 l 1,41,-1
 413 720 l 1,0,1
EndSplineSet
EndChar

StartChar: six
Encoding: 54 54 247
Width: 1365
Flags: HW
LayerCount: 2
Fore
SplineSet
136.5 449.5 m 0,0,1
 121 523 121 523 120.5 633 c 128,-1,2
 120 743 120 743 149.5 865.5 c 128,-1,3
 179 988 179 988 230 1087 c 128,-1,4
 281 1186 281 1186 349 1263.5 c 128,-1,5
 417 1341 417 1341 494 1399 c 128,-1,6
 571 1457 571 1457 652.5 1497 c 128,-1,7
 734 1537 734 1537 811.5 1562.5 c 0,8,9
 957.965 1610.69 957.965 1610.69 1078 1613 c 1,10,-1
 1102 1526 l 1,11,12
 855.071 1495.64 855.071 1495.64 660.5 1325 c 0,13,14
 462.539 1151.39 462.539 1151.39 391 901 c 1,15,16
 511.333 992.063 511.333 992.063 670 1022 c 0,17,18
 723 1032 723 1032 805 1032 c 128,-1,19
 887 1032 887 1032 973.5 997 c 128,-1,20
 1060 962 1060 962 1119.5 899 c 0,21,22
 1241 770.353 1241 770.353 1241 555 c 0,23,24
 1241 314.819 1241 314.819 1082.5 151 c 0,25,26
 921.89 -15 921.89 -15 681 -15 c 0,27,28
 410.424 -15 410.424 -15 258.5 182 c 0,29,30
 168.226 299.059 168.226 299.059 136.5 449.5 c 0,0,1
553.5 144.5 m 128,-1,32
 614 112 614 112 702.5 112 c 128,-1,33
 791 112 791 112 855 141.5 c 128,-1,34
 919 171 919 171 954 224.5 c 0,35,36
 1014 316.214 1014 316.214 1014 523 c 0,37,38
 1014 778.416 1014 778.416 827.5 856 c 0,39,40
 765 882 765 882 708 882 c 128,-1,41
 651 882 651 882 610.5 873.5 c 128,-1,42
 570 865 570 865 526 849 c 0,43,44
 424.693 812.161 424.693 812.161 362 755 c 1,45,46
 357 716.667 357 716.667 357 617.833 c 128,-1,47
 357 519 357 519 381 415.5 c 128,-1,48
 405 312 405 312 449 244.5 c 128,-1,31
 493 177 493 177 553.5 144.5 c 128,-1,32
EndSplineSet
EndChar

StartChar: seven
Encoding: 55 55 248
Width: 1365
Flags: HW
LayerCount: 2
Fore
SplineSet
1032 1184 m 1,0,1
 1019 1184 1019 1184 978 1183.5 c 128,-1,2
 937 1183 937 1183 881 1182.5 c 128,-1,3
 825 1182 825 1182 760.5 1181.5 c 2,4,-1
 636 1180.5 l 2,5,6
 576 1180 576 1180 526 1179.5 c 128,-1,7
 476 1179 476 1179 438 1179 c 128,-1,8
 400 1179 400 1179 367 1165.5 c 128,-1,9
 334 1152 334 1152 311.5 1126 c 0,10,11
 275.735 1084.67 275.735 1084.67 240 973 c 1,12,-1
 132 973 l 1,13,14
 148.913 1144.95 148.913 1144.95 160.957 1226.48 c 2,15,-1
 181 1359 l 1,16,-1
 1165 1359 l 1,17,-1
 1221 1296 l 1,18,-1
 665 -338 l 1,19,-1
 458 -338 l 1,20,-1
 410 -274 l 1,21,-1
 1032 1184 l 1,0,1
EndSplineSet
EndChar

StartChar: eight
Encoding: 56 56 249
Width: 1365
Flags: HW
LayerCount: 2
Fore
SplineSet
153 366 m 0,0,1
 153 438 153 438 185.5 504 c 128,-1,2
 218 570 218 570 269 621.5 c 0,3,4
 369.792 723.28 369.792 723.28 501 764 c 1,5,6
 361.847 845.173 361.847 845.173 292 929.5 c 0,7,8
 203 1036.95 203 1036.95 203 1170 c 0,9,10
 203 1349.34 203 1349.34 353.5 1451.5 c 0,11,12
 489.763 1544 489.763 1544 697 1544 c 0,13,14
 889.379 1544 889.379 1544 1019.5 1443.5 c 0,15,16
 1152 1341.16 1152 1341.16 1152 1182 c 0,17,18
 1152 1055.57 1152 1055.57 1058 951.5 c 0,19,20
 972.161 856.464 972.161 856.464 858 822 c 1,21,22
 1023.85 735.471 1023.85 735.471 1088.42 670.236 c 128,-1,23
 1153 605 1153 605 1182.5 545 c 128,-1,24
 1212 485 1212 485 1212 397.5 c 128,-1,25
 1212 310 1212 310 1174 231 c 128,-1,26
 1136 152 1136 152 1065.5 97 c 0,27,28
 920.655 -16 920.655 -16 668 -16 c 0,29,30
 494.433 -16 494.433 -16 337.5 72 c 0,31,32
 153 175.458 153 175.458 153 366 c 0,0,1
757 875 m 1,33,34
 837.011 917.933 837.011 917.933 888.5 999 c 0,35,36
 937 1075.36 937 1075.36 937 1149.18 c 128,-1,37
 937 1223 937 1223 920 1276 c 128,-1,38
 903 1329 903 1329 871 1365.5 c 0,39,40
 805.685 1440 805.685 1440 692 1440 c 0,41,42
 496.253 1440 496.253 1440 427 1319.5 c 0,43,44
 402 1276 402 1276 402 1214.5 c 128,-1,45
 402 1153 402 1153 431.5 1106.5 c 128,-1,46
 461 1060 461 1060 510 1020.5 c 128,-1,47
 559 981 559 981 623 946 c 2,48,-1
 757 875 l 1,33,34
399.5 489.5 m 0,49,50
 385 442 385 442 385 386.5 c 128,-1,51
 385 331 385 331 409 278 c 128,-1,52
 433 225 433 225 474 186.5 c 0,53,54
 560.792 105 560.792 105 687 105 c 256,55,56
 908.548 105 908.548 105 982 231.5 c 0,57,58
 1009 278 1009 278 1009 342.5 c 128,-1,59
 1009 407 1009 407 979.5 454 c 128,-1,60
 950 501 950 501 901 540.5 c 128,-1,61
 852 580 852 580 789 614 c 2,62,-1
 659 682 l 1,63,-1
 633.5 694 l 2,64,65
 621 700 621 700 609 707 c 1,66,67
 448.026 648.464 448.026 648.464 399.5 489.5 c 0,49,50
EndSplineSet
EndChar

StartChar: nine
Encoding: 57 57 250
Width: 1365
Flags: HW
LayerCount: 2
Fore
SplineSet
968 463 m 1,0,1
 789.852 333 789.852 333 591 333 c 0,2,3
 374.927 333 374.927 333 242.5 480.5 c 0,4,5
 116 621.398 116 621.398 116 839 c 0,6,7
 116 1063.54 116 1063.54 281.5 1220.5 c 0,8,9
 448.626 1379 448.626 1379 696 1379 c 0,10,11
 963.254 1379 963.254 1379 1108.5 1182 c 0,12,13
 1232.6 1013.68 1232.6 1013.68 1236 769 c 1,14,15
 1239.5 248.137 1239.5 248.137 862.5 -34 c 0,16,17
 653.342 -190.531 653.342 -190.531 399.5 -235 c 0,18,19
 331 -247 331 -247 279 -248 c 1,20,-1
 255 -163 l 1,21,-1
 261 -160 l 1,22,23
 506.747 -131.8 506.747 -131.8 701.5 39 c 0,24,25
 898.847 212.075 898.847 212.075 968 463 c 1,0,1
538 513 m 128,-1,27
 602 482 602 482 659 482 c 128,-1,28
 716 482 716 482 755 489 c 128,-1,29
 794 496 794 496 836 510.5 c 0,30,31
 929.095 542.64 929.095 542.64 994 598 c 1,32,33
 999 658 999 658 999 747 c 128,-1,34
 999 836 999 836 976.5 940.5 c 128,-1,35
 954 1045 954 1045 913.5 1114.5 c 0,36,37
 832.791 1253 832.791 1253 690 1253 c 0,38,39
 421.408 1253 421.408 1253 362 1031 c 0,40,41
 343 960 343 960 343 875.5 c 128,-1,42
 343 791 343 791 365 720.5 c 128,-1,43
 387 650 387 650 430.5 597 c 128,-1,26
 474 544 474 544 538 513 c 128,-1,27
EndSplineSet
EndChar

StartChar: Aogonek
Encoding: 260 260 252
Width: 1522
Flags: HW
LayerCount: 2
Fore
SplineSet
1111.5 -366 m 0,0,1
 1139 -374 1139 -374 1176 -374 c 128,-1,2
 1213 -374 1213 -374 1317 -348 c 1,3,-1
 1317 -441 l 1,4,5
 1259.23 -485.928 1259.23 -485.928 1157 -503.5 c 0,6,7
 1125 -509 1125 -509 1085.5 -509 c 128,-1,8
 1046 -509 1046 -509 997 -494 c 128,-1,9
 948 -479 948 -479 908.5 -450.5 c 0,10,11
 820 -386.646 820 -386.646 820 -286 c 0,12,13
 820 -151.973 820 -151.973 956.5 -51 c 1,14,-1
 1027 -1 l 1,15,16
 1129 58.16 1129 58.16 1129 174 c 0,17,18
 1129 196 1129 196 1125 218 c 1,19,-1
 1024 492 l 1,20,-1
 430 492 l 1,21,-1
 320 183 l 2,22,23
 302.26 135.694 302.26 135.694 355.5 115.5 c 0,24,25
 370 110 370 110 384 110 c 128,-1,26
 398 110 398 110 416.5 111 c 128,-1,27
 435 112 435 112 454.5 114 c 0,28,29
 499.813 118.647 499.813 118.647 526 128 c 1,30,-1
 510 0 l 1,31,-1
 0 0 l 1,32,-1
 13 109 l 1,33,34
 87.9655 109 87.9655 109 113.483 129 c 0,35,36
 150.013 157.632 150.013 157.632 181 232 c 1,37,-1
 676 1539 l 1,38,39
 743.353 1539 743.353 1539 845 1571 c 1,40,-1
 1304 335 l 2,41,42
 1362.81 178.168 1362.81 178.168 1420 127 c 0,43,44
 1439 110 1439 110 1454 110 c 256,45,46
 1498.06 110 1498.06 110 1534 133 c 1,47,-1
 1513 0 l 1,48,-1
 1328 0 l 2,49,50
 1230.35 0 1230.35 0 1129.5 -65.5 c 0,51,52
 1014 -140.515 1014 -140.515 1014 -244 c 0,53,54
 1014 -337.636 1014 -337.636 1111.5 -366 c 0,0,1
981 607 m 1,55,-1
 723 1307 l 1,56,-1
 472 607 l 1,57,-1
 981 607 l 1,55,-1
EndSplineSet
EndChar

StartChar: Eogonek
Encoding: 280 280 253
Width: 1368
Flags: HW
LayerCount: 2
Fore
SplineSet
1228 -441 m 1,0,1
 1144.65 -509 1144.65 -509 1011 -509 c 0,2,3
 907.895 -509 907.895 -509 834 -450.5 c 0,4,5
 755 -387.958 755 -387.958 755 -286 c 0,6,7
 755 -185.914 755 -185.914 841 -95 c 0,8,9
 898.787 -33.911 898.787 -33.911 970 0 c 1,10,-1
 981 2 l 1,11,-1
 88 2 l 1,12,-1
 105 112 l 1,13,14
 204.532 112 204.532 112 236 155.5 c 0,15,16
 264 194.206 264 194.206 264 309 c 2,17,-1
 264 1223 l 2,18,19
 264 1416 264 1416 177 1416 c 0,20,21
 141.5 1416 141.5 1416 101 1407 c 1,22,-1
 113 1532 l 1,23,-1
 889 1532 l 2,24,25
 1130 1532 1130 1532 1250 1548 c 1,26,27
 1250 1387.6 1250 1387.6 1218.5 1228 c 0,28,29
 1211 1190 1211 1190 1205 1170 c 1,30,-1
 1103 1170 l 1,31,32
 1093.38 1331.65 1093.38 1331.65 1041 1375 c 0,33,34
 1012 1399 1012 1399 965.5 1405 c 128,-1,35
 919 1411 919 1411 849 1411 c 2,36,-1
 481 1411 l 1,37,-1
 481 876 l 1,38,-1
 688 876 l 2,39,40
 787.762 876 787.762 876 819.5 919 c 0,41,42
 839.173 945.654 839.173 945.654 851 1045 c 1,43,-1
 973 1046 l 1,44,-1
 974 993 l 1,45,46
 974 866 974 866 956 602 c 1,47,-1
 954 570 l 1,48,-1
 831 570 l 1,49,50
 824.362 682.838 824.362 682.838 805.181 711.919 c 0,51,52
 771.489 763 771.489 763 682 763 c 2,53,-1
 481 763 l 1,54,-1
 481 281 l 2,55,56
 481 183.714 481 183.714 518 152 c 0,57,58
 554.132 121.029 554.132 121.029 673 117 c 1,59,-1
 864 117 l 2,60,61
 1064.04 117 1064.04 117 1140 289.5 c 0,62,63
 1164 344 1164 344 1172 412 c 1,64,-1
 1296 412 l 1,65,66
 1296 298.421 1296 298.421 1273.5 171.711 c 2,67,-1
 1243 2 l 1,68,-1
 1200 2 l 1,69,70
 1204 1 1204 1 1208 1 c 2,71,-1
 1214 1 l 2,72,73
 1217 1 1217 1 1219 0 c 1,74,75
 1142.97 -9.26848 1142.97 -9.26848 1058 -64.5 c 0,76,77
 949 -135.35 949 -135.35 949 -244 c 0,78,79
 949 -337.636 949 -337.636 1046.5 -366 c 0,80,81
 1074 -374 1074 -374 1119.89 -374 c 128,-1,82
 1165.78 -374 1165.78 -374 1228 -346 c 1,83,-1
 1228 -441 l 1,0,1
EndSplineSet
EndChar

StartChar: eogonek
Encoding: 281 281 254
Width: 1195
Flags: HW
LayerCount: 2
Fore
SplineSet
723 -2 m 1,0,1
 660.167 -15 660.167 -15 618 -15 c 0,2,3
 240.533 -15 240.533 -15 142.5 318 c 0,4,5
 111 425 111 425 111 567.5 c 128,-1,6
 111 710 111 710 157.5 830 c 128,-1,7
 204 950 204 950 280.5 1034.5 c 128,-1,8
 357 1119 357 1119 456 1165 c 128,-1,9
 555 1211 555 1211 661 1211 c 0,10,11
 1086 1211 1086 1211 1086 725 c 2,12,-1
 1086 715 l 2,13,14
 1086 588 1086 588 1056 588 c 2,15,-1
 320 588 l 1,16,17
 320 379 320 379 412.5 270 c 128,-1,18
 505 161 505 161 675 158 c 1,19,20
 872.591 171.472 872.591 171.472 1024 253 c 1,21,-1
 1068 169 l 1,22,23
 1052 155 1052 155 1034.5 142.5 c 2,24,-1
 999 118 l 1,25,26
 745 -106.118 745 -106.118 745 -253 c 0,27,28
 745 -377 745 -377 876 -377 c 0,29,30
 945 -377 945 -377 1008 -356 c 1,31,-1
 1020 -355 l 1,32,-1
 1020 -445 l 1,33,34
 915.724 -508 915.724 -508 788 -508 c 0,35,36
 691.296 -508 691.296 -508 620 -453 c 0,37,38
 541 -392.057 541 -392.057 541 -296 c 0,39,40
 541 -141.533 541 -141.533 723 -2 c 1,0,1
858 716 m 1,41,42
 859 737 859 737 859 748.5 c 2,43,-1
 859 781 l 2,44,45
 859 1015.77 859 1015.77 728.5 1070.5 c 0,46,47
 682 1090 682 1090 628.5 1090 c 128,-1,48
 575 1090 575 1090 538 1074 c 128,-1,49
 501 1058 501 1058 468.5 1030 c 128,-1,50
 436 1002 436 1002 409 964.5 c 128,-1,51
 382 927 382 927 362 882.5 c 0,52,53
 320 789.05 320 789.05 320 692 c 1,54,-1
 858 716 l 1,41,42
EndSplineSet
EndChar

StartChar: breve
Encoding: 728 728 266
Width: 1019
Flags: HW
LayerCount: 2
Fore
SplineSet
154 1696 m 1,0,-1
 264 1710 l 1,1,2
 301.261 1593.56 301.261 1593.56 420 1554.5 c 0,3,4
 458 1542 458 1542 500 1542 c 128,-1,5
 542 1542 542 1542 569.5 1549 c 128,-1,6
 597 1556 597 1556 620 1568 c 0,7,8
 705.699 1612.71 705.699 1612.71 745 1712 c 1,9,-1
 875 1696 l 1,10,11
 875 1599.17 875 1599.17 803 1504.5 c 0,12,13
 704.507 1375 704.507 1375 509 1375 c 256,14,15
 260.417 1375 260.417 1375 180 1568 c 0,16,17
 154 1630.4 154 1630.4 154 1696 c 1,0,-1
EndSplineSet
EndChar

StartChar: ogonek
Encoding: 731 731 267
Width: 684
Flags: HW
LayerCount: 2
Fore
SplineSet
593 -445 m 1,0,1
 490.897 -508 490.897 -508 362 -508 c 0,2,3
 207.479 -508 207.479 -508 153.5 -401.5 c 0,4,5
 135 -365 135 -365 135 -319.5 c 128,-1,6
 135 -274 135 -274 146 -236.5 c 128,-1,7
 157 -199 157 -199 175 -165 c 0,8,9
 241.273 -39.8182 241.273 -39.8182 391 60 c 1,10,-1
 493 44 l 1,11,12
 320 -129 320 -129 320 -253 c 128,-1,13
 320 -377 320 -377 450 -377 c 0,14,15
 493 -377 493 -377 593 -352 c 1,16,-1
 593 -445 l 1,0,1
EndSplineSet
EndChar

StartChar: Omega
Encoding: 937 937 268
AltUni2: 002126.ffffffff.0
Width: 1881
Flags: HW
LayerCount: 2
Fore
SplineSet
188 2 m 1,0,1
 134 260 134 260 134 410 c 1,2,-1
 257 410 l 1,3,4
 279.466 219.04 279.466 219.04 447.5 180.5 c 0,5,6
 502 168 502 168 571 168 c 2,7,-1
 720 168 l 1,8,-1
 720 219 l 1,9,10
 518.329 275.781 518.329 275.781 383 475.5 c 0,11,12
 252 668.831 252 668.831 252 891 c 0,13,14
 252 1030 252 1030 307 1149.5 c 128,-1,15
 362 1269 362 1269 458 1357 c 0,16,17
 663.091 1545 663.091 1545 970 1545 c 0,18,19
 1300.55 1545 1300.55 1545 1480 1357 c 0,20,21
 1648 1181 1648 1181 1648 891 c 0,22,23
 1648 677.48 1648 677.48 1515.5 482.5 c 128,-1,24
 1383.13 287.709 1383.13 287.709 1192 224 c 1,25,-1
 1192 168 l 1,26,-1
 1332 168 l 2,27,28
 1471.98 168 1471.98 168 1540.5 221.5 c 0,29,30
 1613.53 278.525 1613.53 278.525 1629 410 c 1,31,-1
 1752 410 l 1,32,33
 1752 303.667 1752 303.667 1697 47 c 1,34,-1
 1688 0 l 1,35,-1
 1057 0 l 1,36,-1
 1057 284 l 1,37,38
 1225.33 331.693 1225.33 331.693 1329.5 531.5 c 0,39,40
 1421 707 1421 707 1421 891 c 0,41,42
 1421 1108.91 1421 1108.91 1326 1257 c 0,43,44
 1211.17 1436 1211.17 1436 970 1436 c 256,45,46
 653.885 1436 653.885 1436 529 1143 c 0,47,48
 479 1025.69 479 1025.69 479 891 c 0,49,50
 479 709.75 479 709.75 577 526 c 0,51,52
 643.497 401.317 643.497 401.317 743.5 328.5 c 0,53,54
 795 291 795 291 855 274 c 1,55,-1
 855 0 l 1,56,-1
 195 0 l 1,57,-1
 188 2 l 1,0,1
EndSplineSet
EndChar

StartChar: pi
Encoding: 960 960 269
Width: 1537
Flags: HW
LayerCount: 2
Fore
SplineSet
1201 916 m 1,0,-1
 1110 915 l 1,1,2
 1107 878 1107 878 1103.5 829.5 c 128,-1,3
 1100 781 1100 781 1095.5 729 c 128,-1,4
 1091 677 1091 677 1087 624.5 c 128,-1,5
 1083 572 1083 572 1080 525.5 c 0,6,7
 1073 417 1073 417 1073 371.5 c 128,-1,8
 1073 326 1073 326 1081 284.5 c 128,-1,9
 1089 243 1089 243 1104.5 218.5 c 0,10,11
 1135.17 170.023 1135.17 170.023 1195 178 c 1,12,13
 1274.94 199.036 1274.94 199.036 1294 342 c 1,14,-1
 1427 342 l 1,15,16
 1419.66 178.705 1419.66 178.705 1316 78.5 c 0,17,18
 1226.52 -8.00003 1226.52 -8.00003 1120 -8 c 0,19,20
 943.34 -8 943.34 -8 906 127 c 0,21,22
 893 174 893 174 893 222.5 c 128,-1,23
 893 271 893 271 897 321.5 c 128,-1,24
 901 372 901 372 907 432.5 c 128,-1,25
 913 493 913 493 921 560 c 2,26,-1
 952.5 813.5 l 1,27,-1
 966 914 l 1,28,-1
 639 912 l 1,29,-1
 592 479 l 2,30,31
 565.149 226.154 565.149 226.154 534.575 141.077 c 128,-1,32
 504 56 504 56 469.5 21.5 c 128,-1,33
 435 -13 435 -13 373 -13 c 128,-1,34
 311 -13 311 -13 276.5 19 c 128,-1,35
 242 51 242 51 242 101 c 0,36,37
 242 106 242 106 261.5 129.5 c 2,38,-1
 304 183 l 1,39,40
 399.714 307.845 399.714 307.845 427 479 c 1,41,-1
 501 911 l 1,42,-1
 467 911 l 2,43,44
 355.25 911 355.25 911 327.625 894 c 128,-1,45
 300 877 300 877 290 857.5 c 128,-1,46
 280 838 280 838 273 819 c 128,-1,47
 266 800 266 800 263.5 791.5 c 128,-1,48
 261 783 261 783 257 775 c 1,49,-1
 147 775 l 1,50,-1
 140 778 l 1,51,52
 143 790 143 790 146.5 807.5 c 128,-1,53
 150 825 150 825 157 854.5 c 128,-1,54
 164 884 164 884 178.5 916 c 128,-1,55
 193 948 193 948 216.5 979 c 128,-1,56
 240 1010 240 1010 277.5 1035 c 0,57,58
 361.5 1091 361.5 1091 495 1091 c 2,59,-1
 1073 1091 l 2,60,61
 1221.05 1091 1221.05 1091 1291 1148 c 0,62,63
 1323 1173 1323 1173 1334 1205 c 1,64,-1
 1430 1205 l 1,65,-1
 1375 1035 l 2,66,67
 1359 984 1359 984 1314.5 949.5 c 128,-1,68
 1270 915 1270 915 1201 916 c 1,0,-1
EndSplineSet
EndChar

StartChar: perthousand
Encoding: 8240 8240 271
Width: 3233
Flags: HW
LayerCount: 2
Fore
SplineSet
1367 1545 m 1,0,-1
 1525 1545 l 1,1,-1
 825 0 l 1,2,-1
 668 0 l 1,3,-1
 1367 1545 l 1,0,-1
524.5 660.5 m 0,4,5
 440 662 440 662 372.5 691.5 c 128,-1,6
 305 721 305 721 255 775 c 0,7,8
 146.115 892.595 146.115 892.595 150 1081 c 0,9,10
 154.12 1278.74 154.12 1278.74 273.5 1408.5 c 0,11,12
 398.16 1544 398.16 1544 588 1544 c 0,13,14
 739.939 1544 739.939 1544 859.5 1415.5 c 0,15,16
 976 1290.29 976 1290.29 976 1134 c 0,17,18
 976 909.476 976 909.476 839 779 c 0,19,20
 711.097 657.188 711.097 657.188 524.5 660.5 c 0,4,5
480.5 783.5 m 128,-1,22
 518 755 518 755 564 755 c 128,-1,23
 610 755 610 755 648 779.5 c 128,-1,24
 686 804 686 804 713 848 c 0,25,26
 769 939.259 769 939.259 769 1091 c 0,27,28
 769 1238.2 769 1238.2 710.5 1343.5 c 0,29,30
 650.222 1452 650.222 1452 562 1452 c 0,31,32
 424.213 1452 424.213 1452 376 1279 c 0,33,34
 359 1218 359 1218 359 1134.5 c 128,-1,35
 359 1051 359 1051 374 982 c 128,-1,36
 389 913 389 913 416 862.5 c 128,-1,21
 443 812 443 812 480.5 783.5 c 128,-1,22
2249 407.5 m 0,37,38
 2251 502 2251 502 2283 586 c 128,-1,39
 2315 670 2315 670 2372 732.5 c 0,40,41
 2495.58 868 2495.58 868 2686 868 c 0,42,43
 2837.94 868 2837.94 868 2957.5 739.5 c 0,44,45
 3074 614.29 3074 614.29 3074 458 c 0,46,47
 3074 235.024 3074 235.024 2936 102.5 c 0,48,49
 2807.09 -21.2963 2807.09 -21.2963 2614 -15 c 1,50,51
 2462.42 -8.684 2462.42 -8.684 2357 105 c 0,52,53
 2245.15 225.622 2245.15 225.622 2249 407.5 c 0,37,38
1238 407.5 m 0,54,55
 1240 502 1240 502 1272 586 c 128,-1,56
 1304 670 1304 670 1361 732.5 c 0,57,58
 1484.58 868 1484.58 868 1675 868 c 0,59,60
 1826.94 868 1826.94 868 1946.5 739.5 c 0,61,62
 2063 614.29 2063 614.29 2063 458 c 0,63,64
 2063 235.024 2063 235.024 1925 102.5 c 0,65,66
 1796.09 -21.2963 1796.09 -21.2963 1603 -15 c 1,67,68
 1451.42 -8.684 1451.42 -8.684 1346 105 c 0,69,70
 1234.15 225.622 1234.15 225.622 1238 407.5 c 0,54,55
2476 606 m 0,71,72
 2459 545 2459 545 2457 458 c 128,-1,73
 2455 371 2455 371 2469.5 302 c 128,-1,74
 2484 233 2484 233 2511 183.5 c 0,75,76
 2567.45 79.9999 2567.45 79.9999 2661 80 c 0,77,78
 2754.88 80 2754.88 80 2811 172.5 c 0,79,80
 2867 264.796 2867 264.796 2867 416 c 0,81,82
 2867 562.2 2867 562.2 2808.5 667.5 c 0,83,84
 2748.22 776 2748.22 776 2659 776 c 0,85,86
 2523.38 776 2523.38 776 2476 606 c 0,71,72
1465 606 m 0,87,88
 1448 545 1448 545 1446 458 c 128,-1,89
 1444 371 1444 371 1458.5 302 c 128,-1,90
 1473 233 1473 233 1500 183.5 c 0,91,92
 1556.45 79.9999 1556.45 79.9999 1650 80 c 0,93,94
 1743.88 80 1743.88 80 1800 172.5 c 0,95,96
 1856 264.796 1856 264.796 1856 416 c 0,97,98
 1856 562.2 1856 562.2 1797.5 667.5 c 0,99,100
 1737.22 776 1737.22 776 1648 776 c 0,101,102
 1512.38 776 1512.38 776 1465 606 c 0,87,88
EndSplineSet
EndChar

StartChar: fraction
Encoding: 8260 8260 272
Width: 1196
Flags: HW
LayerCount: 2
Fore
SplineSet
1054 1722 m 1,0,-1
 1136 1678 l 1,1,2
 1156 1666 1156 1666 1162 1663 c 1,3,-1
 138 -233 l 1,4,-1
 31 -173 l 1,5,-1
 1054 1722 l 1,0,-1
EndSplineSet
EndChar

StartChar: partialdiff
Encoding: 8706 8706 273
Width: 1364
Flags: HW
LayerCount: 2
Fore
SplineSet
240 1558 m 1,0,-1
 320 1559 l 1,1,2
 658.608 1559 658.608 1559 860.5 1450.5 c 0,3,4
 1223 1255.69 1223 1255.69 1223 725 c 0,5,6
 1223 406.985 1223 406.985 1091 208 c 0,7,8
 945.059 -12 945.059 -12 679 -12 c 0,9,10
 453.8 -12 453.8 -12 317 102 c 0,11,12
 212.224 189.313 212.224 189.313 166 336.5 c 0,13,14
 136 432.026 136 432.026 136 538.013 c 128,-1,15
 136 644 136 644 178 736.5 c 128,-1,16
 220 829 220 829 295 896 c 0,17,18
 452.836 1037 452.836 1037 700 1037 c 0,19,20
 859.811 1037 859.811 1037 992 964 c 1,21,22
 942.625 1168.82 942.625 1168.82 799 1290 c 0,23,24
 609.37 1450 609.37 1450 287 1450 c 0,25,26
 270 1450 270 1450 254.5 1449.5 c 128,-1,27
 239 1449 239 1449 211 1449 c 1,28,29
 240 1546.88 240 1546.88 240 1558 c 1,0,-1
352 516 m 256,30,31
 352 346.829 352 346.829 436 228 c 0,32,33
 527.19 99 527.19 99 670 99 c 0,34,35
 753.044 99 753.044 99 803.522 128.5 c 128,-1,36
 854 158 854 158 890.5 200 c 128,-1,37
 927 242 927 242 955.5 312.5 c 0,38,39
 1018 467.105 1018 467.105 1018 733 c 0,40,41
 1018 753 1018 753 1017 772 c 2,42,-1
 1015 811 l 1,43,44
 851.2 902 851.2 902 694 902 c 0,45,46
 517.057 902 517.057 902 429.5 788.5 c 0,47,48
 352 688.037 352 688.037 352 516 c 256,30,31
EndSplineSet
EndChar

StartChar: product
Encoding: 8719 8719 274
Width: 1535
Flags: HW
LayerCount: 2
Fore
SplineSet
1318 -54 m 128,-1,1
 1334 -61 1334 -61 1378.17 -61 c 128,-1,2
 1422.33 -61 1422.33 -61 1469 -47 c 1,3,-1
 1457 -170 l 1,4,-1
 873 -170 l 1,5,-1
 892 -61 l 1,6,7
 990.83 -61 990.83 -61 1025.5 -8.5 c 0,8,9
 1055 36.1714 1055 36.1714 1055 156 c 2,10,-1
 1055 1213 l 2,11,12
 1055 1340.26 1055 1340.26 1040.5 1368.63 c 128,-1,13
 1026 1397 1026 1397 1004.5 1405 c 128,-1,14
 983 1413 983 1413 947 1413 c 2,15,-1
 599 1413 l 2,16,17
 555 1413 555 1413 526.5 1408 c 128,-1,18
 498 1403 498 1403 481.5 1383 c 0,19,20
 453 1348.45 453 1348.45 453 1207 c 2,21,-1
 453 99 l 2,22,23
 453 -8 453 -8 463 -30 c 128,-1,24
 473 -52 473 -52 485.5 -56.5 c 128,-1,25
 498 -61 498 -61 526 -61 c 0,26,27
 578 -61 578 -61 642 -45 c 1,28,-1
 627 -170 l 1,29,-1
 70 -170 l 1,30,-1
 87 -63 l 1,31,-1
 94 -61 l 1,32,33
 169.681 -61 169.681 -61 203 -17.5 c 0,34,35
 239 29.5 239 29.5 239 137 c 2,36,-1
 239 1220 l 2,37,38
 239 1413 239 1413 152 1413 c 0,39,40
 105 1413 105 1413 63 1404 c 1,41,-1
 75 1529 l 1,42,-1
 1451 1529 l 1,43,-1
 1437 1413 l 1,44,45
 1346.32 1413 1346.32 1413 1318.16 1383.5 c 0,46,47
 1269 1332 1269 1332 1269 1212 c 2,48,-1
 1269 88 l 2,49,50
 1269 4 1269 4 1285.5 -21.5 c 128,-1,0
 1302 -47 1302 -47 1318 -54 c 128,-1,1
EndSplineSet
EndChar

StartChar: summation
Encoding: 8721 8721 275
Width: 1533
Flags: HW
LayerCount: 2
Fore
SplineSet
1366 237 m 1,0,1
 1366 80 1366 80 1312 -172 c 1,2,-1
 201 -172 l 1,3,-1
 182 -110 l 1,4,-1
 691 683 l 1,5,-1
 202 1446 l 1,6,-1
 218 1529 l 1,7,-1
 926 1530 l 2,8,9
 1175 1530 1175 1530 1291 1546 c 1,10,11
 1291 1321.33 1291 1321.33 1245 1168 c 1,12,-1
 1145 1168 l 1,13,14
 1135.4 1329.32 1135.4 1329.32 1081.5 1375 c 0,15,16
 1052 1400 1052 1400 1004.5 1406.5 c 128,-1,17
 957 1413 957 1413 885 1413 c 2,18,-1
 445 1413 l 1,19,-1
 918 686 l 1,20,-1
 459 -59 l 1,21,-1
 953 -49 l 2,22,23
 1209.78 -43.3358 1209.78 -43.3358 1243 237 c 1,24,-1
 1366 237 l 1,0,1
EndSplineSet
EndChar

StartChar: minus
Encoding: 8722 8722 276
Width: 1366
Flags: HW
LayerCount: 2
Fore
SplineSet
180 876 m 1,0,-1
 1086 876 l 1,1,-1
 1086 718 l 1,2,-1
 180 718 l 1,3,-1
 180 876 l 1,0,-1
EndSplineSet
EndChar

StartChar: radical
Encoding: 8730 8730 277
Width: 1702
Flags: HW
LayerCount: 2
Fore
SplineSet
164 589 m 1,0,-1
 337 710 l 1,1,-1
 567 710 l 1,2,-1
 860 -123 l 1,3,-1
 1436 1868 l 1,4,-1
 1673 1868 l 1,5,-1
 955 -353 l 1,6,-1
 786 -353 l 1,7,-1
 381 548 l 1,8,-1
 258 467 l 1,9,-1
 164 589 l 1,0,-1
EndSplineSet
EndChar

StartChar: infinity
Encoding: 8734 8734 278
Width: 1877
Flags: HW
LayerCount: 2
Fore
SplineSet
517 140.5 m 128,-1,1
 445 139 445 139 372.5 174 c 128,-1,2
 300 209 300 209 251 268.5 c 0,3,4
 152.138 388.547 152.138 388.547 150 566 c 0,5,6
 146.031 792.207 146.031 792.207 273 945 c 0,7,8
 397.605 1094.95 397.605 1094.95 586 1099 c 0,9,10
 776.99 1102.29 776.99 1102.29 904 929.5 c 0,11,12
 947 871 947 871 977 792 c 1,13,14
 1038.81 946.535 1038.81 946.535 1163 1034.5 c 0,15,16
 1241.55 1090.14 1241.55 1090.14 1334.77 1092.07 c 128,-1,17
 1428 1094 1428 1094 1500.5 1058.5 c 128,-1,18
 1573 1023 1573 1023 1622 963.5 c 0,19,20
 1718.63 846.163 1718.63 846.163 1723 667 c 1,21,22
 1726.95 441.971 1726.95 441.971 1599 288 c 0,23,24
 1474.43 138.096 1474.43 138.096 1286 134 c 0,25,26
 1094.99 130.707 1094.99 130.707 968 302 c 0,27,28
 925 360 925 360 895 440 c 1,29,30
 855.32 340.799 855.32 340.799 774.5 254.5 c 0,31,32
 711.471 187.198 711.471 187.198 650.235 164.599 c 128,-1,0
 589 142 589 142 517 140.5 c 128,-1,1
639 341.5 m 0,33,34
 683 355 683 355 722.5 380.5 c 0,35,36
 807.521 435.387 807.521 435.387 850 530 c 1,37,-1
 773.5 691.5 l 1,38,39
 698.117 845.451 698.117 845.451 619 894 c 0,40,41
 575 921 575 921 512.5 919.5 c 128,-1,42
 450 918 450 918 401 889 c 128,-1,43
 352 860 352 860 320 816 c 0,44,45
 256.72 728.99 256.72 728.99 259 615 c 0,46,47
 260.86 481.09 260.86 481.09 352.5 398.5 c 0,48,49
 472.448 290.399 472.448 290.399 639 341.5 c 0,33,34
1022 703 m 1,50,51
 1114.13 498.008 1114.13 498.008 1162.57 433.004 c 128,-1,52
 1211 368 1211 368 1254.5 340 c 128,-1,53
 1298 312 1298 312 1359.5 313.5 c 128,-1,54
 1421 315 1421 315 1470.5 344 c 128,-1,55
 1520 373 1520 373 1552 417 c 0,56,57
 1615.24 503.95 1615.24 503.95 1613.12 597.475 c 128,-1,58
 1611 691 1611 691 1586 746 c 128,-1,59
 1561 801 1561 801 1520.5 837 c 0,60,61
 1440.45 908.154 1440.45 908.154 1322 906 c 0,62,63
 1176.61 902.696 1176.61 902.696 1077 789.5 c 0,64,65
 1044 752 1044 752 1022 703 c 1,50,51
EndSplineSet
EndChar

StartChar: integral
Encoding: 8747 8747 279
Width: 1024
Flags: HW
LayerCount: 2
Fore
SplineSet
-4 -469 m 1,0,1
 -14 -461 -14 -461 -14 -345.5 c 128,-1,2
 -14 -230 -14 -230 14 -97 c 1,3,-1
 122 -97 l 1,4,5
 136.728 -208.934 136.728 -208.934 157.864 -252.967 c 0,6,7
 202.52 -346 202.52 -346 306.26 -346 c 128,-1,8
 410 -346 410 -346 458 -264 c 128,-1,9
 506 -182 506 -182 506 -17 c 0,10,11
 506 170.467 506 170.467 453 439 c 2,12,-1
 392 742.5 l 2,13,14
 339 1009.27 339 1009.27 339 1155.13 c 128,-1,15
 339 1301 339 1301 368.5 1394.5 c 128,-1,16
 398 1488 398 1488 453.5 1558.5 c 0,17,18
 573.553 1711 573.553 1711 766 1711 c 1,19,-1
 967 1699 l 1,20,-1
 1023 1699 l 2,21,22
 1047 1699 1047 1699 1064 1699.5 c 128,-1,23
 1081 1700 1081 1700 1094 1701 c 1,24,25
 1094 1554.67 1094 1554.67 1060 1345 c 1,26,-1
 951 1345 l 1,27,-1
 934.5 1429 l 2,28,29
 903.07 1588 903.07 1588 759 1588 c 0,30,31
 629 1588 629 1588 576 1508.5 c 0,32,33
 527 1435 527 1435 527 1258 c 0,34,35
 527 1069.27 527 1069.27 580 802.5 c 1,36,-1
 642 499 l 1,37,38
 695 230.467 695 230.467 695 70.7333 c 128,-1,39
 695 -89 695 -89 661 -188.5 c 128,-1,40
 627 -288 627 -288 567.5 -354.5 c 0,41,42
 448.947 -487 448.947 -487 250 -487 c 0,43,44
 209 -487 209 -487 148 -478 c 128,-1,45
 87 -469 87 -469 -4 -469 c 1,0,1
EndSplineSet
EndChar

StartChar: notequal
Encoding: 8800 8800 281
Width: 1364
Flags: HW
LayerCount: 2
Fore
SplineSet
503 341 m 1,0,-1
 186 341 l 1,1,-1
 205 503 l 1,2,-1
 566 503 l 1,3,-1
 634 681 l 1,4,-1
 190 681 l 1,5,-1
 209 843 l 1,6,-1
 697 843 l 1,7,-1
 829 1187 l 1,8,-1
 989 1187 l 1,9,-1
 856 843 l 1,10,-1
 1177 843 l 1,11,-1
 1157 681 l 1,12,-1
 793 681 l 1,13,-1
 724 503 l 1,14,-1
 1173 503 l 1,15,-1
 1153 341 l 1,16,-1
 662 341 l 1,17,-1
 530 0 l 1,18,-1
 372 0 l 1,19,-1
 503 341 l 1,0,-1
EndSplineSet
EndChar

StartChar: lessequal
Encoding: 8804 8804 282
Width: 1364
Flags: HW
LayerCount: 2
Fore
SplineSet
173 1019 m 1,0,-1
 1131 1446 l 1,1,-1
 1131 1269 l 1,2,-1
 419 976 l 1,3,-1
 1131 680 l 1,4,-1
 1131 501 l 1,5,-1
 173 936 l 1,6,-1
 173 1019 l 1,0,-1
173 327 m 1,7,-1
 1131 327 l 1,8,-1
 1131 176 l 1,9,-1
 173 176 l 1,10,-1
 173 327 l 1,7,-1
EndSplineSet
EndChar

StartChar: lozenge
Encoding: 9674 9674 284
Width: 1415
Flags: HW
LayerCount: 2
Fore
SplineSet
182 692 m 1,0,-1
 182 744 l 1,1,-1
 613 1415 l 1,2,-1
 809 1415 l 1,3,-1
 1231 724 l 1,4,-1
 1231 672 l 1,5,-1
 800 0 l 1,6,-1
 603 0 l 1,7,-1
 182 692 l 1,0,-1
1047 679 m 1,8,-1
 698 1276 l 1,9,-1
 365 736 l 1,10,-1
 715 139 l 1,11,-1
 1047 679 l 1,8,-1
EndSplineSet
EndChar

StartChar: breve.cap
Encoding: 65549 -1 285
Width: 1022
Flags: HW
LayerCount: 2
Fore
SplineSet
504 1704 m 256,0,1
 256 1704 256 1704 175 1893 c 0,2,3
 149 1953.67 149 1953.67 149 2020 c 1,4,-1
 269 2038 l 1,5,6
 270 2036 270 2036 275.5 2022.5 c 128,-1,7
 281 2009 281 2009 292.5 1990.5 c 128,-1,8
 304 1972 304 1972 322 1951 c 128,-1,9
 340 1930 340 1930 366 1912 c 0,10,11
 425.222 1871 425.222 1871 497.611 1871 c 0,12,13
 615.375 1871 615.375 1871 688 1954 c 0,14,15
 721 1991 721 1991 740 2038 c 1,16,-1
 870 2020 l 1,17,18
 870 1925.17 870 1925.17 798 1830.5 c 0,19,20
 701.789 1704 701.789 1704 504 1704 c 256,0,1
EndSplineSet
EndChar

StartChar: hungarumlaut.cap
Encoding: 65550 -1 286
Width: 1022
Flags: HW
LayerCount: 2
Fore
SplineSet
505 1750 m 1,0,-1
 852 2024 l 1,1,-1
 943 1868 l 1,2,-1
 585 1650 l 1,3,-1
 505 1750 l 1,0,-1
87 1750 m 1,4,-1
 392 2024 l 1,5,-1
 494 1888 l 1,6,-1
 167 1650 l 1,7,-1
 87 1750 l 1,4,-1
EndSplineSet
EndChar

StartChar: Delta
Encoding: 916 916 287
AltUni2: 002206.ffffffff.0
Width: 1877
Flags: HW
LayerCount: 2
Fore
SplineSet
891 1566 m 1,0,-1
 935 1566 l 1,1,-1
 1677 29 l 1,2,-1
 1659 1 l 1,3,-1
 210 1 l 1,4,-1
 194 24 l 1,5,-1
 891 1566 l 1,0,-1
1388 144 m 1,6,-1
 876 1248 l 1,7,-1
 386 144 l 1,8,-1
 1388 144 l 1,6,-1
EndSplineSet
EndChar

StartChar: dcaron
Encoding: 271 271 288
Width: 1535
Flags: HW
LayerCount: 2
Fore
SplineSet
1272 1157 m 1,0,1
 1383.79 1275.36 1383.79 1275.36 1387 1391 c 1,2,3
 1289.76 1403.96 1289.76 1403.96 1254 1495 c 0,4,5
 1243 1523 1243 1523 1243 1556 c 128,-1,6
 1243 1589 1243 1589 1256 1619 c 128,-1,7
 1269 1649 1269 1649 1292 1671.5 c 0,8,9
 1341.58 1720 1341.58 1720 1396.29 1720 c 128,-1,10
 1451 1720 1451 1720 1481 1705.5 c 128,-1,11
 1511 1691 1511 1691 1531.5 1664.5 c 0,12,13
 1573 1610.85 1573 1610.85 1573 1541.43 c 128,-1,14
 1573 1472 1573 1472 1560.5 1422 c 128,-1,15
 1548 1372 1548 1372 1528 1327.5 c 128,-1,16
 1508 1283 1508 1283 1483.5 1245.5 c 128,-1,17
 1459 1208 1459 1208 1435.5 1181 c 0,18,19
 1385.89 1124 1385.89 1124 1361.94 1124 c 0,20,21
 1308.3 1124 1308.3 1124 1272 1157 c 1,0,1
544.5 1186.5 m 0,22,23
 621 1211 621 1211 721.318 1211 c 128,-1,24
 821.636 1211 821.636 1211 926 1183 c 1,25,-1
 926 1203 l 2,26,27
 926 1438.55 926 1438.55 918 1463.27 c 128,-1,28
 910 1488 910 1488 898.5 1499 c 128,-1,29
 887 1510 887 1510 868.5 1518 c 128,-1,30
 850 1526 850 1526 828 1529.5 c 0,31,32
 799.714 1534 799.714 1534 731 1534 c 2,33,-1
 712 1534 l 1,34,-1
 727 1648 l 1,35,-1
 1143 1706 l 1,36,37
 1143 1697 1143 1697 1141.5 1691 c 128,-1,38
 1140 1685 1140 1685 1137 1663.5 c 128,-1,39
 1134 1642 1134 1642 1131 1590 c 0,40,41
 1123 1451.33 1123 1451.33 1123 1216 c 2,42,-1
 1123 304 l 2,43,44
 1123 226 1123 226 1140.5 194 c 128,-1,45
 1158 162 1158 162 1190 162 c 0,46,47
 1231.71 162 1231.71 162 1286 181 c 1,48,-1
 1315 190 l 1,49,50
 1313 178 1313 178 1311.5 156.5 c 128,-1,51
 1310 135 1310 135 1308 112 c 128,-1,52
 1306 89 1306 89 1305 62 c 1,53,-1
 991 -16 l 1,54,55
 980.429 -10.7143 980.429 -10.7143 960.714 45.1429 c 128,-1,56
 941 101 941 101 934 127 c 1,57,58
 806.612 37.0791 806.612 37.0791 664 0 c 0,59,60
 614 -13 614 -13 543 -13 c 128,-1,61
 472 -13 472 -13 388 23 c 128,-1,62
 304 59 304 59 242.5 129.5 c 0,63,64
 110 281.39 110 281.39 110 547 c 0,65,66
 110 721.211 110 721.211 190 877 c 0,67,68
 310.439 1111.54 310.439 1111.54 544.5 1186.5 c 0,22,23
617.5 170.5 m 0,69,70
 673 172 673 172 725 183 c 128,-1,71
 777 194 777 194 819.5 208 c 0,72,73
 908.228 237.228 908.228 237.228 928 257 c 1,74,-1
 926 256 l 1,75,-1
 926 983 l 1,76,77
 881.625 1048.79 881.625 1048.79 757.5 1076 c 0,78,79
 721 1084 721 1084 663 1084 c 128,-1,80
 605 1084 605 1084 537.5 1057.5 c 128,-1,81
 470 1031 470 1031 422 971 c 0,82,83
 322 846 322 846 322 579 c 0,84,85
 322 399.244 322 399.244 413 280.5 c 0,86,87
 499.738 167.317 499.738 167.317 617.5 170.5 c 0,69,70
EndSplineSet
EndChar

